<?xml version="1.0" encoding="utf-8"?>
<!-- Generator: Adobe Illustrator 18.1.1, SVG Export Plug-In . SVG Version: 6.00 Build 0)  -->
<svg version="1.1" id="Layer_1" xmlns="http://www.w3.org/2000/svg" xmlns:xlink="http://www.w3.org/1999/xlink" x="0px" y="0px"
	 viewBox="0 0 1080 1080" enable-background="new 0 0 1080 1080" xml:space="preserve">
<g>
	
		<image overflow="visible" opacity="0.2" enable-background="new    " width="1095" height="880" xlink:href="A9386527519342B4.png"  transform="matrix(1.0547 0 0 1.0547 -22.1484 -4.0625)">
	</image>
	<g>
		<g>
			<rect x="-1.3" y="23" fill="none" width="1082.5" height="863.3"/>
			<g>
				<rect x="-30.6" y="84.4" fill="#D9EDE2" width="1107.6" height="752.6"/>
				<path opacity="0.6" fill="#FFFFFF" enable-background="new    " d="M867.1,380.6c-1.2,0-2.4,0.1-3.5,0.3
					c-4.1-8-12.6-13.5-22.1-13.5c-12.3,0-22.5,8.9-24.6,20.6c-1.2-0.3-2.4-0.5-3.7-0.5c-4.1,0-7.9,1.7-10.5,4.4
					c-2.7-3-6.8-4.9-11.1-4.9c-8.3,0-15.2,6.7-15.2,15.2s6.8,15.2,15.2,15.2h75.6c10.1,0,18.4-8.2,18.4-18.4
					C885.5,388.8,877.3,380.6,867.1,380.6z"/>
				<path opacity="0.6" fill="#FFFFFF" enable-background="new    " d="M867.2,380.1c1.2,0,2.4,0.1,3.5,0.3
					c4.1-8,12.6-13.5,22.1-13.5c12.3,0,22.5,8.9,24.6,20.6c1.2-0.3,2.4-0.5,3.7-0.5c4.1,0,7.9,1.7,10.5,4.4c2.7-3,6.8-4.9,11.1-4.9
					c8.3,0,15.2,6.8,15.2,15.2c0,8.3-6.8,15.2-15.2,15.2h-75.6c-10.1,0-18.4-8.2-18.4-18.4C848.8,388.3,857,380.1,867.2,380.1z"/>
				<path opacity="0.6" fill="#FFFFFF" enable-background="new    " d="M168.8,401.4c7,0,12.7-5.7,12.7-12.7s-5.7-12.7-12.7-12.7
					c-0.8,0-1.7,0.1-2.4,0.2c-2.8-5.6-8.6-9.4-15.3-9.4c-8.4,0-15.5,6.1-17,14.2c-0.8-0.2-1.7-0.3-2.5-0.3c-2.8,0-5.5,1.2-7.3,3.1
					c-1.9-2.1-4.6-3.4-7.7-3.4c-5.8,0-10.4,4.6-10.4,10.4s4.6,10.4,10.4,10.4"/>
				<path opacity="0.6" fill="#FFFFFF" enable-background="new    " d="M348.6,280.4c-0.8,0-1.7,0.1-2.5,0.2
					c-0.9-15.6-13.8-28.1-29.7-28.1c-8.5,0-16.2,3.6-21.7,9.4c-1.8-0.4-3.6-0.6-5.5-0.6c-8.3,0-15.7,4-20.4,10.2
					c-3.2-1.8-6.8-2.7-10.7-2.7c-11.9,0-21.6,9.7-21.6,21.6c0,11.9,9.7,21.6,21.6,21.6h90.4c8.8,0,15.9-7.2,15.9-15.9
					C364.5,287.5,357.3,280.4,348.6,280.4z"/>
				<polygon fill="#A1B6A9" points="606.6,514.8 628,514.8 624.3,494 609.8,494 				"/>
				<polygon fill="#A1B6A9" points="615.6,450.2 615.6,450.2 619,498.8 613,498.8 				"/>
				<rect x="626.5" y="449.8" fill="#A1B6A9" width="43" height="152.4"/>
				<rect x="600.5" y="493.9" fill="#A1B6A9" width="34.7" height="129.9"/>
				<rect x="534.4" y="461.8" fill="#A1B6A9" width="56.4" height="163.7"/>
				<rect x="480.2" y="490.4" fill="#A1B6A9" width="39" height="152.4"/>
				<rect x="485.4" y="484.8" fill="#A1B6A9" width="27.3" height="9.2"/>
				<rect x="494.9" y="471.2" fill="#A1B6A9" width="14.4" height="17.3"/>
				<rect x="497.5" y="460" fill="#A1B6A9" width="8.3" height="13.1"/>
				<path fill="#B88D8F" d="M513,455.5v192h31.2h6.9V475.5h31.1v-44.4h-38.1v24.4H513z M550.2,458.2h26.1v9.4h-26.1V458.2z
					 M550.2,439.3h26.1v9.4h-26.1V439.3z M519.4,608h26.1v9.4h-26.1V608z M519.4,586.7h26.1v9.4h-26.1V586.7z M519.4,565.3h26.1v9.4
					h-26.1V565.3z M519.4,544h26.1v9.4h-26.1V544z M519.4,522.5h26.1v9.4h-26.1V522.5z M519.4,501.2h26.1v9.4h-26.1V501.2z
					 M519.4,479.8h26.1v9.4h-26.1V479.8z"/>
				<path fill="#599D97" d="M554.2,460.8v167.5h54.6V460.8H554.2z M593.6,596.6h5.8v13.8h-5.8V596.6z M593.6,571.6h5.8v13.8h-5.8
					V571.6z M593.6,546.5h5.8v13.8h-5.8V546.5z M593.6,521.5h5.8v13.8h-5.8V521.5z M593.6,496.4h5.8v13.8h-5.8V496.4z M593.6,471.4
					h5.8v13.8h-5.8V471.4z M583.7,596.6h5.9v13.8h-5.9V596.6z M583.7,571.6h5.9v13.8h-5.9V571.6z M583.7,546.5h5.9v13.8h-5.9V546.5z
					 M583.7,521.5h5.9v13.8h-5.9V521.5z M583.7,496.4h5.9v13.8h-5.9V496.4z M583.7,471.4h5.9v13.8h-5.9V471.4z M573.6,596.6h5.8
					v13.8h-5.8V596.6z M573.6,571.6h5.8v13.8h-5.8V571.6z M573.6,546.5h5.8v13.8h-5.8V546.5z M573.6,521.5h5.8v13.8h-5.8V521.5z
					 M573.6,496.4h5.8v13.8h-5.8V496.4z M573.6,471.4h5.8v13.8h-5.8V471.4z M563.6,596.6h5.8v13.8h-5.8V596.6z M563.6,571.6h5.8
					v13.8h-5.8V571.6z M563.6,546.5h5.8v13.8h-5.8V546.5z M563.6,521.5h5.8v13.8h-5.8V521.5z M563.6,496.4h5.8v13.8h-5.8V496.4z
					 M563.6,471.4h5.8v13.8h-5.8V471.4z"/>
				<path fill="#F16B62" d="M424.1,416v217.2h80.7V416H424.1z M482.2,592h8.6V610h-8.6V592z M482.2,559.6h8.6v17.9h-8.6V559.6z
					 M482.2,527.1h8.6V545h-8.6V527.1z M482.2,494.6h8.6v17.9h-8.6V494.6z M482.2,462.2h8.6v17.9h-8.6V462.2z M482.2,429.7h8.6v17.9
					h-8.6V429.7z M467.4,592h8.6V610h-8.6V592z M467.4,559.6h8.6v17.9h-8.6V559.6z M467.4,527.1h8.6V545h-8.6V527.1z M467.4,494.6
					h8.6v17.9h-8.6V494.6z M467.4,462.2h8.6v17.9h-8.6V462.2z M467.4,429.7h8.6v17.9h-8.6V429.7z M452.7,592h8.6V610h-8.6V592z
					 M452.7,559.6h8.6v17.9h-8.6V559.6z M452.7,527.1h8.6V545h-8.6V527.1z M452.7,494.6h8.6v17.9h-8.6V494.6z M452.7,462.2h8.6v17.9
					h-8.6V462.2z M452.7,429.7h8.6v17.9h-8.6V429.7z M437.9,592h8.6V610h-8.6V592z M437.9,559.6h8.6v17.9h-8.6V559.6z M437.9,527.1
					h8.6V545h-8.6V527.1z M437.9,494.6h8.6v17.9h-8.6V494.6z M437.9,462.2h8.6v17.9h-8.6V462.2z M437.9,429.7h8.6v17.9h-8.6V429.7z"
					/>
				<rect x="908.3" y="517.6" fill="#A1B6A9" width="44.6" height="116.8"/>
				<rect x="924.9" y="453.2" fill="#A1B6A9" width="56.4" height="163.7"/>
				<rect x="858.7" y="475" fill="#A1B6A9" width="39" height="152.4"/>
				<rect x="807.8" y="481.8" fill="#A1B6A9" width="43.3" height="152.4"/>
				<rect x="850.7" y="517.6" fill="#A1B6A9" width="29.6" height="116.8"/>
				<rect x="239.9" y="476.8" fill="#A1B6A9" width="39" height="152.4"/>
				<rect x="214.5" y="476.8" fill="#A1B6A9" width="43.3" height="152.4"/>
				<rect x="189.2" y="431.6" fill="#A1B6A9" width="33" height="197.5"/>
				<rect x="125.5" y="462.6" fill="#A1B6A9" width="70.9" height="158"/>
				<rect x="-13.1" y="462.6" fill="#A1B6A9" width="70.9" height="158"/>
				<rect x="72.2" y="439.8" fill="#A1B6A9" width="70.9" height="182.1"/>
				<path fill="#B88D8F" d="M196.5,419.7v217.2h70.8V419.7H196.5z M247.5,595.7h7.6v17.9h-7.6V595.7z M247.5,563.3h7.6v17.9h-7.6
					V563.3z M247.5,530.8h7.6v17.9h-7.6V530.8z M247.5,498.3h7.6v17.9h-7.6V498.3z M247.5,465.9h7.6v17.9h-7.6V465.9z M247.5,433.4
					h7.6v17.9h-7.6V433.4z M234.7,595.7h7.6v17.9h-7.6V595.7z M234.7,563.3h7.6v17.9h-7.6V563.3z M234.7,530.8h7.6v17.9h-7.6V530.8z
					 M234.7,498.3h7.6v17.9h-7.6V498.3z M234.7,465.9h7.6v17.9h-7.6V465.9z M234.7,433.4h7.6v17.9h-7.6V433.4z M221.7,595.7h7.6
					v17.9h-7.6V595.7z M221.7,563.3h7.6v17.9h-7.6V563.3z M221.7,530.8h7.6v17.9h-7.6V530.8z M221.7,498.3h7.6v17.9h-7.6V498.3z
					 M221.7,465.9h7.6v17.9h-7.6V465.9z M221.7,433.4h7.6v17.9h-7.6V433.4z M208.7,595.7h7.6v17.9h-7.6V595.7z M208.7,563.3h7.6
					v17.9h-7.6V563.3z M208.7,530.8h7.6v17.9h-7.6V530.8z M208.7,498.3h7.6v17.9h-7.6V498.3z M208.7,465.9h7.6v17.9h-7.6V465.9z
					 M208.7,433.4h7.6v17.9h-7.6V433.4z"/>
				<path fill="#D44F2D" d="M112.6,427.8v204.1h65.1V427.8h-13.2V393h-11.1v-17.3h-16.7V393h-11.1v34.8H112.6z M163.1,574.5h8.3
					v16.9h-8.3V574.5z M163.1,546.6h8.3v16.9h-8.3V546.6z M163.1,518.6h8.3v16.9h-8.3V518.6z M163.1,490.7h8.3v16.9h-8.3V490.7z
					 M163.1,462.8h8.3v16.9h-8.3V462.8z M163.1,435.3h8.3v16.9h-8.3V435.3z M148.8,574.5h8.3v16.9h-8.3V574.5z M148.8,546.6h8.3
					v16.9h-8.3V546.6z M148.8,518.6h8.3v16.9h-8.3V518.6z M148.8,490.7h8.3v16.9h-8.3V490.7z M148.8,462.8h8.3v16.9h-8.3V462.8z
					 M148.8,435.3h8.3v16.9h-8.3V435.3z M148.8,401.5h8.3v16.9h-8.3V401.5z M134.6,574.5h8.3v16.9h-8.3V574.5z M134.6,546.6h8.3
					v16.9h-8.3V546.6z M134.6,518.6h8.3v16.9h-8.3V518.6z M134.6,490.7h8.3v16.9h-8.3V490.7z M134.6,462.8h8.3v16.9h-8.3V462.8z
					 M134.6,435.3h8.3v16.9h-8.3V435.3z M134.6,401.5h8.3v16.9h-8.3V401.5z M120.4,574.5h8.3v16.9h-8.3V574.5z M120.4,546.6h8.3
					v16.9h-8.3V546.6z M120.4,518.6h8.3v16.9h-8.3V518.6z M120.4,490.7h8.3v16.9h-8.3V490.7z M120.4,462.8h8.3v16.9h-8.3V462.8z
					 M120.4,435.3h8.3v16.9h-8.3V435.3z"/>
				<rect x="862.5" y="469.4" fill="#A1B6A9" width="27.3" height="9.2"/>
				<rect x="875.3" y="454" fill="#A1B6A9" width="14.4" height="17.3"/>
				<rect x="877.9" y="442.9" fill="#A1B6A9" width="8.3" height="13.1"/>
				<rect x="708.5" y="419.4" fill="#A1B6A9" width="44.1" height="197.5"/>
				<rect x="994.3" y="433.1" fill="#A1B6A9" width="44.1" height="197.5"/>
				<path fill="#A1B6A9" d="M777.6,414"/>
				<path fill="#D44F2D" d="M903.3,447v192h31.2h6.9V467.1h31.2v-44.4h-38.1V447H903.3z M940.6,449.8h26.1v9.4h-26.1V449.8z
					 M940.6,430.9h26.1v9.4h-26.1V430.9z M909.9,599.5h26.1v9.4h-26.1V599.5z M909.9,578.1h26.1v9.4h-26.1V578.1z M909.9,556.8h26.1
					v9.4h-26.1V556.8z M909.9,535.4h26.1v9.4h-26.1V535.4z M909.9,514.1h26.1v9.4h-26.1V514.1z M909.9,492.7h26.1v9.4h-26.1V492.7z
					 M909.9,471.4h26.1v9.4h-26.1V471.4z"/>
				<path fill="#599D97" d="M944.7,471.4v167.5h54.6V471.4H944.7z M984,607.1h5.8v13.8H984V607.1z M984,582.1h5.8v13.8H984V582.1z
					 M984,557h5.8v13.8H984V557z M984,532h5.8v13.8H984V532z M984,506.9h5.8v13.8H984V506.9z M984,481.9h5.8v13.8H984V481.9z
					 M974,607.1h5.9v13.8H974V607.1z M974,582.1h5.9v13.8H974V582.1z M974,557h5.9v13.8H974V557z M974,532h5.9v13.8H974V532z
					 M974,506.9h5.9v13.8H974V506.9z M974,481.9h5.9v13.8H974V481.9z M964.1,607.1h5.8v13.8h-5.8V607.1z M964.1,582.1h5.8v13.8h-5.8
					V582.1z M964.1,557h5.8v13.8h-5.8V557z M964.1,532h5.8v13.8h-5.8V532z M964.1,506.9h5.8v13.8h-5.8V506.9z M964.1,481.9h5.8v13.8
					h-5.8V481.9z M954.1,607.1h5.8v13.8h-5.8V607.1z M954.1,582.1h5.8v13.8h-5.8V582.1z M954.1,557h5.8v13.8h-5.8V557z M954.1,532
					h5.8v13.8h-5.8V532z M954.1,506.9h5.8v13.8h-5.8V506.9z M954.1,481.9h5.8v13.8h-5.8V481.9z"/>
				<path fill="#599D97" d="M34.1,450.2v188.7h61.5V450.2H34.1z M78.5,603.1h6.6v15.6h-6.6V603.1z M78.5,575h6.6v15.6h-6.6V575z
					 M78.5,546.7h6.6v15.6h-6.6V546.7z M78.5,518.5h6.6v15.6h-6.6V518.5z M78.5,490.3h6.6v15.6h-6.6V490.3z M78.5,462h6.6v15.6h-6.6
					V462z M67.2,603.1h6.6v15.6h-6.6V603.1z M67.2,575h6.6v15.6h-6.6V575z M67.2,546.7h6.6v15.6h-6.6V546.7z M67.2,518.5h6.6v15.6
					h-6.6V518.5z M67.2,490.3h6.6v15.6h-6.6V490.3z M67.2,462h6.6v15.6h-6.6V462z M56,603.1h6.6v15.6H56V603.1z M56,575h6.6v15.6H56
					V575z M56,546.7h6.6v15.6H56V546.7z M56,518.5h6.6v15.6H56V518.5z M56,490.3h6.6v15.6H56V490.3z M56,462h6.6v15.6H56V462z
					 M44.7,603.1h6.6v15.6h-6.6V603.1z M44.7,575h6.6v15.6h-6.6V575z M44.7,546.7h6.6v15.6h-6.6V546.7z M44.7,518.5h6.6v15.6h-6.6
					V518.5z M44.7,490.3h6.6v15.6h-6.6V490.3z M44.7,462h6.6v15.6h-6.6V462z"/>
				<path fill="#F16B62" d="M1023,494.5V662h54.6V494.5H1023z M1062.4,630.2h5.8V644h-5.8V630.2z M1062.4,605.2h5.8V619h-5.8V605.2z
					 M1062.4,580.1h5.8v13.8h-5.8V580.1z M1062.4,555h5.8v13.8h-5.8V555z M1062.4,530h5.8v13.8h-5.8V530z M1062.4,504.9h5.8v13.8
					h-5.8V504.9z M1052.4,630.2h5.9V644h-5.9V630.2z M1052.4,605.2h5.9V619h-5.9V605.2z M1052.4,580.1h5.9v13.8h-5.9V580.1z
					 M1052.4,555h5.9v13.8h-5.9V555z M1052.4,530h5.9v13.8h-5.9V530z M1052.4,504.9h5.9v13.8h-5.9V504.9z M1042.5,630.2h5.8V644
					h-5.8V630.2z M1042.5,605.2h5.8V619h-5.8V605.2z M1042.5,580.1h5.8v13.8h-5.8V580.1z M1042.5,555h5.8v13.8h-5.8V555z
					 M1042.5,530h5.8v13.8h-5.8V530z M1042.5,504.9h5.8v13.8h-5.8V504.9z M1032.4,630.2h5.8V644h-5.8V630.2z M1032.4,605.2h5.8V619
					h-5.8V605.2z M1032.4,580.1h5.8v13.8h-5.8V580.1z M1032.4,555h5.8v13.8h-5.8V555z M1032.4,530h5.8v13.8h-5.8V530z M1032.4,504.9
					h5.8v13.8h-5.8V504.9z"/>
				<path fill="#F16B62" d="M719.8,441v217.2h79.8V441H719.8z M777.4,617h8.5V635h-8.5V617z M777.4,584.6h8.5v17.9h-8.5V584.6z
					 M777.4,552.1h8.5V570h-8.5V552.1z M777.4,519.6h8.5v17.9h-8.5V519.6z M777.4,487.1h8.5V505h-8.5V487.1z M777.4,454.7h8.5v17.9
					h-8.5V454.7z M762.8,617h8.5V635h-8.5V617z M762.8,584.6h8.5v17.9h-8.5V584.6z M762.8,552.1h8.5V570h-8.5V552.1z M762.8,519.6
					h8.5v17.9h-8.5V519.6z M762.8,487.1h8.5V505h-8.5V487.1z M762.8,454.7h8.5v17.9h-8.5V454.7z M748.2,617h8.5V635h-8.5V617z
					 M748.2,584.6h8.5v17.9h-8.5V584.6z M748.2,552.1h8.5V570h-8.5V552.1z M748.2,519.6h8.5v17.9h-8.5V519.6z M748.2,487.1h8.5V505
					h-8.5V487.1z M748.2,454.7h8.5v17.9h-8.5V454.7z M733.5,617h8.5V635h-8.5V617z M733.5,584.6h8.5v17.9h-8.5V584.6z M733.5,552.1
					h8.5V570h-8.5V552.1z M733.5,519.6h8.5v17.9h-8.5V519.6z M733.5,487.1h8.5V505h-8.5V487.1z M733.5,454.7h8.5v17.9h-8.5V454.7z"
					/>
				<path fill="#599D97" d="M817.8,464.1V632h54.7V464.1H817.8z M857.2,600.3h5.9v13.9h-5.9V600.3z M857.2,575.2h5.9v13.9h-5.9
					V575.2z M857.2,550.1h5.9V564h-5.9V550.1z M857.2,524.9h5.9v13.9h-5.9V524.9z M857.2,499.8h5.9v13.9h-5.9V499.8z M857.2,474.7
					h5.9v13.9h-5.9V474.7z M847.2,600.3h5.9v13.9h-5.9V600.3z M847.2,575.2h5.9v13.9h-5.9V575.2z M847.2,550.1h5.9V564h-5.9V550.1z
					 M847.2,524.9h5.9v13.9h-5.9V524.9z M847.2,499.8h5.9v13.9h-5.9V499.8z M847.2,474.7h5.9v13.9h-5.9V474.7z M837.2,600.3h5.9
					v13.9h-5.9V600.3z M837.2,575.2h5.9v13.9h-5.9V575.2z M837.2,550.1h5.9V564h-5.9V550.1z M837.2,524.9h5.9v13.9h-5.9V524.9z
					 M837.2,499.8h5.9v13.9h-5.9V499.8z M837.2,474.7h5.9v13.9h-5.9V474.7z M827.2,600.3h5.9v13.9h-5.9V600.3z M827.2,575.2h5.9
					v13.9h-5.9V575.2z M827.2,550.1h5.9V564h-5.9V550.1z M827.2,524.9h5.9v13.9h-5.9V524.9z M827.2,499.8h5.9v13.9h-5.9V499.8z
					 M827.2,474.7h5.9v13.9h-5.9V474.7z"/>
				<rect x="629.9" y="439" fill="#A1B6A9" width="44.2" height="177.9"/>
				<path fill="#B88D8F" d="M631.9,440.8V624H682V440.8h-10.1v-31.2h-8.5v-15.5h-12.8v15.5H642v31.2H631.9z M670.7,572.4h6.4v15.2
					h-6.4V572.4z M670.7,547.3h6.4v15.2h-6.4V547.3z M670.7,522.3h6.4v15.2h-6.4V522.3z M670.7,497.2h6.4v15.2h-6.4V497.2z
					 M670.7,472.1h6.4v15.2h-6.4V472.1z M670.7,447.6h6.4v15.2h-6.4V447.6z M659.7,572.4h6.4v15.2h-6.4V572.4z M659.7,547.3h6.4
					v15.2h-6.4V547.3z M659.7,522.3h6.4v15.2h-6.4V522.3z M659.7,497.2h6.4v15.2h-6.4V497.2z M659.7,472.1h6.4v15.2h-6.4V472.1z
					 M659.7,447.6h6.4v15.2h-6.4V447.6z M659.7,417.2h6.4v15.2h-6.4V417.2z M648.8,572.4h6.4v15.2h-6.4V572.4z M648.8,547.3h6.4
					v15.2h-6.4V547.3z M648.8,522.3h6.4v15.2h-6.4V522.3z M648.8,497.2h6.4v15.2h-6.4V497.2z M648.8,472.1h6.4v15.2h-6.4V472.1z
					 M648.8,447.6h6.4v15.2h-6.4V447.6z M648.8,417.2h6.4v15.2h-6.4V417.2z M637.9,572.4h6.4v15.2h-6.4V572.4z M637.9,547.3h6.4
					v15.2h-6.4V547.3z M637.9,522.3h6.4v15.2h-6.4V522.3z M637.9,497.2h6.4v15.2h-6.4V497.2z M637.9,472.1h6.4v15.2h-6.4V472.1z
					 M637.9,447.6h6.4v15.2h-6.4V447.6z"/>
				<rect x="335" y="523.6" fill="#A1B6A9" width="44.6" height="102.6"/>
				<rect x="306.6" y="460.5" fill="#A1B6A9" width="56.4" height="163.7"/>
				<rect x="376.8" y="486.1" fill="#A1B6A9" width="39" height="134.1"/>
				<rect x="384.7" y="479.9" fill="#A1B6A9" width="27.3" height="9.2"/>
				<rect x="384.9" y="464.6" fill="#A1B6A9" width="14.4" height="17.3"/>
				<rect x="388.3" y="453.5" fill="#A1B6A9" width="8.3" height="13.1"/>
				<path fill="#599D97" d="M283.1,479.5V647h54.6V479.5H283.1z M322.5,615.2h5.8v13.8h-5.8V615.2z M322.5,590.3h5.8v13.8h-5.8
					V590.3z M322.5,565.2h5.8V579h-5.8V565.2z M322.5,540.2h5.8V554h-5.8V540.2z M322.5,515.1h5.8v13.8h-5.8V515.1z M322.5,490.1
					h5.8v13.8h-5.8V490.1z M312.5,615.2h5.9v13.8h-5.9V615.2z M312.5,590.3h5.9v13.8h-5.9V590.3z M312.5,565.2h5.9V579h-5.9V565.2z
					 M312.5,540.2h5.9V554h-5.9V540.2z M312.5,515.1h5.9v13.8h-5.9V515.1z M312.5,490.1h5.9v13.8h-5.9V490.1z M302.5,615.2h5.8v13.8
					h-5.8V615.2z M302.5,590.3h5.8v13.8h-5.8V590.3z M302.5,565.2h5.8V579h-5.8V565.2z M302.5,540.2h5.8V554h-5.8V540.2z
					 M302.5,515.1h5.8v13.8h-5.8V515.1z M302.5,490.1h5.8v13.8h-5.8V490.1z M292.5,615.2h5.8v13.8h-5.8V615.2z M292.5,590.3h5.8
					v13.8h-5.8V590.3z M292.5,565.2h5.8V579h-5.8V565.2z M292.5,540.2h5.8V554h-5.8V540.2z M292.5,515.1h5.8v13.8h-5.8V515.1z
					 M292.5,490.1h5.8v13.8h-5.8V490.1z"/>
				<path fill="#D44F2D" d="M353.3,454.2v-24.4h-38.1v44.4h31.2v171.9h6.9h31.2v-192H353.3z M347.3,466.4h-26.1V457h26.1V466.4z
					 M347.3,447.6h-26.1v-9.4h26.1V447.6z M378,616.2h-26.1v-9.4H378V616.2z M378,594.8h-26.1v-9.4H378V594.8z M378,573.5h-26.1
					v-9.4H378V573.5z M378,552.1h-26.1v-9.4H378V552.1z M378,530.8h-26.1v-9.4H378V530.8z M378,509.5h-26.1v-9.4H378V509.5z
					 M378,488.1h-26.1v-9.4H378V488.1z"/>
				<g>
					
						<image overflow="visible" opacity="0.2" enable-background="new    " width="1069" height="102" xlink:href="A9386527519342BD.png"  transform="matrix(1.0547 0 0 1.0547 -15.8203 795.3906)">
					</image>
					<g>
						<rect x="-7.1" y="804" fill="#A1B6A9" width="1094.7" height="155.7"/>
					</g>
				</g>
				<g>
					<rect x="932" y="554.6" fill="#70575A" width="6.6" height="59.7"/>
					<path fill="#A3CD39" d="M915.2,549.3c0-3.5,1.1-6.6,3-9.4c-1.4-2.6-2.1-5.7-2.1-8.9c0-2.7,0.5-5.4,1.6-7.7
						c-0.2-1.1-0.3-2.2-0.3-3.4c0-10,8.1-18.1,18.1-18.1s18.1,8.1,18.1,18.1c0,1.2-0.1,2.3-0.3,3.4c1.1,2.3,1.6,5,1.6,7.7
						c0,3.2-0.7,6.2-2.1,8.9c1.9,2.7,3,5.9,3,9.4c0,2.5-0.6,5.1-1.7,7.3c0.6,1.9,0.9,3.8,0.9,5.9c0,10.8-8.8,19.4-19.4,19.4
						c-10.8,0-19.4-8.8-19.4-19.4c0-2,0.3-4,0.9-5.9C915.7,554.2,915.2,551.8,915.2,549.3z"/>
					<path fill="#8AA83D" d="M935.3,501.7c10,0,18.1,8.1,18.1,18.1c0,1.2-0.1,2.3-0.3,3.4c1.1,2.3,1.6,5,1.6,7.7
						c0,3.2-0.7,6.2-2.1,8.9c1.9,2.7,3,5.9,3,9.4c0,2.5-0.6,5.1-1.7,7.3c0.6,1.9,0.9,3.8,0.9,5.9c0,10.8-8.8,19.4-19.4,19.4"/>
				</g>
				<g>
					<rect x="906" y="563" fill="#70575A" width="5.7" height="51.4"/>
					<path fill="#A3CD39" d="M895.5,573.2c-0.3-1.3-0.5-2.5-0.5-3.8c0-2.2,0.5-4.3,1.5-6.2c-1.4-2.2-2.2-4.9-2.2-7.7
						c0-3.7,1.4-7,3.6-9.6c-0.3-1.1-0.5-2.1-0.5-3.3c0-6.3,5.2-11.5,11.5-11.5s11.5,5.2,11.5,11.5c0,1.2-0.2,2.2-0.5,3.3
						c2.2,2.5,3.6,5.9,3.6,9.6c0,2.8-0.8,5.5-2.2,7.7c0.9,1.9,1.5,4,1.5,6.2c0,1.4-0.2,2.6-0.5,3.8c0.8,1.9,1.4,4,1.4,6.2
						c0,8.1-6.6,14.8-14.8,14.8s-14.8-6.6-14.8-14.8C894.2,577.2,894.7,575.1,895.5,573.2z"/>
					<path fill="#8AA83D" d="M908.8,531.1c6.3,0,11.5,5.2,11.5,11.5c0,1.2-0.2,2.2-0.5,3.3c2.2,2.5,3.6,5.9,3.6,9.6
						c0,2.8-0.8,5.5-2.2,7.7c0.9,1.9,1.5,4,1.5,6.2c0,1.4-0.2,2.6-0.5,3.8c0.8,1.9,1.4,4,1.4,6.2c0,8.1-6.6,14.8-14.8,14.8"/>
				</g>
				<g>
					<rect x="257.8" y="550.6" fill="#70575A" width="7.3" height="65"/>
					<path fill="#A3CD39" d="M244.5,563.6c-0.4-1.6-0.7-3.2-0.7-4.9c0-2.8,0.6-5.5,1.9-7.8c-1.8-2.8-2.7-6.1-2.7-9.7
						c0-4.6,1.7-8.9,4.5-12.1c-0.4-1.3-0.6-2.6-0.6-4.1c0-8,6.5-14.6,14.6-14.6s14.6,6.5,14.6,14.6c0,1.5-0.2,2.8-0.6,4.1
						c2.8,3.3,4.5,7.5,4.5,12.1c0,3.6-1.1,6.9-2.7,9.7c1.2,2.3,1.9,5.1,1.9,7.8c0,1.7-0.2,3.3-0.7,4.9c1.2,2.4,1.8,5.1,1.8,7.9
						c0,10.3-8.3,18.7-18.7,18.7s-18.7-8.3-18.7-18.7C242.8,568.7,243.4,566,244.5,563.6z"/>
					<path fill="#8AA83D" d="M261.4,510.4c8,0,14.6,6.5,14.6,14.6c0,1.5-0.2,2.8-0.6,4.1c2.8,3.3,4.5,7.5,4.5,12.1
						c0,3.6-1.1,6.9-2.7,9.7c1.2,2.3,1.9,5.1,1.9,7.8c0,1.7-0.2,3.3-0.7,4.9c1.2,2.4,1.8,5.1,1.8,7.9c0,10.3-8.3,18.7-18.7,18.7"/>
				</g>
				<g>
					<rect x="433.1" y="524.9" fill="#70575A" width="10" height="89.5"/>
					<path fill="#A3CD39" d="M417.1,546c0-3.6,1.1-7,2.7-9.9c-2.1-3.2-3.4-7-3.4-11.1c0-4.2,1.3-8,3.6-11.3
						c-0.5-1.7-0.8-3.6-0.8-5.5c0-2.1,0.4-4.1,1.1-5.9c-2.1-3.2-3.3-6.9-3.3-10.9c0-11.2,9.5-20.1,21.1-20.1
						c11.7,0,21.1,9.1,21.1,20.1c0,4-1.3,7.7-3.3,10.9c0.6,1.9,1.1,3.9,1.1,5.9c0,1.9-0.3,3.8-0.8,5.5c2.2,3.3,3.6,7.2,3.6,11.3
						s-1.3,7.9-3.4,11.1c1.8,3,2.7,6.3,2.7,9.9c0,2.1-0.3,4.2-1.1,6.1c0.7,2,1.1,4.1,1.1,6.4c0,11.1-9.4,20-21,20s-21-9-21-20
						c0-2.2,0.4-4.4,1.1-6.4C417.4,550.2,417.1,548.2,417.1,546z"/>
					<path fill="#8AA83D" d="M438,471.2c11.7,0,21.1,9.1,21.1,20.1c0,4-1.3,7.7-3.3,10.9c0.6,1.9,1.1,3.9,1.1,5.9
						c0,1.9-0.3,3.8-0.8,5.5c2.2,3.3,3.6,7.2,3.6,11.3c0,4.1-1.3,7.9-3.4,11.1c1.8,3,2.7,6.3,2.7,9.9c0,2.1-0.3,4.2-1.1,6.1
						c0.7,2,1.1,4.1,1.1,6.4c0,11.1-9.4,20-21,20"/>
				</g>
				
					<line fill="none" stroke="#425553" stroke-width="204.1889" stroke-linejoin="round" stroke-miterlimit="10" x1="-7.4" y1="709.9" x2="1079.1" y2="709.9"/>
				<path fill="none" stroke="#676767" stroke-width="4.7121" stroke-linecap="round" stroke-miterlimit="10" d="M-6.8,692.8
					c-8.9,0,216.1,0,217.7,0c4.4,0,8.9,0,13.3,0c7.1,0,14,0,21.1,0c9.3,0,18.6,0,27.8,0c11.3,0,22.6,0,33.9,0c13.1,0,26.2,0,39.2,0
					c14.3,0,28.7,0,43,0c15.6,0,31.3,0,46.9,0c16.5,0,32.8,0,49.3,0c16.9,0,33.7,0,50.7,0c17.4,0,34.8,0,52.2,0c17,0,33.9,0,50.8,0
					c17.2,0,34.4,0,51.6,0c16,0,32.2,0,48.2,0c15.4,0,331.6,0,339.4,0.1"/>
				<path fill="none" stroke="#676767" stroke-width="4.7121" stroke-linecap="round" stroke-miterlimit="10" d="M-7.4,701.5
					c1.5,0,207.1,0,208.7,0c4.4,0,8.9,0,13.3,0c7.1,0,14,0,21.1,0c9.3,0,18.6,0,27.8,0c11.3,0,22.6,0,33.9,0c13.1,0,26.2,0,39.2,0
					c14.3,0,28.7,0,43,0c15.6,0,31.3,0,46.9,0c16.5,0,32.8,0,49.3,0c16.9,0,33.8,0,50.7,0c17.4,0,34.8,0,52.2,0c17,0,33.9,0,50.8,0
					c17.2,0,34.4,0,51.6,0c16,0,32.2,0,48.2,0c15.4,0,30.9,0,46.3,0c14.4,0,28.9,0,43.3,0c12.1,0,24.3,0,36.4,0c12,0,23.9,0,36,0
					c7.4,0,14.8,0,22.1,0c9.5,0,19.1,0,28.6,0c7.8,0,127.2,0,135,0"/>
				<g>
					<path fill="#D44F2D" d="M194.6,689.8c-3.6-3.2-7.8-5.7-13-7c-9.6-2.4-20.1-2.5-30.1-2.2c-18.1,0.5-36.5,3.6-52.9,11.6
						c-4.1,2-8.2,4.5-11.8,7.4c0,0-30.1,23.6-29,58.5c0,0-0.5,9,8.1,9H255c0,0,8.5,1.2,10.5-5.4c2.7-8.9,0.3-23.2-6.1-30.2
						c-8.8-9.5-22.1-8.4-33.6-11.7C210.4,715.4,205.8,699.7,194.6,689.8z"/>
					<path fill="#D9EDE2" d="M223.4,726.9c-5.1-1.1-7.6-2.2-12.1-4.5c-14-7.3-11.7-17.2-21.9-26.4c-3.3-3-7.2-5.3-12-6.4
						c-3.4-0.8-6.9-1.4-10.4-1.7v39L223.4,726.9L223.4,726.9z"/>
					<path fill="#D9EDE2" d="M80.1,726.9c7.4-19.8,13.8-22.3,13.8-22.3c3.4-2.6,7.1-5,11-6.9c15.2-7.5,32.3-10.2,49-10.8
						c1.2,0,2.3-0.1,3.5-0.1v40L80.1,726.9L80.1,726.9z"/>
					<circle fill="#B7CBBF" cx="216.6" cy="767.2" r="21.2"/>
					<circle fill="#B88D8F" cx="216.6" cy="767.2" r="12.8"/>
					<circle fill="#B7CBBF" cx="91.3" cy="767.2" r="21.2"/>
					<circle fill="#B88D8F" cx="91.3" cy="767.2" r="12.8"/>
					<path fill="#E36850" d="M255.8,755.7c0,1.4,0.7,2.5,1.6,2.5h10.1c0.8,0,1.6-1.2,1.6-2.5v-15.6c0-1.4-0.7-2.5-1.6-2.5h-10.1
						c-0.8,0-1.6,1.2-1.6,2.5V755.7z"/>
				</g>
				<g>
					<path fill="#F16B62" d="M725.4,689.8c-3.6-3.2-7.8-5.7-13-7c-9.6-2.4-20.1-2.5-30.1-2.2c-18.1,0.5-36.5,3.6-52.9,11.6
						c-4.1,2-8.2,4.5-11.8,7.4c0,0-30.1,23.6-29,58.5c0,0-0.5,9,8.1,9h189.1c0,0,8.5,1.2,10.5-5.4c2.7-8.9,0.3-23.2-6.1-30.2
						c-8.8-9.5-22.1-8.4-33.6-11.7C741.2,715.4,736.6,699.7,725.4,689.8z"/>
					<path fill="#D9EDE2" d="M754.2,726.9c-5.1-1.1-7.6-2.2-12.1-4.5c-14-7.3-11.7-17.2-21.9-26.4c-3.3-3-7.2-5.3-12-6.4
						c-3.4-0.8-6.9-1.4-10.4-1.7v39L754.2,726.9L754.2,726.9z"/>
					<path fill="#D9EDE2" d="M610.9,726.9c7.4-19.8,13.8-22.3,13.8-22.3c3.4-2.6,7.1-5,11-6.9c15.2-7.5,32.3-10.2,49-10.8
						c1.2,0,2.3-0.1,3.5-0.1v40L610.9,726.9L610.9,726.9z"/>
					<circle fill="#B7CBBF" cx="747.5" cy="767.2" r="21.2"/>
					<circle fill="#B88D8F" cx="747.5" cy="767.2" r="12.8"/>
					<circle fill="#B7CBBF" cx="622.2" cy="767.2" r="21.2"/>
					<circle fill="#B88D8F" cx="622.2" cy="767.2" r="12.8"/>
					<path fill="#F59796" d="M786.6,755.7c0,1.4,0.7,2.5,1.6,2.5h10.1c0.8,0,1.6-1.2,1.6-2.5v-15.6c0-1.4-0.7-2.5-1.6-2.5h-10.1
						c-0.8,0-1.6,1.2-1.6,2.5V755.7z"/>
				</g>
				<g>
					<g>
						
							<circle fill="none" stroke="#B7CBBF" stroke-width="1.9903" stroke-linecap="round" stroke-linejoin="round" stroke-miterlimit="10" cx="473.4" cy="749.1" r="7.9"/>
						
							<circle fill="none" stroke="#B7CBBF" stroke-width="4.7121" stroke-linecap="round" stroke-linejoin="round" stroke-miterlimit="10" cx="473.4" cy="749.1" r="30.2"/>
						
							<line fill="none" stroke="#6EC8C4" stroke-width="3.3171" stroke-linecap="round" stroke-linejoin="round" stroke-miterlimit="10" x1="473.3" y1="749.7" x2="458.6" y2="694.1"/>
						
							<path fill="none" stroke="#B7CBBF" stroke-width="4.7121" stroke-linecap="round" stroke-linejoin="round" stroke-miterlimit="10" d="
							M380,718.9c-16.7,0-30.2,13.5-30.2,30.2c0,16.7,13.5,30.2,30.2,30.2c16.7,0,30.2-13.5,30.2-30.2
							C410.1,732.4,396.7,718.9,380,718.9z"/>
						
							<polygon fill="none" stroke="#6EC8C4" stroke-width="3.3171" stroke-linecap="round" stroke-linejoin="round" stroke-miterlimit="10" points="
							406.4,704.1 461.2,704.1 422.1,748.7 						"/>
						
							<polyline fill="none" stroke="#6EC8C4" stroke-width="3.3171" stroke-linecap="round" stroke-linejoin="round" stroke-miterlimit="10" points="
							406.4,704.1 378.1,749.7 422.1,748.7 						"/>
						
							<circle fill="none" stroke="#B7CBBF" stroke-width="1.9903" stroke-linecap="round" stroke-linejoin="round" stroke-miterlimit="10" cx="422.9" cy="748.1" r="10.4"/>
						
							<path fill="none" stroke="#B7CBBF" stroke-width="1.9903" stroke-linecap="round" stroke-linejoin="round" stroke-miterlimit="10" d="
							M379.5,755.6c-3.6-0.1-6.3-3.2-6.2-6.8c0.1-3.6,3.2-6.3,6.8-6.2"/>
						
							<line fill="none" stroke="#B7CBBF" stroke-width="1.9903" stroke-linecap="round" stroke-linejoin="round" stroke-miterlimit="10" x1="380" y1="742.7" x2="422.1" y2="737.9"/>
						
							<line fill="none" stroke="#B7CBBF" stroke-width="1.9903" stroke-linecap="round" stroke-linejoin="round" stroke-miterlimit="10" x1="379.5" y1="755.6" x2="422.4" y2="758.8"/>
						
							<line fill="none" stroke="#6EC8C4" stroke-width="3.3171" stroke-linecap="round" stroke-linejoin="round" stroke-miterlimit="10" x1="414.2" y1="726.4" x2="403" y2="694.5"/>
						<path fill="none" stroke="#D96547" stroke-width="3.3171" stroke-miterlimit="10" d="M458.6,694.1l-1.8-6.8h17.5
							c0,0,4.5,0.4,4.5,6.2c0,0,0.4,6.2-7.6,6.4"/>
					</g>
					<path fill="#F6E0D2" d="M435.2,670.8c3,0,5.6-1.1,7.7-3.3c2.1-2.2,3.2-4.9,3.2-7.8c0-3-1.1-5.6-3.2-7.8s-4.6-3.3-7.7-3.3
						s-5.6,1.1-7.7,3.3s-3.2,4.9-3.2,7.8c0,3,1.1,5.6,3.2,7.8C429.6,669.7,432.1,670.8,435.2,670.8z"/>
					<path fill="#D96345" d="M390,697.1c0,3.6,1.5,6.3,4.5,8.1l23.4,13.2v24.9c0,1.8,0.5,3.3,1.7,4.5c1.1,1.2,2.5,1.8,4.3,1.8
						s3.3-0.6,4.3-1.8c1.1-1.2,1.7-2.7,1.7-4.5c0-5.3-0.1-10.5,0-15.8c0-3.6-0.1-7.2,0-10.8c0.1-4.9,0.5-9.7-4.4-12.1l-13.5-7.2"/>
					<path fill="#F79921" d="M438.9,685.6l-9.9-16.3c0,0-0.8-1.2-0.9-1.2c-2.8-3.9-9.1-4-12.7-0.9c-1.4,1.2-2.4,2.6-3.7,3.9
						c-5.3,5.1-10.1,10.5-15.3,15.7c-1.5,1.5-2.8,3-4.3,4.4c-1.4,1.6-2.1,3.6-2.1,6l21.9,0.3l14.7-14.4l5.7,9.2L438.9,685.6z"/>
					<path fill="#F6E0D2" d="M432.3,692.1l1.2,1.9c1.2,2,2.7,3,4.5,3h19.8c1.8,0,3.1-0.7,3.9-2.2c0.8-1.5,0.8-3,0-4.5
						c-0.8-1.5-2.1-2.2-3.9-2.2h-17.4l-1.5-2.5"/>
					<path fill="#D96345" d="M447.2,653.4c-0.7-3.6-2.6-6.4-5.6-8.6c-3.1-2.1-6.3-2.8-9.9-2.1c-3.6,0.7-6.4,2.6-8.4,5.8
						c-2,3.2-2.6,6.5-1.9,10.1"/>
					<path fill="none" stroke="#AEABB3" stroke-width="1.9903" stroke-miterlimit="10" d="M432.3,655.9c0,0,2.2,13.4,7.6,12.6"/>
				</g>
				<g>
					
						<line fill="none" stroke="#FFFFFF" stroke-width="2.7487" stroke-linecap="round" stroke-linejoin="round" stroke-miterlimit="10" x1="454.7" y1="788.4" x2="474.1" y2="788.4"/>
					
						<line fill="none" stroke="#FFFFFF" stroke-width="2.7487" stroke-linecap="round" stroke-linejoin="round" stroke-miterlimit="10" x1="454.7" y1="816.1" x2="474.1" y2="816.1"/>
					
						<line fill="none" stroke="#FFFFFF" stroke-width="2.7487" stroke-linecap="round" stroke-linejoin="round" stroke-miterlimit="10" x1="464.4" y1="790.9" x2="464.4" y2="812.1"/>
					
						<line fill="none" stroke="#FFFFFF" stroke-width="2.7487" stroke-linecap="round" stroke-linejoin="round" stroke-miterlimit="10" x1="464.4" y1="790" x2="459.1" y2="795.3"/>
					
						<line fill="none" stroke="#FFFFFF" stroke-width="2.7487" stroke-linecap="round" stroke-linejoin="round" stroke-miterlimit="10" x1="464.4" y1="790" x2="469.7" y2="795.3"/>
					
						<line fill="none" stroke="#FFFFFF" stroke-width="2.7487" stroke-linecap="round" stroke-linejoin="round" stroke-miterlimit="10" x1="464.4" y1="813.7" x2="469.7" y2="808.5"/>
					
						<line fill="none" stroke="#FFFFFF" stroke-width="2.7487" stroke-linecap="round" stroke-linejoin="round" stroke-miterlimit="10" x1="464.4" y1="813.7" x2="459.1" y2="808.5"/>
				</g>
				<g>
					
						<line fill="none" stroke="#FFFFFF" stroke-width="3.1414" stroke-linecap="round" stroke-linejoin="round" stroke-miterlimit="10" x1="342.7" y1="748.4" x2="342.7" y2="767.8"/>
					
						<line fill="none" stroke="#FFFFFF" stroke-width="3.1414" stroke-linecap="round" stroke-linejoin="round" stroke-miterlimit="10" x1="274" y1="748.4" x2="274" y2="767.8"/>
					
						<line fill="none" stroke="#FFFFFF" stroke-width="3.1414" stroke-linecap="round" stroke-linejoin="round" stroke-miterlimit="10" x1="339.6" y1="758.1" x2="280.4" y2="758.1"/>
					
						<line fill="none" stroke="#FFFFFF" stroke-width="3.1414" stroke-linecap="round" stroke-linejoin="round" stroke-miterlimit="10" x1="340.2" y1="758.1" x2="335" y2="752.8"/>
					
						<line fill="none" stroke="#FFFFFF" stroke-width="3.1414" stroke-linecap="round" stroke-linejoin="round" stroke-miterlimit="10" x1="340.2" y1="758.1" x2="335" y2="763.3"/>
					
						<line fill="none" stroke="#FFFFFF" stroke-width="3.1414" stroke-linecap="round" stroke-linejoin="round" stroke-miterlimit="10" x1="276.4" y1="758.1" x2="281.7" y2="763.3"/>
					
						<line fill="none" stroke="#FFFFFF" stroke-width="3.1414" stroke-linecap="round" stroke-linejoin="round" stroke-miterlimit="10" x1="276.4" y1="758.1" x2="281.7" y2="752.8"/>
				</g>
				<g>
					
						<line fill="none" stroke="#FFFFFF" stroke-width="3.1414" stroke-linecap="round" stroke-linejoin="round" stroke-miterlimit="10" x1="580.5" y1="748.4" x2="580.5" y2="767.8"/>
					
						<line fill="none" stroke="#FFFFFF" stroke-width="3.1414" stroke-linecap="round" stroke-linejoin="round" stroke-miterlimit="10" x1="511.8" y1="748.4" x2="511.8" y2="767.8"/>
					
						<line fill="none" stroke="#FFFFFF" stroke-width="3.1414" stroke-linecap="round" stroke-linejoin="round" stroke-miterlimit="10" x1="577.3" y1="758.1" x2="518.3" y2="758.1"/>
					
						<line fill="none" stroke="#FFFFFF" stroke-width="3.1414" stroke-linecap="round" stroke-linejoin="round" stroke-miterlimit="10" x1="578.1" y1="758.1" x2="572.8" y2="752.8"/>
					
						<line fill="none" stroke="#FFFFFF" stroke-width="3.1414" stroke-linecap="round" stroke-linejoin="round" stroke-miterlimit="10" x1="578.1" y1="758.1" x2="572.8" y2="763.3"/>
					
						<line fill="none" stroke="#FFFFFF" stroke-width="3.1414" stroke-linecap="round" stroke-linejoin="round" stroke-miterlimit="10" x1="514.2" y1="758.1" x2="519.5" y2="763.3"/>
					
						<line fill="none" stroke="#FFFFFF" stroke-width="3.1414" stroke-linecap="round" stroke-linejoin="round" stroke-miterlimit="10" x1="514.2" y1="758.1" x2="519.5" y2="752.8"/>
				</g>
			</g>
		</g>
	</g>
</g>
</svg>
