<?xml version="1.0" encoding="utf-8"?>
<!-- Generator: Adobe Illustrator 18.1.1, SVG Export Plug-In . SVG Version: 6.00 Build 0)  -->
<svg version="1.1" id="Layer_1" xmlns="http://www.w3.org/2000/svg" xmlns:xlink="http://www.w3.org/1999/xlink" x="0px" y="0px"
	 viewBox="0 0 1080 1080" enable-background="new 0 0 1080 1080" xml:space="preserve">
<g>
	<g>
		<g>
			<g>
				<defs>
					<rect id="SVGID_1_" x="-5.1" y="62.9" width="1090.2" height="923.8"/>
				</defs>
				<clipPath id="SVGID_2_">
					<use xlink:href="#SVGID_1_"  overflow="visible"/>
				</clipPath>
				<rect x="-25.7" y="47.2" clip-path="url(#SVGID_2_)" fill="#D9EDE2" width="1115.3" height="827.6"/>
			</g>
			<g>
				<defs>
					<rect id="SVGID_3_" x="-5.1" y="62.9" width="1090.2" height="923.8"/>
				</defs>
				<clipPath id="SVGID_4_">
					<use xlink:href="#SVGID_3_"  overflow="visible"/>
				</clipPath>
				<path opacity="0.6" clip-path="url(#SVGID_4_)" fill="#FFFFFF" enable-background="new    " d="M892.9,264.4c-1.1,0-2,0.1-3,0.3
					c-3.5-6.6-10.4-11.3-18.5-11.3c-10.2,0-18.8,7.4-20.5,17.2c-0.9-0.2-2-0.4-3.1-0.4c-3.5,0-6.5,1.4-8.9,3.7
					c-2.3-2.5-5.6-4.1-9.3-4.1c-7,0-12.7,5.7-12.7,12.7s5.7,12.7,12.7,12.7h63.1c8.4,0,15.3-6.9,15.3-15.3
					C908.2,271.3,901.3,264.4,892.9,264.4z"/>
			</g>
			<g>
				<defs>
					<rect id="SVGID_5_" x="-5.1" y="62.9" width="1090.2" height="923.8"/>
				</defs>
				<clipPath id="SVGID_6_">
					<use xlink:href="#SVGID_5_"  overflow="visible"/>
				</clipPath>
				<path opacity="0.6" clip-path="url(#SVGID_6_)" fill="#FFFFFF" enable-background="new    " d="M962.4,190c1.1,0,2,0.1,3,0.3
					c3.5-6.6,10.4-11.3,18.5-11.3c10.2,0,18.8,7.4,20.5,17.2c0.9-0.2,2-0.4,3.1-0.4c3.5,0,6.5,1.4,8.9,3.7c2.3-2.5,5.6-4.1,9.3-4.1
					c7,0,12.7,5.7,12.7,12.7s-5.7,12.7-12.7,12.7h-63.1c-8.4,0-15.3-6.9-15.3-15.3S954,190,962.4,190z"/>
			</g>
			<g>
				<defs>
					<rect id="SVGID_7_" x="-5.1" y="62.9" width="1090.2" height="923.8"/>
				</defs>
				<clipPath id="SVGID_8_">
					<use xlink:href="#SVGID_7_"  overflow="visible"/>
				</clipPath>
				<path opacity="0.6" clip-path="url(#SVGID_8_)" fill="#FFFFFF" enable-background="new    " d="M168.5,142.6
					c0.9,0,1.8,0.1,2.6,0.2c3.2-6,9.4-10.1,16.7-10.1c9.3,0,16.9,6.6,18.5,15.5c0.8-0.2,1.8-0.3,2.7-0.3c3.1,0,5.9,1.3,7.9,3.3
					c2.1-2.2,5.1-3.7,8.3-3.7c6.3,0,11.4,5.1,11.4,11.4s-5.1,11.4-11.4,11.4h-56.8c-7.6,0-13.8-6.2-13.8-13.8
					C154.6,148.8,160.9,142.6,168.5,142.6z"/>
			</g>
			<g>
				<defs>
					<rect id="SVGID_9_" x="-5.1" y="62.9" width="1090.2" height="923.8"/>
				</defs>
				<clipPath id="SVGID_10_">
					<use xlink:href="#SVGID_9_"  overflow="visible"/>
				</clipPath>
				<path opacity="0.7" clip-path="url(#SVGID_10_)" fill="#FFFFFF" enable-background="new    " d="M167.6,260.2
					c1.7,0,3.3,0.2,4.9,0.5c5.8-11.1,17.4-18.6,30.9-18.6c17.1,0,31.2,12.2,34.2,28.3c1.7-0.4,3.4-0.6,5.2-0.6c5.7,0,11,2.3,14.7,6
					c3.8-4.1,9.3-6.6,15.4-6.6c11.6,0,21.1,9.3,21.1,20.8c0,11.5-9.4,20.8-21.1,20.8H167.6c-14.1,0-25.5-11.3-25.5-25.2
					S153.5,260.2,167.6,260.2z"/>
			</g>
			<g>
				<defs>
					<rect id="SVGID_11_" x="-5.1" y="62.9" width="1090.2" height="923.8"/>
				</defs>
				<clipPath id="SVGID_12_">
					<use xlink:href="#SVGID_11_"  overflow="visible"/>
				</clipPath>
				<path opacity="0.6" clip-path="url(#SVGID_12_)" fill="#FFFFFF" enable-background="new    " d="M525.7,219.9
					c1.7,0,3.3,0.2,4.7,0.6c3.8-11.9,15-20.6,28.2-20.6c8.8,0,16.6,3.8,21.9,9.8c5.3-5.3,12.4-8.4,20.5-8.4
					c15.9,0,28.9,13,28.9,28.9s-13,28.9-28.9,28.9h-75.3c-10.8,0-19.5-8.8-19.5-19.5C506.1,228.9,514.8,219.9,525.7,219.9z"/>
			</g>
			<g>
				<defs>
					<rect id="SVGID_13_" x="-5.1" y="62.9" width="1090.2" height="923.8"/>
				</defs>
				<clipPath id="SVGID_14_">
					<use xlink:href="#SVGID_13_"  overflow="visible"/>
				</clipPath>
				<rect x="728.8" y="316.2" clip-path="url(#SVGID_14_)" fill="#A1B6A9" width="53.8" height="210"/>
			</g>
			<g>
				<defs>
					<rect id="SVGID_15_" x="-5.1" y="62.9" width="1090.2" height="923.8"/>
				</defs>
				<clipPath id="SVGID_16_">
					<use xlink:href="#SVGID_15_"  overflow="visible"/>
				</clipPath>
				<rect x="779.6" y="354.5" clip-path="url(#SVGID_16_)" fill="#A1B6A9" width="75.1" height="185"/>
			</g>
			<g>
				<defs>
					<rect id="SVGID_17_" x="-5.1" y="62.9" width="1090.2" height="923.8"/>
				</defs>
				<clipPath id="SVGID_18_">
					<use xlink:href="#SVGID_17_"  overflow="visible"/>
				</clipPath>
				<rect x="738.1" y="309.4" clip-path="url(#SVGID_18_)" fill="#A1B6A9" width="37.8" height="11.1"/>
			</g>
			<g>
				<defs>
					<rect id="SVGID_19_" x="-5.1" y="62.9" width="1090.2" height="923.8"/>
				</defs>
				<clipPath id="SVGID_20_">
					<use xlink:href="#SVGID_19_"  overflow="visible"/>
				</clipPath>
				<rect x="903.6" y="384.1" clip-path="url(#SVGID_20_)" fill="#A1B6A9" width="53.8" height="140.9"/>
			</g>
			<g>
				<defs>
					<rect id="SVGID_21_" x="-5.1" y="62.9" width="1090.2" height="923.8"/>
				</defs>
				<clipPath id="SVGID_22_">
					<use xlink:href="#SVGID_21_"  overflow="visible"/>
				</clipPath>
				<rect x="869.4" y="306.6" clip-path="url(#SVGID_22_)" fill="#A1B6A9" width="68.1" height="224"/>
			</g>
			<g>
				<defs>
					<rect id="SVGID_23_" x="-5.1" y="62.9" width="1090.2" height="923.8"/>
				</defs>
				<clipPath id="SVGID_24_">
					<use xlink:href="#SVGID_23_"  overflow="visible"/>
				</clipPath>
				<rect x="954.2" y="332.7" clip-path="url(#SVGID_24_)" fill="#A1B6A9" width="47" height="183.9"/>
			</g>
			<g>
				<defs>
					<rect id="SVGID_25_" x="-5.1" y="62.9" width="1090.2" height="923.8"/>
				</defs>
				<clipPath id="SVGID_26_">
					<use xlink:href="#SVGID_25_"  overflow="visible"/>
				</clipPath>
				<rect x="1026.4" y="341.1" clip-path="url(#SVGID_26_)" fill="#A1B6A9" width="73.3" height="183.9"/>
			</g>
			<g>
				<defs>
					<rect id="SVGID_27_" x="-5.1" y="62.9" width="1090.2" height="923.8"/>
				</defs>
				<clipPath id="SVGID_28_">
					<use xlink:href="#SVGID_27_"  overflow="visible"/>
				</clipPath>
				<rect x="991.2" y="384.1" clip-path="url(#SVGID_28_)" fill="#A1B6A9" width="35.8" height="140.9"/>
			</g>
			<g>
				<defs>
					<rect id="SVGID_29_" x="-5.1" y="62.9" width="1090.2" height="923.8"/>
				</defs>
				<clipPath id="SVGID_30_">
					<use xlink:href="#SVGID_29_"  overflow="visible"/>
				</clipPath>
				<rect x="963.7" y="326" clip-path="url(#SVGID_30_)" fill="#A1B6A9" width="33" height="11"/>
			</g>
			<g>
				<defs>
					<rect id="SVGID_31_" x="-5.1" y="62.9" width="1090.2" height="923.8"/>
				</defs>
				<clipPath id="SVGID_32_">
					<use xlink:href="#SVGID_31_"  overflow="visible"/>
				</clipPath>
				<rect x="963.8" y="307.5" clip-path="url(#SVGID_32_)" fill="#A1B6A9" width="17.4" height="20.9"/>
			</g>
			<g>
				<defs>
					<rect id="SVGID_33_" x="-5.1" y="62.9" width="1090.2" height="923.8"/>
				</defs>
				<clipPath id="SVGID_34_">
					<use xlink:href="#SVGID_33_"  overflow="visible"/>
				</clipPath>
				<rect x="968" y="294" clip-path="url(#SVGID_34_)" fill="#A1B6A9" width="10.1" height="15.8"/>
			</g>
			<g>
				<defs>
					<rect id="SVGID_35_" x="-5.1" y="62.9" width="1090.2" height="923.8"/>
				</defs>
				<clipPath id="SVGID_36_">
					<use xlink:href="#SVGID_35_"  overflow="visible"/>
				</clipPath>
				<path clip-path="url(#SVGID_36_)" fill="#F16B62" d="M925.7,299v-29.4h-45.9v53.6h37.7v207.6h8.2h37.7V299H925.7z M918.4,313.7
					H887v-11.4h31.4V313.7z M918.4,291H887v-11.4h31.4V291z M955.5,494.4h-31.4V483h31.4V494.4z M955.5,468.7h-31.4v-11.4h31.4
					V468.7z M955.5,442.9h-31.4v-11.4h31.4V442.9z M955.5,417.1h-31.4v-11.4h31.4V417.1z M955.5,391.4h-31.4V380h31.4V391.4z
					 M955.5,365.5h-31.4v-11.4h31.4V365.5z M955.5,339.8h-31.4v-11.4h31.4V339.8z"/>
			</g>
			<g>
				<defs>
					<rect id="SVGID_37_" x="-5.1" y="62.9" width="1090.2" height="923.8"/>
				</defs>
				<clipPath id="SVGID_38_">
					<use xlink:href="#SVGID_37_"  overflow="visible"/>
				</clipPath>
				<path clip-path="url(#SVGID_38_)" fill="#599D97" d="M847.7,328.4v202.2h65.9V328.4H847.7z M866,509.1h-7.1v-16.8h7.1V509.1z
					 M866,478.8h-7.1v-16.8h7.1V478.8z M866,448.6h-7.1v-16.8h7.1V448.6z M866,418.4h-7.1v-16.8h7.1V418.4z M866,388.1h-7.1v-16.8
					h7.1V388.1z M866,357.8h-7.1v-16.8h7.1V357.8z M878,509.1H871v-16.8h7.1V509.1z M878,478.8H871v-16.8h7.1V478.8z M878,448.6H871
					v-16.8h7.1V448.6z M878,418.4H871v-16.8h7.1V418.4z M878,388.1H871v-16.8h7.1V388.1z M878,357.8H871v-16.8h7.1V357.8z
					 M890.2,509.1h-7.1v-16.8h7.1V509.1z M890.2,478.8h-7.1v-16.8h7.1V478.8z M890.2,448.6h-7.1v-16.8h7.1V448.6z M890.2,418.4h-7.1
					v-16.8h7.1V418.4z M890.2,388.1h-7.1v-16.8h7.1V388.1z M890.2,357.8h-7.1v-16.8h7.1V357.8z M902.2,509.1h-7.1v-16.8h7.1V509.1z
					 M902.2,478.8h-7.1v-16.8h7.1V478.8z M902.2,448.6h-7.1v-16.8h7.1V448.6z M902.2,418.4h-7.1v-16.8h7.1V418.4z M902.2,388.1h-7.1
					v-16.8h7.1V388.1z M902.2,357.8h-7.1v-16.8h7.1V357.8z"/>
			</g>
			<g>
				<defs>
					<rect id="SVGID_39_" x="-5.1" y="62.9" width="1090.2" height="923.8"/>
				</defs>
				<clipPath id="SVGID_40_">
					<use xlink:href="#SVGID_39_"  overflow="visible"/>
				</clipPath>
				<path clip-path="url(#SVGID_40_)" fill="#B88D8F" d="M1000.6,319.7v202.6h66.1V319.7H1000.6z M1019,500.8h-7.1V484h7.1V500.8z
					 M1019,470.4h-7.1v-16.8h7.1V470.4z M1019,440.1h-7.1v-16.8h7.1V440.1z M1019,409.8h-7.1v-16.8h7.1V409.8z M1019,379.5h-7.1
					v-16.8h7.1V379.5z M1019,349.2h-7.1v-16.8h7.1V349.2z M1031.1,500.8h-7.1V484h7.1V500.8z M1031.1,470.4h-7.1v-16.8h7.1V470.4z
					 M1031.1,440.1h-7.1v-16.8h7.1V440.1z M1031.1,409.8h-7.1v-16.8h7.1V409.8z M1031.1,379.5h-7.1v-16.8h7.1V379.5z M1031.1,349.2
					h-7.1v-16.8h7.1V349.2z M1043.2,500.8h-7.1V484h7.1V500.8z M1043.2,470.4h-7.1v-16.8h7.1V470.4z M1043.2,440.1h-7.1v-16.8h7.1
					V440.1z M1043.2,409.8h-7.1v-16.8h7.1V409.8z M1043.2,379.5h-7.1v-16.8h7.1V379.5z M1043.2,349.2h-7.1v-16.8h7.1V349.2z
					 M1055.3,500.8h-7.1V484h7.1V500.8z M1055.3,470.4h-7.1v-16.8h7.1V470.4z M1055.3,440.1h-7.1v-16.8h7.1V440.1z M1055.3,409.8
					h-7.1v-16.8h7.1V409.8z M1055.3,379.5h-7.1v-16.8h7.1V379.5z M1055.3,349.2h-7.1v-16.8h7.1V349.2z"/>
			</g>
			<g>
				<defs>
					<rect id="SVGID_41_" x="-5.1" y="62.9" width="1090.2" height="923.8"/>
				</defs>
				<clipPath id="SVGID_42_">
					<use xlink:href="#SVGID_41_"  overflow="visible"/>
				</clipPath>
				<path clip-path="url(#SVGID_42_)" fill="#F16B62" d="M769.5,365.9v202.6h66.1V365.9H769.5z M788,546.8h-7.1v-16.8h7.1V546.8z
					 M788,516.6h-7.1v-16.8h7.1V516.6z M788,486.3h-7.1v-16.8h7.1V486.3z M788,455.9h-7.1v-16.8h7.1V455.9z M788,425.7h-7.1v-16.8
					h7.1V425.7z M788,395.4h-7.1v-16.8h7.1V395.4z M800.1,546.8H793v-16.8h7.1V546.8z M800.1,516.6H793v-16.8h7.1V516.6z
					 M800.1,486.3H793v-16.8h7.1V486.3z M800.1,455.9H793v-16.8h7.1V455.9z M800.1,425.7H793v-16.8h7.1V425.7z M800.1,395.4H793
					v-16.8h7.1V395.4z M812.1,546.8H805v-16.8h7.1V546.8z M812.1,516.6H805v-16.8h7.1V516.6z M812.1,486.3H805v-16.8h7.1V486.3z
					 M812.1,455.9H805v-16.8h7.1V455.9z M812.1,425.7H805v-16.8h7.1V425.7z M812.1,395.4H805v-16.8h7.1V395.4z M824.2,546.8h-7.1
					v-16.8h7.1V546.8z M824.2,516.6h-7.1v-16.8h7.1V516.6z M824.2,486.3h-7.1v-16.8h7.1V486.3z M824.2,455.9h-7.1v-16.8h7.1V455.9z
					 M824.2,425.7h-7.1v-16.8h7.1V425.7z M824.2,395.4h-7.1v-16.8h7.1V395.4z"/>
			</g>
			<g>
				<defs>
					<rect id="SVGID_43_" x="-5.1" y="62.9" width="1090.2" height="923.8"/>
				</defs>
				<clipPath id="SVGID_44_">
					<use xlink:href="#SVGID_43_"  overflow="visible"/>
				</clipPath>
				<rect x="546" y="316.2" clip-path="url(#SVGID_44_)" fill="#A1B6A9" width="53.8" height="185"/>
			</g>
			<g>
				<defs>
					<rect id="SVGID_45_" x="-5.1" y="62.9" width="1090.2" height="923.8"/>
				</defs>
				<clipPath id="SVGID_46_">
					<use xlink:href="#SVGID_45_"  overflow="visible"/>
				</clipPath>
				<rect x="473.9" y="354.5" clip-path="url(#SVGID_46_)" fill="#A1B6A9" width="75.1" height="185"/>
			</g>
			<g>
				<defs>
					<rect id="SVGID_47_" x="-5.1" y="62.9" width="1090.2" height="923.8"/>
				</defs>
				<clipPath id="SVGID_48_">
					<use xlink:href="#SVGID_47_"  overflow="visible"/>
				</clipPath>
				<rect x="588.3" y="386.1" clip-path="url(#SVGID_48_)" fill="#A1B6A9" width="40.9" height="141.6"/>
			</g>
			<g>
				<defs>
					<rect id="SVGID_49_" x="-5.1" y="62.9" width="1090.2" height="923.8"/>
				</defs>
				<clipPath id="SVGID_50_">
					<use xlink:href="#SVGID_49_"  overflow="visible"/>
				</clipPath>
				<rect x="552.8" y="309.4" clip-path="url(#SVGID_50_)" fill="#A1B6A9" width="37.8" height="11.1"/>
			</g>
			<g>
				<defs>
					<rect id="SVGID_51_" x="-5.1" y="62.9" width="1090.2" height="923.8"/>
				</defs>
				<clipPath id="SVGID_52_">
					<use xlink:href="#SVGID_51_"  overflow="visible"/>
				</clipPath>
				<rect x="371.2" y="384.1" clip-path="url(#SVGID_52_)" fill="#A1B6A9" width="53.8" height="140.9"/>
			</g>
			<g>
				<defs>
					<rect id="SVGID_53_" x="-5.1" y="62.9" width="1090.2" height="923.8"/>
				</defs>
				<clipPath id="SVGID_54_">
					<use xlink:href="#SVGID_53_"  overflow="visible"/>
				</clipPath>
				<rect x="391.2" y="306.6" clip-path="url(#SVGID_54_)" fill="#A1B6A9" width="68.1" height="216.2"/>
			</g>
			<g>
				<defs>
					<rect id="SVGID_55_" x="-5.1" y="62.9" width="1090.2" height="923.8"/>
				</defs>
				<clipPath id="SVGID_56_">
					<use xlink:href="#SVGID_55_"  overflow="visible"/>
				</clipPath>
				<rect x="327.4" y="332.7" clip-path="url(#SVGID_56_)" fill="#A1B6A9" width="47" height="183.9"/>
			</g>
			<g>
				<defs>
					<rect id="SVGID_57_" x="-5.1" y="62.9" width="1090.2" height="923.8"/>
				</defs>
				<clipPath id="SVGID_58_">
					<use xlink:href="#SVGID_57_"  overflow="visible"/>
				</clipPath>
				<rect x="249.9" y="341.1" clip-path="url(#SVGID_58_)" fill="#A1B6A9" width="52.3" height="183.9"/>
			</g>
			<g>
				<defs>
					<rect id="SVGID_59_" x="-5.1" y="62.9" width="1090.2" height="923.8"/>
				</defs>
				<clipPath id="SVGID_60_">
					<use xlink:href="#SVGID_59_"  overflow="visible"/>
				</clipPath>
				<rect x="301.7" y="384.1" clip-path="url(#SVGID_60_)" fill="#A1B6A9" width="35.8" height="140.9"/>
			</g>
			<g>
				<defs>
					<rect id="SVGID_61_" x="-5.1" y="62.9" width="1090.2" height="923.8"/>
				</defs>
				<clipPath id="SVGID_62_">
					<use xlink:href="#SVGID_61_"  overflow="visible"/>
				</clipPath>
				<rect x="332" y="326" clip-path="url(#SVGID_62_)" fill="#A1B6A9" width="33" height="11"/>
			</g>
			<g>
				<defs>
					<rect id="SVGID_63_" x="-5.1" y="62.9" width="1090.2" height="923.8"/>
				</defs>
				<clipPath id="SVGID_64_">
					<use xlink:href="#SVGID_63_"  overflow="visible"/>
				</clipPath>
				<rect x="347.4" y="307.5" clip-path="url(#SVGID_64_)" fill="#A1B6A9" width="17.4" height="20.9"/>
			</g>
			<g>
				<defs>
					<rect id="SVGID_65_" x="-5.1" y="62.9" width="1090.2" height="923.8"/>
				</defs>
				<clipPath id="SVGID_66_">
					<use xlink:href="#SVGID_65_"  overflow="visible"/>
				</clipPath>
				<rect x="350.6" y="294" clip-path="url(#SVGID_66_)" fill="#A1B6A9" width="10.1" height="15.8"/>
			</g>
			<g>
				<defs>
					<rect id="SVGID_67_" x="-5.1" y="62.9" width="1090.2" height="923.8"/>
				</defs>
				<clipPath id="SVGID_68_">
					<use xlink:href="#SVGID_67_"  overflow="visible"/>
				</clipPath>
				<rect x="130.1" y="306.1" clip-path="url(#SVGID_68_)" fill="#A1B6A9" width="53.2" height="238.5"/>
			</g>
			<g>
				<defs>
					<rect id="SVGID_69_" x="-5.1" y="62.9" width="1090.2" height="923.8"/>
				</defs>
				<clipPath id="SVGID_70_">
					<use xlink:href="#SVGID_69_"  overflow="visible"/>
				</clipPath>
				<path clip-path="url(#SVGID_70_)" fill="#F16B62" d="M365.2,299v231.6h37.7h8.2V323h37.7v-53.6h-45.9v29.4h-37.7V299z
					 M410.2,302.3h31.4v11.4h-31.4V302.3z M410.2,279.6h31.4V291h-31.4V279.6z M373.1,483h31.4v11.4h-31.4V483z M373.1,457.3h31.4
					v11.4h-31.4V457.3z M373.1,431.5h31.4v11.4h-31.4V431.5z M373.1,405.7h31.4v11.4h-31.4V405.7z M373.1,380h31.4v11.4h-31.4V380z
					 M373.1,354.2h31.4v11.4h-31.4V354.2z M373.1,328.4h31.4v11.4h-31.4V328.4z"/>
			</g>
			<g>
				<defs>
					<rect id="SVGID_71_" x="-5.1" y="62.9" width="1090.2" height="923.8"/>
				</defs>
				<clipPath id="SVGID_72_">
					<use xlink:href="#SVGID_71_"  overflow="visible"/>
				</clipPath>
				<path clip-path="url(#SVGID_72_)" fill="#599D97" d="M415.1,328.4v202.2H481V328.4H415.1z M462.7,492.3h7.1v16.8h-7.1V492.3z
					 M462.7,462.1h7.1v16.8h-7.1V462.1z M462.7,431.9h7.1v16.8h-7.1V431.9z M462.7,401.6h7.1v16.8h-7.1V401.6z M462.7,371.3h7.1
					v16.8h-7.1V371.3z M462.7,341.2h7.1V358h-7.1V341.2z M450.6,492.3h7.1v16.8h-7.1V492.3z M450.6,462.1h7.1v16.8h-7.1V462.1z
					 M450.6,431.9h7.1v16.8h-7.1V431.9z M450.6,401.6h7.1v16.8h-7.1V401.6z M450.6,371.3h7.1v16.8h-7.1V371.3z M450.6,341.2h7.1V358
					h-7.1V341.2z M438.5,492.3h7.1v16.8h-7.1V492.3z M438.5,462.1h7.1v16.8h-7.1V462.1z M438.5,431.9h7.1v16.8h-7.1V431.9z
					 M438.5,401.6h7.1v16.8h-7.1V401.6z M438.5,371.3h7.1v16.8h-7.1V371.3z M438.5,341.2h7.1V358h-7.1V341.2z M426.4,492.3h7.1v16.8
					h-7.1V492.3z M426.4,462.1h7.1v16.8h-7.1V462.1z M426.4,431.9h7.1v16.8h-7.1V431.9z M426.4,401.6h7.1v16.8h-7.1V401.6z
					 M426.4,371.3h7.1v16.8h-7.1V371.3z M426.4,341.2h7.1V358h-7.1V341.2z"/>
			</g>
			<g>
				<defs>
					<rect id="SVGID_73_" x="-5.1" y="62.9" width="1090.2" height="923.8"/>
				</defs>
				<clipPath id="SVGID_74_">
					<use xlink:href="#SVGID_73_"  overflow="visible"/>
				</clipPath>
				<path clip-path="url(#SVGID_74_)" fill="#D44F2D" d="M143.8,291.7v262.1H240V291.7H143.8z M213.3,504.2h10.3V526h-10.3V504.2z
					 M213.3,465h10.3v21.7h-10.3V465z M213.3,425.9h10.3v21.7h-10.3V425.9z M213.3,386.6h10.3v21.7h-10.3V386.6z M213.3,347.4h10.3
					v21.7h-10.3V347.4z M213.3,308.3h10.3V330h-10.3V308.3z M195.6,504.2H206V526h-10.3V504.2z M195.6,465H206v21.7h-10.3V465z
					 M195.6,425.9H206v21.7h-10.3V425.9z M195.6,386.6H206v21.7h-10.3V386.6z M195.6,347.4H206v21.7h-10.3V347.4z M195.6,308.3H206
					V330h-10.3V308.3z M178,504.2h10.3V526H178V504.2z M178,465h10.3v21.7H178V465z M178,425.9h10.3v21.7H178V425.9z M178,386.6
					h10.3v21.7H178V386.6z M178,347.4h10.3v21.7H178V347.4z M178,308.3h10.3V330H178V308.3z M160.3,504.2h10.3V526h-10.3V504.2z
					 M160.3,465h10.3v21.7h-10.3V465z M160.3,425.9h10.3v21.7h-10.3V425.9z M160.3,386.6h10.3v21.7h-10.3V386.6z M160.3,347.4h10.3
					v21.7h-10.3V347.4z M160.3,308.3h10.3V330h-10.3V308.3z"/>
			</g>
			<g>
				<defs>
					<rect id="SVGID_75_" x="-5.1" y="62.9" width="1090.2" height="923.8"/>
				</defs>
				<clipPath id="SVGID_76_">
					<use xlink:href="#SVGID_75_"  overflow="visible"/>
				</clipPath>
				<path clip-path="url(#SVGID_76_)" fill="#B88D8F" d="M262,319.7v202.6h66.1V319.7H262z M309.7,484h7.1v16.8h-7.1V484z
					 M309.7,453.6h7.1v16.8h-7.1V453.6z M309.7,423.3h7.1v16.8h-7.1V423.3z M309.7,393.1h7.1v16.8h-7.1V393.1z M309.7,362.7h7.1
					v16.8h-7.1V362.7z M309.7,332.4h7.1v16.8h-7.1V332.4z M297.5,484h7.1v16.8h-7.1V484z M297.5,453.6h7.1v16.8h-7.1V453.6z
					 M297.5,423.3h7.1v16.8h-7.1V423.3z M297.5,393.1h7.1v16.8h-7.1V393.1z M297.5,362.7h7.1v16.8h-7.1V362.7z M297.5,332.4h7.1
					v16.8h-7.1V332.4z M285.5,484h7.1v16.8h-7.1V484z M285.5,453.6h7.1v16.8h-7.1V453.6z M285.5,423.3h7.1v16.8h-7.1V423.3z
					 M285.5,393.1h7.1v16.8h-7.1V393.1z M285.5,362.7h7.1v16.8h-7.1V362.7z M285.5,332.4h7.1v16.8h-7.1V332.4z M273.4,484h7.1v16.8
					h-7.1V484z M273.4,453.6h7.1v16.8h-7.1V453.6z M273.4,423.3h7.1v16.8h-7.1V423.3z M273.4,393.1h7.1v16.8h-7.1V393.1z
					 M273.4,362.7h7.1v16.8h-7.1V362.7z M273.4,332.4h7.1v16.8h-7.1V332.4z"/>
			</g>
			<g>
				<defs>
					<rect id="SVGID_77_" x="-5.1" y="62.9" width="1090.2" height="923.8"/>
				</defs>
				<clipPath id="SVGID_78_">
					<use xlink:href="#SVGID_77_"  overflow="visible"/>
				</clipPath>
				<path clip-path="url(#SVGID_78_)" fill="#F16B62" d="M493.1,365.9v202.6h66.1V365.9H493.1z M540.7,530.1h7.1v16.8h-7.1V530.1z
					 M540.7,499.8h7.1v16.8h-7.1V499.8z M540.7,469.5h7.1v16.8h-7.1V469.5z M540.7,439.2h7.1v16.8h-7.1V439.2z M540.7,408.9h7.1
					v16.8h-7.1V408.9z M540.7,378.6h7.1v16.8h-7.1V378.6z M528.6,530.1h7.1v16.8h-7.1V530.1z M528.6,499.8h7.1v16.8h-7.1V499.8z
					 M528.6,469.5h7.1v16.8h-7.1V469.5z M528.6,439.2h7.1v16.8h-7.1V439.2z M528.6,408.9h7.1v16.8h-7.1V408.9z M528.6,378.6h7.1
					v16.8h-7.1V378.6z M516.5,530.1h7.1v16.8h-7.1V530.1z M516.5,499.8h7.1v16.8h-7.1V499.8z M516.5,469.5h7.1v16.8h-7.1V469.5z
					 M516.5,439.2h7.1v16.8h-7.1V439.2z M516.5,408.9h7.1v16.8h-7.1V408.9z M516.5,378.6h7.1v16.8h-7.1V378.6z M504.5,530.1h7.1
					v16.8h-7.1V530.1z M504.5,499.8h7.1v16.8h-7.1V499.8z M504.5,469.5h7.1v16.8h-7.1V469.5z M504.5,439.2h7.1v16.8h-7.1V439.2z
					 M504.5,408.9h7.1v16.8h-7.1V408.9z M504.5,378.6h7.1v16.8h-7.1V378.6z"/>
			</g>
			<g>
				<defs>
					<rect id="SVGID_79_" x="-5.1" y="62.9" width="1090.2" height="923.8"/>
				</defs>
				<clipPath id="SVGID_80_">
					<use xlink:href="#SVGID_79_"  overflow="visible"/>
				</clipPath>
				<rect x="611.9" y="372.5" clip-path="url(#SVGID_80_)" fill="#A1B6A9" width="66.9" height="154"/>
			</g>
			<g>
				<defs>
					<rect id="SVGID_81_" x="-5.1" y="62.9" width="1090.2" height="923.8"/>
				</defs>
				<clipPath id="SVGID_82_">
					<use xlink:href="#SVGID_81_"  overflow="visible"/>
				</clipPath>
				<rect x="657.1" y="287.7" clip-path="url(#SVGID_82_)" fill="#A1B6A9" width="84.7" height="238"/>
			</g>
			<g>
				<defs>
					<rect id="SVGID_83_" x="-5.1" y="62.9" width="1090.2" height="923.8"/>
				</defs>
				<clipPath id="SVGID_84_">
					<use xlink:href="#SVGID_83_"  overflow="visible"/>
				</clipPath>
				<path clip-path="url(#SVGID_84_)" fill="#D44F2D" d="M715.1,308.3v-28.2h-50v51.4h41v198.8h9h41.1v-222H715.1z M707.2,322.4H673
					v-10.9h34.2V322.4z M707.2,300.6H673v-10.9h34.2V300.6z M747.6,495.6h-34.2v-10.9h34.2V495.6z M747.6,470.9h-34.2V460h34.2
					V470.9z M747.6,446.2h-34.2v-10.9h34.2V446.2z M747.6,421.6h-34.2v-10.9h34.2V421.6z M747.6,396.9h-34.2V386h34.2V396.9z
					 M747.6,372.1h-34.2v-10.9h34.2V372.1z M747.6,347.4h-34.2v-10.9h34.2V347.4z"/>
			</g>
			<g>
				<defs>
					<rect id="SVGID_85_" x="-5.1" y="62.9" width="1090.2" height="923.8"/>
				</defs>
				<clipPath id="SVGID_86_">
					<use xlink:href="#SVGID_85_"  overflow="visible"/>
				</clipPath>
				<path clip-path="url(#SVGID_86_)" fill="#599D97" d="M630,336.5v193.7h71.8V336.5H630z M650,509.6h-7.7v-16h7.7V509.6z
					 M650,480.6h-7.7v-16h7.7V480.6z M650,451.7h-7.7v-16h7.7V451.7z M650,422.7h-7.7v-16h7.7V422.7z M650,393.7h-7.7v-16h7.7V393.7
					z M650,364.8h-7.7v-16.1h7.7V364.8z M663.2,509.6h-7.7v-16h7.7V509.6z M663.2,480.6h-7.7v-16h7.7V480.6z M663.2,451.7h-7.7v-16
					h7.7V451.7z M663.2,422.7h-7.7v-16h7.7V422.7z M663.2,393.7h-7.7v-16h7.7V393.7z M663.2,364.8h-7.7v-16.1h7.7V364.8z
					 M676.4,509.6h-7.7v-16h7.7V509.6z M676.4,480.6h-7.7v-16h7.7V480.6z M676.4,451.7h-7.7v-16h7.7V451.7z M676.4,422.7h-7.7v-16
					h7.7V422.7z M676.4,393.7h-7.7v-16h7.7V393.7z M676.4,364.8h-7.7v-16.1h7.7V364.8z M689.6,509.6h-7.7v-16h7.7V509.6z
					 M689.6,480.6h-7.7v-16h7.7V480.6z M689.6,451.7h-7.7v-16h7.7V451.7z M689.6,422.7h-7.7v-16h7.7V422.7z M689.6,393.7h-7.7v-16
					h7.7V393.7z M689.6,364.8h-7.7v-16.1h7.7V364.8z"/>
			</g>
			<g>
				<defs>
					<rect id="SVGID_87_" x="-5.1" y="62.9" width="1090.2" height="923.8"/>
				</defs>
				<clipPath id="SVGID_88_">
					<use xlink:href="#SVGID_87_"  overflow="visible"/>
				</clipPath>
				<rect x="114.8" y="316.2" clip-path="url(#SVGID_88_)" fill="#A1B6A9" width="53.8" height="210"/>
			</g>
			<g>
				<defs>
					<rect id="SVGID_89_" x="-5.1" y="62.9" width="1090.2" height="923.8"/>
				</defs>
				<clipPath id="SVGID_90_">
					<use xlink:href="#SVGID_89_"  overflow="visible"/>
				</clipPath>
				<rect x="124" y="309.4" clip-path="url(#SVGID_90_)" fill="#A1B6A9" width="37.8" height="11.1"/>
			</g>
			<g>
				<defs>
					<rect id="SVGID_91_" x="-5.1" y="62.9" width="1090.2" height="923.8"/>
				</defs>
				<clipPath id="SVGID_92_">
					<use xlink:href="#SVGID_91_"  overflow="visible"/>
				</clipPath>
				<rect x="-25.7" y="386.1" clip-path="url(#SVGID_92_)" fill="#A1B6A9" width="40.9" height="141.6"/>
			</g>
			<g>
				<defs>
					<rect id="SVGID_93_" x="-5.1" y="62.9" width="1090.2" height="923.8"/>
				</defs>
				<clipPath id="SVGID_94_">
					<use xlink:href="#SVGID_93_"  overflow="visible"/>
				</clipPath>
				<rect x="-2.2" y="372.5" clip-path="url(#SVGID_94_)" fill="#A1B6A9" width="66.9" height="154"/>
			</g>
			<g>
				<defs>
					<rect id="SVGID_95_" x="-5.1" y="62.9" width="1090.2" height="923.8"/>
				</defs>
				<clipPath id="SVGID_96_">
					<use xlink:href="#SVGID_95_"  overflow="visible"/>
				</clipPath>
				<rect x="42.9" y="287.7" clip-path="url(#SVGID_96_)" fill="#A1B6A9" width="84.7" height="238"/>
			</g>
			<g>
				<defs>
					<rect id="SVGID_97_" x="-5.1" y="62.9" width="1090.2" height="923.8"/>
				</defs>
				<clipPath id="SVGID_98_">
					<use xlink:href="#SVGID_97_"  overflow="visible"/>
				</clipPath>
				<path clip-path="url(#SVGID_98_)" fill="#599D97" d="M-58.7,328.4v202.2H7.2V328.4H-58.7z M-11.2,492.3h7.1v16.8h-7.1V492.3z
					 M-11.2,462.1h7.1v16.8h-7.1V462.1z M-11.2,431.9h7.1v16.8h-7.1V431.9z M-11.2,401.6h7.1v16.8h-7.1V401.6z M-11.2,371.3h7.1
					v16.8h-7.1V371.3z M-11.2,341.2h7.1V358h-7.1V341.2z M-23.3,492.3h7.1v16.8h-7.1V492.3z M-23.3,462.1h7.1v16.8h-7.1V462.1z
					 M-23.3,431.9h7.1v16.8h-7.1V431.9z M-23.3,401.6h7.1v16.8h-7.1V401.6z M-23.3,371.3h7.1v16.8h-7.1V371.3z M-23.3,341.2h7.1V358
					h-7.1V341.2z M-35.3,492.3h7.1v16.8h-7.1V492.3z M-35.3,462.1h7.1v16.8h-7.1V462.1z M-35.3,431.9h7.1v16.8h-7.1V431.9z
					 M-35.3,401.6h7.1v16.8h-7.1V401.6z M-35.3,371.3h7.1v16.8h-7.1V371.3z M-35.3,341.2h7.1V358h-7.1V341.2z M-47.4,492.3h7.1v16.8
					h-7.1V492.3z M-47.4,462.1h7.1v16.8h-7.1V462.1z M-47.4,431.9h7.1v16.8h-7.1V431.9z M-47.4,401.6h7.1v16.8h-7.1V401.6z
					 M-47.4,371.3h7.1v16.8h-7.1V371.3z M-47.4,341.2h7.1V358h-7.1V341.2z"/>
			</g>
			<g>
				<defs>
					<rect id="SVGID_99_" x="-5.1" y="62.9" width="1090.2" height="923.8"/>
				</defs>
				<clipPath id="SVGID_100_">
					<use xlink:href="#SVGID_99_"  overflow="visible"/>
				</clipPath>
				<path clip-path="url(#SVGID_100_)" fill="#F16B62" d="M101,308.3v-28.2H51v51.4h41v198.8h9h41v-222H101z M93.1,322.4H59v-10.9
					h34.2V322.4z M93.1,300.6H59v-10.9h34.2V300.6z M133.5,495.6H99.4v-10.9h34.2V495.6z M133.5,470.9H99.4V460h34.2V470.9z
					 M133.5,446.2H99.4v-10.9h34.2V446.2z M133.5,421.6H99.4v-10.9h34.2V421.6z M133.5,396.9H99.4V386h34.2V396.9z M133.5,372.1
					H99.4v-10.9h34.2V372.1z M133.5,347.4H99.4v-10.9h34.2V347.4z"/>
			</g>
			<g>
				<defs>
					<rect id="SVGID_101_" x="-5.1" y="62.9" width="1090.2" height="923.8"/>
				</defs>
				<clipPath id="SVGID_102_">
					<use xlink:href="#SVGID_101_"  overflow="visible"/>
				</clipPath>
				<path clip-path="url(#SVGID_102_)" fill="#B88D8F" d="M15.9,336.5v193.7h71.8V336.5H15.9z M36,509.6h-7.7v-16H36V509.6z
					 M36,480.6h-7.7v-16H36V480.6z M36,451.7h-7.7v-16H36V451.7z M36,422.7h-7.7v-16H36V422.7z M36,393.7h-7.7v-16H36V393.7z
					 M36,364.8h-7.7v-16.1H36V364.8z M49.1,509.6h-7.7v-16h7.7V509.6z M49.1,480.6h-7.7v-16h7.7V480.6z M49.1,451.7h-7.7v-16h7.7
					V451.7z M49.1,422.7h-7.7v-16h7.7V422.7z M49.1,393.7h-7.7v-16h7.7V393.7z M49.1,364.8h-7.7v-16.1h7.7V364.8z M62.3,509.6h-7.7
					v-16h7.7V509.6z M62.3,480.6h-7.7v-16h7.7V480.6z M62.3,451.7h-7.7v-16h7.7V451.7z M62.3,422.7h-7.7v-16h7.7V422.7z M62.3,393.7
					h-7.7v-16h7.7V393.7z M62.3,364.8h-7.7v-16.1h7.7V364.8z M75.4,509.6h-7.7v-16h7.7V509.6z M75.4,480.6h-7.7v-16h7.7V480.6z
					 M75.4,451.7h-7.7v-16h7.7V451.7z M75.4,422.7h-7.7v-16h7.7V422.7z M75.4,393.7h-7.7v-16h7.7V393.7z M75.4,364.8h-7.7v-16.1h7.7
					V364.8z"/>
			</g>
			<g>
				<defs>
					<rect id="SVGID_103_" x="-5.1" y="62.9" width="1090.2" height="923.8"/>
				</defs>
				<clipPath id="SVGID_104_">
					<use xlink:href="#SVGID_103_"  overflow="visible"/>
				</clipPath>
				<rect x="72.8" y="770.5" clip-path="url(#SVGID_104_)" fill="#B88D8F" width="1120.9" height="39.8"/>
			</g>
			<g>
				<defs>
					<rect id="SVGID_105_" x="-5.1" y="62.9" width="1090.2" height="923.8"/>
				</defs>
				<clipPath id="SVGID_106_">
					<use xlink:href="#SVGID_105_"  overflow="visible"/>
				</clipPath>
				<polygon clip-path="url(#SVGID_106_)" fill="#B88D8F" points="695.5,516.4 498.9,518.8 498.9,405.2 695.5,405.2 				"/>
			</g>
			<g>
				<defs>
					<rect id="SVGID_107_" x="-5.1" y="62.9" width="1090.2" height="923.8"/>
				</defs>
				<clipPath id="SVGID_108_">
					<use xlink:href="#SVGID_107_"  overflow="visible"/>
				</clipPath>
				<polygon clip-path="url(#SVGID_108_)" fill="#616D66" points="669.7,516.8 524.5,518.8 524.5,432.9 669.7,432.9 				"/>
			</g>
			<g>
				<defs>
					<rect id="SVGID_109_" x="-5.1" y="62.9" width="1090.2" height="923.8"/>
				</defs>
				<clipPath id="SVGID_110_">
					<use xlink:href="#SVGID_109_"  overflow="visible"/>
				</clipPath>
				<rect x="-53.8" y="865.6" clip-path="url(#SVGID_110_)" fill="#A3CD39" width="1170.9" height="334.9"/>
			</g>
			<g>
				<defs>
					<rect id="SVGID_111_" x="-5.1" y="62.9" width="1090.2" height="923.8"/>
				</defs>
				<clipPath id="SVGID_112_">
					<use xlink:href="#SVGID_111_"  overflow="visible"/>
				</clipPath>
				<polyline clip-path="url(#SVGID_112_)" fill="#8AA83D" points="-58.5,875.3 1106.6,875.3 1106.6,844.9 -58.5,844.9 				"/>
			</g>
			<g>
				<defs>
					<rect id="SVGID_113_" x="-5.1" y="62.9" width="1090.2" height="923.8"/>
				</defs>
				<clipPath id="SVGID_114_">
					<use xlink:href="#SVGID_113_"  overflow="visible"/>
				</clipPath>
				<polyline clip-path="url(#SVGID_114_)" fill="#A1B6A9" points="-68.2,844.9 1097.1,844.9 1097.1,762.4 -68.2,762.4 				"/>
			</g>
			<g>
				<defs>
					<rect id="SVGID_115_" x="-5.1" y="62.9" width="1090.2" height="923.8"/>
				</defs>
				<clipPath id="SVGID_116_">
					<use xlink:href="#SVGID_115_"  overflow="visible"/>
				</clipPath>
				<g clip-path="url(#SVGID_116_)">
					<rect x="341.9" y="446.7" fill="#70575A" width="8" height="72"/>
					<path fill="#A3CD39" d="M370.4,440c0-4.1-1.3-8-3.6-11.3c1.7-3.2,2.6-6.9,2.6-10.7c0-3.3-0.7-6.4-1.9-9.3
						c0.2-1.4,0.4-2.7,0.4-4.1c0-12.1-9.8-21.9-21.9-21.9s-21.9,9.8-21.9,21.9c0,1.4,0.1,2.7,0.4,4.1c-1.3,2.8-1.9,6-1.9,9.3
						c0,3.8,0.9,7.5,2.6,10.7c-2.2,3.3-3.6,7.2-3.6,11.3c0,3.2,0.7,6.1,2,8.8c-0.7,2.2-1.1,4.6-1.1,7.1c0,13,10.5,23.4,23.4,23.4
						c13,0,23.4-10.5,23.4-23.4c0-2.4-0.4-4.9-1.1-7.1C369.7,446.1,370.4,443.2,370.4,440z"/>
					<path fill="#8AA83D" d="M345.9,382.7c-12.1,0-21.9,9.8-21.9,21.9c0,1.4,0.1,2.7,0.4,4.1c-1.3,2.8-1.9,6-1.9,9.3
						c0,3.8,0.9,7.5,2.6,10.7c-2.2,3.3-3.6,7.2-3.6,11.3c0,3.2,0.7,6.1,2,8.8c-0.7,2.2-1.1,4.6-1.1,7.1c0,13,10.5,23.4,23.4,23.4"/>
				</g>
			</g>
			<g>
				<defs>
					<rect id="SVGID_117_" x="-5.1" y="62.9" width="1090.2" height="923.8"/>
				</defs>
				<clipPath id="SVGID_118_">
					<use xlink:href="#SVGID_117_"  overflow="visible"/>
				</clipPath>
				<g clip-path="url(#SVGID_118_)">
					<rect x="762.1" y="427.8" fill="#70575A" width="10.1" height="90.9"/>
					<path fill="#A3CD39" d="M798.1,419.4c0-5.3-1.7-10.1-4.4-14.2c2.1-4,3.3-8.6,3.3-13.5c0-4.2-0.8-8.1-2.4-11.7
						c0.3-1.7,0.5-3.4,0.5-5.2c0-15.3-12.4-27.6-27.6-27.6c-15.2,0-27.6,12.4-27.6,27.6c0,1.8,0.2,3.5,0.5,5.2
						c-1.6,3.6-2.4,7.6-2.4,11.7c0,4.9,1.2,9.4,3.3,13.5c-2.8,4.1-4.4,9.1-4.4,14.2c0,3.9,0.9,7.7,2.6,11.1c-0.8,2.8-1.4,5.8-1.4,9
						c0,16.3,13.3,29.6,29.6,29.6s29.6-13.3,29.6-29.6c0-3.1-0.5-6.1-1.4-9C797.1,427.1,798.1,423.3,798.1,419.4z"/>
					<path fill="#8AA83D" d="M767.2,347.1c-15.3,0-27.6,12.4-27.6,27.6c0,1.8,0.2,3.5,0.5,5.2c-1.6,3.6-2.4,7.6-2.4,11.7
						c0,4.9,1.2,9.4,3.3,13.5c-2.8,4.1-4.4,9.1-4.4,14.2c0,3.9,0.9,7.7,2.6,11.1c-0.8,2.8-1.4,5.8-1.4,9c0,16.3,13.3,29.6,29.6,29.6
						"/>
				</g>
			</g>
			<g>
				<defs>
					<rect id="SVGID_119_" x="-5.1" y="62.9" width="1090.2" height="923.8"/>
				</defs>
				<clipPath id="SVGID_120_">
					<use xlink:href="#SVGID_119_"  overflow="visible"/>
				</clipPath>
				<g clip-path="url(#SVGID_120_)">
					<rect x="374.5" y="456.7" fill="#70575A" width="7" height="62"/>
					<path fill="#A3CD39" d="M394,469c0.4-1.5,0.6-3.1,0.6-4.6c0-2.6-0.6-5.2-1.8-7.5c1.7-2.7,2.6-5.9,2.6-9.3
						c0-4.4-1.7-8.4-4.3-11.6c0.3-1.3,0.5-2.5,0.5-3.9c0-7.7-6.2-13.9-13.9-13.9c-7.7,0-13.9,6.2-13.9,13.9c0,1.4,0.2,2.6,0.5,3.9
						c-2.7,3.1-4.3,7.2-4.3,11.6c0,3.4,0.9,6.5,2.6,9.3c-1.2,2.2-1.8,4.7-1.8,7.5c0,1.6,0.2,3.2,0.6,4.6c-1.1,2.3-1.7,4.9-1.7,7.5
						c0,9.8,7.9,17.8,17.8,17.8c9.8,0,17.8-7.9,17.8-17.8C395.7,473.9,395.1,471.2,394,469z"/>
					<path fill="#8AA83D" d="M378,418.2c-7.7,0-13.9,6.2-13.9,13.9c0,1.4,0.2,2.6,0.5,3.9c-2.7,3.1-4.3,7.2-4.3,11.6
						c0,3.4,0.9,6.5,2.6,9.3c-1.2,2.2-1.8,4.7-1.8,7.5c0,1.6,0.2,3.2,0.6,4.6c-1.1,2.3-1.7,4.9-1.7,7.5c0,9.8,7.9,17.8,17.8,17.8"/>
				</g>
			</g>
			<g>
				<defs>
					<rect id="SVGID_121_" x="-5.1" y="62.9" width="1090.2" height="923.8"/>
				</defs>
				<clipPath id="SVGID_122_">
					<use xlink:href="#SVGID_121_"  overflow="visible"/>
				</clipPath>
				<g clip-path="url(#SVGID_122_)">
					<rect x="128.6" y="424.2" fill="#70575A" width="10.5" height="94.5"/>
					<path fill="#A3CD39" d="M156,446.4c0-3.8-1.1-7.4-3-10.4c2.2-3.4,3.6-7.4,3.6-11.7c0-4.4-1.4-8.5-3.7-11.9
						c0.6-1.8,0.9-3.8,0.9-5.8c0-2.2-0.4-4.3-1.2-6.3c2.2-3.3,3.5-7.2,3.5-11.4c0-11.8-10-21.3-22.3-21.3s-22.3,9.5-22.3,21.3
						c0,4.2,1.3,8.1,3.5,11.4c-0.7,2-1.2,4.1-1.2,6.3c0,2,0.3,3.9,0.9,5.8c-2.3,3.4-3.7,7.5-3.7,11.9c0,4.3,1.4,8.3,3.6,11.7
						c-1.9,3.1-3,6.6-3,10.4c0,2.2,0.4,4.4,1.1,6.5c-0.7,2.1-1.2,4.4-1.2,6.8c0,11.7,9.9,21.2,22.1,21.2c12.2,0,22.1-9.5,22.1-21.2
						c0-2.3-0.4-4.6-1.2-6.8C155.6,450.9,156,448.7,156,446.4z"/>
					<path fill="#8AA83D" d="M133.9,367.6c-12.3,0-22.3,9.5-22.3,21.3c0,4.2,1.3,8.1,3.5,11.4c-0.7,2-1.2,4.1-1.2,6.3
						c0,2,0.3,3.9,0.9,5.8c-2.3,3.4-3.7,7.5-3.7,11.9c0,4.3,1.4,8.3,3.6,11.7c-1.9,3.1-3,6.6-3,10.4c0,2.2,0.4,4.4,1.1,6.5
						c-0.7,2.1-1.2,4.4-1.2,6.8c0,11.7,9.9,21.2,22.1,21.2"/>
				</g>
			</g>
			<g>
				<defs>
					<rect id="SVGID_123_" x="-5.1" y="62.9" width="1090.2" height="923.8"/>
				</defs>
				<clipPath id="SVGID_124_">
					<use xlink:href="#SVGID_123_"  overflow="visible"/>
				</clipPath>
				<g clip-path="url(#SVGID_124_)">
					<rect x="967.8" y="441.3" fill="#70575A" width="8.6" height="77.3"/>
					<path fill="#A3CD39" d="M990.1,459.5c0-3.2-0.8-6-2.4-8.5c1.9-2.7,3-6,3-9.6s-1.2-7-3.1-9.8c0.5-1.5,0.7-3.1,0.7-4.7
						c0-1.8-0.3-3.6-0.9-5.2c1.8-2.7,2.8-5.9,2.8-9.4c0-9.6-8.1-17.4-18.2-17.4c-10,0-18.2,7.8-18.2,17.4c0,3.5,1.1,6.6,2.8,9.4
						c-0.6,1.6-0.9,3.4-0.9,5.2c0,1.7,0.3,3.3,0.7,4.7c-1.9,2.8-3.1,6.1-3.1,9.8c0,3.5,1.1,6.9,3,9.6c-1.5,2.5-2.4,5.5-2.4,8.5
						c0,1.9,0.3,3.6,0.8,5.3c-0.6,1.7-0.9,3.6-0.9,5.5c0,9.6,8.1,17.3,18.1,17.3s18.1-7.8,18.1-17.3c0-1.9-0.3-3.8-0.9-5.5
						C989.8,463.2,990.1,461.4,990.1,459.5z"/>
					<path fill="#8AA83D" d="M972.1,395c-10,0-18.2,7.8-18.2,17.4c0,3.5,1.1,6.6,2.8,9.4c-0.6,1.6-0.9,3.4-0.9,5.2
						c0,1.7,0.3,3.3,0.7,4.7c-1.9,2.8-3.1,6.1-3.1,9.8c0,3.5,1.1,6.9,3,9.6c-1.5,2.5-2.4,5.5-2.4,8.5c0,1.9,0.3,3.6,0.8,5.3
						c-0.6,1.7-0.9,3.6-0.9,5.5c0,9.6,8.1,17.3,18.1,17.3"/>
				</g>
			</g>
			<g>
				<defs>
					<rect id="SVGID_125_" x="-5.1" y="62.9" width="1090.2" height="923.8"/>
				</defs>
				<clipPath id="SVGID_126_">
					<use xlink:href="#SVGID_125_"  overflow="visible"/>
				</clipPath>
				
					<line clip-path="url(#SVGID_126_)" fill="none" stroke="#425553" stroke-width="246.4391" stroke-linejoin="round" stroke-miterlimit="10" x1="1266.4" y1="646.4" x2="-68.2" y2="646.4"/>
			</g>
			<g>
				<defs>
					<rect id="SVGID_127_" x="-5.1" y="62.9" width="1090.2" height="923.8"/>
				</defs>
				<clipPath id="SVGID_128_">
					<use xlink:href="#SVGID_127_"  overflow="visible"/>
				</clipPath>
				<g clip-path="url(#SVGID_128_)">
					
						<line fill="none" stroke="#676767" stroke-width="5.6871" stroke-miterlimit="10" stroke-dasharray="25.548,8.7822" x1="1140.6" y1="647.6" x2="124.5" y2="647.6"/>
					<path fill="none" stroke="#676767" stroke-width="5.6871" stroke-linecap="round" stroke-miterlimit="10" d="M124.5,655.5"/>
					<path fill="none" stroke="#676767" stroke-width="5.6871" stroke-linecap="round" stroke-miterlimit="10" d="M1140.6,655.5"/>
				</g>
			</g>
			<g>
				<defs>
					<rect id="SVGID_129_" x="-5.1" y="62.9" width="1090.2" height="923.8"/>
				</defs>
				<clipPath id="SVGID_130_">
					<use xlink:href="#SVGID_129_"  overflow="visible"/>
				</clipPath>
				<path clip-path="url(#SVGID_130_)" fill="none" stroke="#676767" stroke-width="37.9137" stroke-miterlimit="10" d="
					M-187.3,827.9"/>
			</g>
			<g>
				<defs>
					<rect id="SVGID_131_" x="-5.1" y="62.9" width="1090.2" height="923.8"/>
				</defs>
				<clipPath id="SVGID_132_">
					<use xlink:href="#SVGID_131_"  overflow="visible"/>
				</clipPath>
				<path clip-path="url(#SVGID_132_)" fill="none" stroke="#676767" stroke-width="37.9137" stroke-miterlimit="10" d="M72.6,827.9
					"/>
			</g>
			<g>
				<defs>
					<rect id="SVGID_133_" x="-5.1" y="62.9" width="1090.2" height="923.8"/>
				</defs>
				<clipPath id="SVGID_134_">
					<use xlink:href="#SVGID_133_"  overflow="visible"/>
				</clipPath>
				<path clip-path="url(#SVGID_134_)" fill="none" stroke="#676767" stroke-width="37.9137" stroke-miterlimit="10" d="
					M-187.6,467.4"/>
			</g>
			<g>
				<defs>
					<rect id="SVGID_135_" x="-5.1" y="62.9" width="1090.2" height="923.8"/>
				</defs>
				<clipPath id="SVGID_136_">
					<use xlink:href="#SVGID_135_"  overflow="visible"/>
				</clipPath>
				<path clip-path="url(#SVGID_136_)" fill="none" stroke="#676767" stroke-width="37.9137" stroke-miterlimit="10" d="M72.6,467.4
					"/>
			</g>
			<g>
				<defs>
					<rect id="SVGID_137_" x="-5.1" y="62.9" width="1090.2" height="923.8"/>
				</defs>
				<clipPath id="SVGID_138_">
					<use xlink:href="#SVGID_137_"  overflow="visible"/>
				</clipPath>
				
					<line clip-path="url(#SVGID_138_)" fill="none" stroke="#676767" stroke-width="37.9137" stroke-miterlimit="10" x1="120.9" y1="516.5" x2="120.9" y2="776.5"/>
			</g>
			<g>
				<defs>
					<rect id="SVGID_139_" x="-5.1" y="62.9" width="1090.2" height="923.8"/>
				</defs>
				<clipPath id="SVGID_140_">
					<use xlink:href="#SVGID_139_"  overflow="visible"/>
				</clipPath>
				<g clip-path="url(#SVGID_140_)">
					<path fill="#D9EDE2" d="M326.5,737.9c1.4-0.9,2.8-2,4.3-3.1c14.8-11,31-27,31.4-27.3v7.3c-0.6,0.6-17.6,16.8-33,25"/>
					<path fill="#F16B62" d="M404.9,821.4c19.4,0,32.2,7.5,32.2-43.2c0-41.1-12.8-43.2-32.2-43.2h-2.7l-3.9,0.5l-2.5,0.3
						c-10.3-0.2-22.9,6.9-32.4,6.5c-0.3,0-0.6,0-1.1-0.1c-0.1,0-0.1,0-0.2,0H362c-5.4-0.2-10.7-0.8-15.8-1.6
						c-6.5-0.9-13.1-1.9-19.6-2.5c1.4-0.9,2.8-2,4.3-3.1c14.8-11,31-27,31.4-27.3l0,0v-6.3c-16.6-0.6-32.2,23.9-48.3,33.8
						c-16.1,0-27.7,0-27.7,0c-9,0-16.3,2.3-22.5,6.2c4.2,1.4,4.1,5.8,2.7,9.1c-3,6.9-7.9,13-9.3,20.4c-1.3,6.6-0.8,13.8,1.6,20.2
						c2,5.3,16,20.9,6.3,25.3c5.8,3.4,12.9,5.4,21.2,5.4 M403.3,817.5c1.4-0.5,2.6-1.3,3.8-2.2c5.6-4.6,8.4-17.1,8.1-32.3
						c-0.4-16.7,2.6-35.4-10.8-44.8c-0.7-0.5-1.5-0.9-2.3-1.3c2.6,0.7,5.1,1.8,7.1,3.3c13.3,9.4,12.2,18.8,12.2,35.4
						c0,11.6,0.9,24-2.6,30.6C415.8,811.7,410.2,815.3,403.3,817.5z M331.5,819.3c-8.3-0.2-16.7,0.9-24.5-1.6
						c-6-1.9-22.8-3.1-26.1-15.7c-2.2-8.2-2.3-34.4-0.7-43.9c2.1-12.9,16.3-18.4,24.5-19.7l0.2,0.2c-16.7,5.2-15.5,64.1-4.5,74
						c14.6,13.2,41.2,0.4,58.4,0.8c0.4,0,0.9,0,1.4,0.1c0.5,0,1.1,0.1,1.6,0.1c13,1.3,27.1,6.6,37.5,4.9c-6,1.5-12.8,0.1-19.3,0.4
						 M380,819.1c-7.7,0.3-15.2,0.1-21.4-0.1l0,0c-8.5,0-17.8,0.5-27,0.3"/>
					<path fill="#D9EDE2" d="M307,817.7c-6-1.9-22.8-3.1-26.1-15.7c-2.2-8.2-2.3-34.4-0.7-43.9c2.1-12.9,16.3-18.4,24.5-19.7
						l0.2,0.2c-16.7,5.2-15.5,64.1-4.5,74c14.6,13.2,41.2,0.4,58.4,0.8c0.4,0,0.9,0,1.4,0.1c0.5,0,1.1,0.1,1.6,0.1
						c13,1.3,27.1,6.6,37.5,4.9c-12.8,3.2-29,1.1-40.7,0.7l0,0C342.1,819.4,323.1,822.8,307,817.7z"/>
					<path fill="#D9EDE2" d="M415.2,783c-0.4-16.7,2.6-35.4-10.8-44.8c-0.7-0.5-1.5-0.9-2.3-1.3c2.6,0.7,5.1,1.8,7.1,3.3
						c13.3,9.4,12.2,18.8,12.2,35.4c0,11.6,0.9,24-2.6,30.6c-3.2,5.6-8.8,9.1-15.5,11.4c1.4-0.5,2.6-1.3,3.8-2.2
						C412.7,810.6,415.7,798.2,415.2,783z"/>
					<path fill="#F59796" d="M266.8,750.1c-2.4,6.9-6.4,13-7.6,20.4c-1.1,6.6-0.7,13.8,1.3,20.3c1.6,5.3,13.1,20.9,5.2,25.3
						c-0.2,0.1-0.3,0.2-0.5,0.3c-5.6,2.4-9.5-7.1-11.4-11.6c-3.3-8-4.3-17.3-4.3-26.2c0-0.9,0-1.8,0-2.7c0-0.2,0-0.4,0-0.6
						c0.2-4.7,2.3-22,7.4-30.3c2-3.3,4.5-5.1,7.6-3.9c0.1,0,0.1,0,0.1,0.1C268.1,742.5,268,746.8,266.8,750.1z"/>
				</g>
			</g>
			<g>
				<defs>
					<rect id="SVGID_141_" x="-5.1" y="62.9" width="1090.2" height="923.8"/>
				</defs>
				<clipPath id="SVGID_142_">
					<use xlink:href="#SVGID_141_"  overflow="visible"/>
				</clipPath>
				<g clip-path="url(#SVGID_142_)">
					<g>
						
							<circle fill="none" stroke="#B7CBBF" stroke-width="2.4021" stroke-linecap="round" stroke-linejoin="round" stroke-miterlimit="10" cx="874.2" cy="715.8" r="9.5"/>
						
							<circle fill="none" stroke="#B7CBBF" stroke-width="5.6871" stroke-linecap="round" stroke-linejoin="round" stroke-miterlimit="10" cx="874.2" cy="715.8" r="36.4"/>
						
							<line fill="none" stroke="#6EC8C4" stroke-width="4.0035" stroke-linecap="round" stroke-linejoin="round" stroke-miterlimit="10" x1="874.3" y1="716.7" x2="892.1" y2="649.5"/>
						
							<path fill="none" stroke="#B7CBBF" stroke-width="5.6871" stroke-linecap="round" stroke-linejoin="round" stroke-miterlimit="10" d="
							M950.6,715.8c0,20,16.2,36.4,36.4,36.4c20.1,0,36.4-16.2,36.4-36.4c0-20-16.2-36.4-36.4-36.4
							C966.8,679.4,950.6,695.8,950.6,715.8z"/>
						
							<polygon fill="none" stroke="#6EC8C4" stroke-width="4.0035" stroke-linecap="round" stroke-linejoin="round" stroke-miterlimit="10" points="
							955.1,661.5 888.9,661.5 936.2,715.4 						"/>
						
							<polyline fill="none" stroke="#6EC8C4" stroke-width="4.0035" stroke-linecap="round" stroke-linejoin="round" stroke-miterlimit="10" points="
							955.1,661.5 989.2,716.7 936.2,715.4 						"/>
						
							<circle fill="none" stroke="#B7CBBF" stroke-width="2.4021" stroke-linecap="round" stroke-linejoin="round" stroke-miterlimit="10" cx="935.1" cy="714.8" r="12.6"/>
						
							<path fill="none" stroke="#B7CBBF" stroke-width="2.4021" stroke-linecap="round" stroke-linejoin="round" stroke-miterlimit="10" d="
							M987.6,723.8c4.3-0.2,7.7-3.8,7.5-8.1s-3.8-7.7-8.1-7.5"/>
						
							<line fill="none" stroke="#B7CBBF" stroke-width="2.4021" stroke-linecap="round" stroke-linejoin="round" stroke-miterlimit="10" x1="987" y1="708.1" x2="936.2" y2="702.4"/>
						
							<line fill="none" stroke="#B7CBBF" stroke-width="2.4021" stroke-linecap="round" stroke-linejoin="round" stroke-miterlimit="10" x1="987.6" y1="723.8" x2="935.8" y2="727.5"/>
						
							<line fill="none" stroke="#6EC8C4" stroke-width="4.0035" stroke-linecap="round" stroke-linejoin="round" stroke-miterlimit="10" x1="945.6" y1="688.5" x2="959.1" y2="650"/>
						<path fill="none" stroke="#D96547" stroke-width="4.0035" stroke-miterlimit="10" d="M892.1,649.5l2.1-8.1h-21.1
							c0,0-5.5,0.5-5.5,7.5c0,0-0.5,7.5,9.2,7.7"/>
					</g>
					<path fill="#F6E0D2" d="M920.4,621.4c-3.6,0-6.8-1.4-9.3-4c-2.5-2.6-3.8-5.8-3.8-9.4c0-3.6,1.3-6.7,3.8-9.4
						c2.5-2.6,5.6-4,9.3-4c3.6,0,6.8,1.4,9.3,4c2.5,2.6,3.8,5.8,3.8,9.4c0,3.6-1.3,6.8-3.8,9.4S924,621.4,920.4,621.4z"/>
					<path fill="#D96345" d="M975,653.1c0,4.3-1.8,7.6-5.4,9.8l-28.4,15.9v30.1c0,2.2-0.6,4-2,5.4c-1.4,1.4-3.1,2.2-5.3,2.2
						s-3.9-0.7-5.3-2.2c-1.4-1.5-2-3.3-2-5.4c0-6.3,0.1-12.8,0-19.1c0-4.3,0.2-8.6,0-13c-0.2-5.8-0.7-11.7,5.4-14.7l16.2-8.6"/>
					<path fill="#F79921" d="M915.9,639.2l11.9-19.8l1.1-1.5c3.5-4.6,11-4.7,15.3-1.2c1.6,1.4,3,3.3,4.5,4.7
						c6.3,6.1,12.2,12.8,18.5,19c1.8,1.8,3.5,3.6,5.2,5.3c1.7,1.9,2.5,4.3,2.5,7.3l-26.5,0.3L930.7,636l-6.9,11.1L915.9,639.2z"/>
					<path fill="#F6E0D2" d="M923.8,647.1l-1.5,2.3c-1.5,2.4-3.3,3.6-5.4,3.6H893c-2.2,0-3.7-0.9-4.7-2.7c-0.9-1.8-0.9-3.6,0-5.4
						c0.9-1.8,2.5-2.7,4.7-2.7h21l1.8-3.1"/>
					<path fill="#D96345" d="M906,600.4c0.8-4.3,3.2-7.8,6.8-10.4c3.7-2.6,7.7-3.5,12-2.6c4.3,0.8,7.7,3.2,10.1,7
						c2.4,3.8,3.2,7.8,2.3,12.2"/>
					<path fill="none" stroke="#AEABB3" stroke-width="2.4021" stroke-miterlimit="10" d="M923.8,603.4c0,0-2.6,16.2-9.2,15.1"/>
				</g>
			</g>
			<g>
				<defs>
					<rect id="SVGID_143_" x="-5.1" y="62.9" width="1090.2" height="923.8"/>
				</defs>
				<clipPath id="SVGID_144_">
					<use xlink:href="#SVGID_143_"  overflow="visible"/>
				</clipPath>
				<g clip-path="url(#SVGID_144_)">
					<path fill="none" stroke="#FFFFFF" stroke-width="7.5827" stroke-miterlimit="10" d="M826.6,742.7c0,0-18-18.4-1.6-45.7"/>
					<path fill="none" stroke="#FFFFFF" stroke-width="7.5827" stroke-miterlimit="10" d="M812.1,763.9c0,0-34.6-35.2-3.1-88"/>
					<path fill="none" stroke="#FFFFFF" stroke-width="7.5827" stroke-miterlimit="10" d="M797.6,784.3c0,0-50.6-51.6-4.4-128.7"/>
					<path fill="none" stroke="#FFFFFF" stroke-width="7.5827" stroke-miterlimit="10" d="M782.4,801.7c0,0-64.4-65.6-5.7-163.6"/>
				</g>
			</g>
			<g>
				<defs>
					<rect id="SVGID_145_" x="-5.1" y="62.9" width="1090.2" height="923.8"/>
				</defs>
				<clipPath id="SVGID_146_">
					<use xlink:href="#SVGID_145_"  overflow="visible"/>
				</clipPath>
				<g clip-path="url(#SVGID_146_)">
					<g>
						<g>
							
								<line fill="none" stroke="#F79921" stroke-width="5.6871" stroke-miterlimit="10" x1="597.2" y1="558.9" x2="597.2" y2="566.9"/>
							
								<line fill="none" stroke="#F79921" stroke-width="5.6871" stroke-miterlimit="10" stroke-dasharray="15.9371,7.9686" x1="597.2" y1="575.3" x2="597.2" y2="671.9"/>
							
								<line fill="none" stroke="#F79921" stroke-width="5.6871" stroke-miterlimit="10" x1="597.2" y1="676.2" x2="597.2" y2="684.2"/>
							<g>
								<circle fill="#F79921" cx="597.2" cy="683.4" r="13.5"/>
							</g>
						</g>
					</g>
				</g>
			</g>
			<g>
				<defs>
					<rect id="SVGID_147_" x="-5.1" y="62.9" width="1090.2" height="923.8"/>
				</defs>
				<clipPath id="SVGID_148_">
					<use xlink:href="#SVGID_147_"  overflow="visible"/>
				</clipPath>
				<g clip-path="url(#SVGID_148_)">
					<g>
						<path fill="none" stroke="#FFFFFF" stroke-width="5.6871" stroke-miterlimit="10" d="M56.8,719.3c2,0,4.7,0,8,0"/>
						<path fill="none" stroke="#FFFFFF" stroke-width="5.6871" stroke-miterlimit="10" stroke-dasharray="15.3707,7.6853" d="
							M72.9,719.3c27.6,0,76.6,0,99.8,0c32.8,0,74.1-42.5,129.5-42.5s173.1,2.1,200.5,2.1c27.3,0,52.4,57.8,94.5,57.8
							c42.1,0,70.1-37.7,97.1-31.5h45.8"/>
						
							<line fill="none" stroke="#FFFFFF" stroke-width="5.6871" stroke-miterlimit="10" x1="744.2" y1="705.2" x2="752.2" y2="705.2"/>
						<g>
							<polygon fill="#FFFFFF" points="68.8,733.9 71.2,731.3 58.2,719.3 71.2,707.2 68.8,704.5 52.9,719.3 							"/>
						</g>
					</g>
				</g>
			</g>
			<g>
				<defs>
					<rect id="SVGID_149_" x="-5.1" y="62.9" width="1090.2" height="923.8"/>
				</defs>
				<clipPath id="SVGID_150_">
					<use xlink:href="#SVGID_149_"  overflow="visible"/>
				</clipPath>
				<g clip-path="url(#SVGID_150_)">
					<path fill="#6EC8C4" d="M531.7,499.2c0,3.1,2.4,5.5,5.5,5.5h8c3.1,0,5.5-2.4,5.5-5.5v-4.9c0-3.1-2.4-5.5-5.5-5.5h-8
						c-3.1,0-5.5,2.4-5.5,5.5V499.2z"/>
					<path fill="#6EC8C4" d="M644.3,499.2c0,3.1,2.4,5.5,5.5,5.5h8c3.1,0,5.5-2.4,5.5-5.5v-4.9c0-3.1-2.4-5.5-5.5-5.5h-8
						c-3.1,0-5.5,2.4-5.5,5.5V499.2z"/>
					<path fill="#A1B6A9" d="M619.1,551c0,4.4,4.6,7.9,10.4,7.9h2c5.8,0,10.4-3.6,10.4-7.9v-22.3c0-4.4-4.6-7.9-10.4-7.9h-2
						c-5.8,0-10.4,3.6-10.4,7.9V551z"/>
					<path fill="#A1B6A9" d="M553.1,551c0,4.4,4.7,7.9,10.5,7.9h2.1c5.8,0,10.5-3.6,10.5-7.9v-22.3c0-4.4-4.7-7.9-10.5-7.9h-2.1
						c-5.8,0-10.5,3.6-10.5,7.9V551z"/>
					<g>
						<path fill="#6EC8C4" d="M541.2,504.4c0,18.7,25.2,23.2,56.3,23.2s56.3-4.5,56.3-23.2s-25.2-33.9-56.3-33.9
							S541.2,485.8,541.2,504.4z"/>
					</g>
					<polygon fill="#6EC8C4" points="648.9,514.6 648.9,514.6 648.9,514.6 648.9,514.6 648.9,511.4 648.9,511.4 648.9,511.4 
						648.9,511.4 					"/>
					<g>
						<path fill="#6EC8C4" d="M545.4,481.5c0-21.8,23.3-39.6,52.1-39.6c28.8,0,52.1,17.7,52.1,39.6c0,0.8,0,1.7-0.1,2.4
							c0.1,0.4,0.1,0.8,0.1,1.3v20.5v5.1l0,0c0,3.2-2.3,5.7-5.1,5.7h-94.1c-2.8,0-5.1-2.5-5.1-5.7l0,0v-5.1v-20.5
							c0-0.4,0-0.8,0.1-1.3C545.4,483.1,545.4,482.3,545.4,481.5z"/>
						<path opacity="0.2" fill="#020202" enable-background="new    " d="M545.4,481.5c0-21.8,23.3-39.6,52.1-39.6
							c28.8,0,52.1,17.7,52.1,39.6c0,0.8,0,1.7-0.1,2.4c0.1,0.4,0.1,0.8,0.1,1.3v20.5v5.1l0,0c0,3.2-2.3,5.7-5.1,5.7h-94.1
							c-2.8,0-5.1-2.5-5.1-5.7l0,0v-5.1v-20.5c0-0.4,0-0.8,0.1-1.3C545.4,483.1,545.4,482.3,545.4,481.5z"/>
					</g>
					<path fill="#6EC8C4" d="M541.2,500.4c0-20.9,25.2-37.8,56.3-37.8s56.3,16.9,56.3,37.8c0,0.8,0,1.6-0.1,2.3
						c0.1,0.4,0.1,0.8,0.1,1.3v19.5v4.9l0,0c0,3.1-2.4,5.5-5.5,5.5H546.6c-3.1,0-5.5-2.4-5.5-5.5l0,0v-4.9V504c0-0.4,0-0.8,0.1-1.3
						C541.2,502,541.2,501.3,541.2,500.4z"/>
					<path fill="#D9EDE2" d="M554.6,489.7c0-9.1,19.2-16.3,42.9-16.3s42.9,7.3,42.9,16.3c0,0.3,0,0.6-0.1,1.1
						c0.1,0.2,0.1,0.3,0.1,0.5v6.3c0,1.5-1.9,2.6-4.2,2.6h-77.4c-2.3,0-4.2-1.2-4.2-2.6v-6.3c0-0.2,0-0.4,0.1-0.5
						C554.7,490.3,554.6,490,554.6,489.7z"/>
					<path fill="#58AEA4" d="M541.2,529c0,3.6,2.3,6.4,5.3,6.4h102c3,0,5.3-2.8,5.3-6.4v-2.5c0-3.6-2.3-6.4-5.3-6.4h-102
						c-3,0-5.3,2.8-5.3,6.4V529z"/>
					<path fill="#D9EDE2" d="M589.1,531.7c0,0.3,0.3,0.6,0.6,0.6h15.3c0.3,0,0.6-0.3,0.6-0.6v-7.9c0-0.3-0.3-0.6-0.6-0.6h-15.3
						c-0.3,0-0.6,0.3-0.6,0.6V531.7z"/>
				</g>
			</g>
		</g>
	</g>
</g>
</svg>
