<?xml version="1.0" encoding="utf-8"?>
<!-- Generator: Adobe Illustrator 18.1.1, SVG Export Plug-In . SVG Version: 6.00 Build 0)  -->
<svg version="1.1" id="Layer_1" xmlns="http://www.w3.org/2000/svg" xmlns:xlink="http://www.w3.org/1999/xlink" x="0px" y="0px"
	 viewBox="0 0 1080 1080" enable-background="new 0 0 1080 1080" xml:space="preserve">
<g>
	
		<image overflow="visible" opacity="0.2" enable-background="new    " width="1107" height="199" xlink:href="94D8E899AA0E9A37.png"  transform="matrix(1.0547 0 0 1.0547 -20.0391 719.9609)">
	</image>
	<g>
		<rect x="-11.3" y="729.5" fill="#A3CD39" width="1134.9" height="273.8"/>
	</g>
</g>
<g>
	<rect x="0.5" y="20.2" fill="#C7D3CB" width="1078.5" height="701.9"/>
	<g>
		<rect x="680.9" y="-80.5" fill="#D44F2D" width="378.7" height="445.6"/>
		<rect x="708.2" y="-57.2" fill="#E36850" width="324.1" height="399.5"/>
	</g>
	<g>
		<rect x="-0.9" y="-331.4" fill="#599D97" width="603.2" height="696.3"/>
		<rect x="-0.7" y="-304.2" fill="#7AB1AC" width="578.6" height="642.2"/>
		<rect x="50.2" y="-236.6" fill="#599D97" width="155.9" height="90.2"/>
		<rect x="50.2" y="-105.1" fill="#599D97" width="155.9" height="90.2"/>
	</g>
	<rect x="688" y="331.7" fill="#D44F2D" width="21.1" height="21.1"/>
	<rect x="-1.1" y="648.2" fill="#8AA83D" width="1080.1" height="85.4"/>
	
		<line fill="none" stroke="#425553" stroke-width="250" stroke-linejoin="round" stroke-miterlimit="10" x1="0.9" y1="524.3" x2="1079.1" y2="524.3"/>
	
		<line fill="none" stroke="#676767" stroke-width="36.2597" stroke-miterlimit="10" x1="1030.2" y1="399.9" x2="1030.2" y2="648.6"/>
	<g>
		
			<line fill="none" stroke="#676767" stroke-width="5.439" stroke-linecap="round" stroke-miterlimit="10" x1="622.9" y1="521.4" x2="1034.5" y2="521.4"/>
		
			<line fill="none" stroke="#676767" stroke-width="5.439" stroke-linecap="round" stroke-miterlimit="10" x1="622.9" y1="533" x2="1034.5" y2="533"/>
	</g>
	
		<line fill="none" stroke="#676767" stroke-width="5.439" stroke-linecap="round" stroke-miterlimit="10" x1="-1.1" y1="521.4" x2="275.7" y2="521.4"/>
	
		<line fill="none" stroke="#676767" stroke-width="5.439" stroke-linecap="round" stroke-miterlimit="10" x1="-1.1" y1="533" x2="275.7" y2="533"/>
	<line fill="none" stroke="#676767" stroke-width="36.2597" stroke-miterlimit="10" x1="619.7" y1="399.8" x2="619.7" y2="649"/>
	<line fill="none" stroke="#676767" stroke-width="36.2597" stroke-miterlimit="10" x1="279.2" y1="400.1" x2="279.2" y2="648.8"/>
	<rect x="977.1" y="92" fill="#D44F2D" width="27.7" height="219.4"/>
	<rect x="7.1" y="105.1" fill="none" width="1074.1" height="769.9"/>
	<rect x="41.7" y="254.2" fill="#599D97" width="219.4" height="27.7"/>
	<rect x="41.7" y="205.6" fill="#599D97" width="219.4" height="27.7"/>
	<g>
		<path fill="none" d="M201.8,623.4c0-0.4,0-0.8,0.1-1.3C201.8,622.6,201.8,623,201.8,623.4z"/>
		<path fill="none" d="M161.2,568.8c4,19.9,0.8,49.4-6.7,56.2C161.9,618.3,165.4,588.9,161.2,568.8z"/>
		<path fill="none" d="M201.9,624.5c-0.1-0.4-0.1-0.7-0.1-1.2C201.8,623.8,201.8,624.2,201.9,624.5z"/>
		<g>
			<path fill="none" d="M53.9,594.3c0.5-16.8-2.4-35.8,11.1-45.1c0.7-0.5,1.6-0.9,2.3-1.3c-2.7,0.7-5.2,1.8-7.2,3.3
				c-13.5,9.4-12.4,18.9-12.6,35.6c-0.1,11.7-1.2,24.3,2.5,30.9c3.1,5.6,8.8,9.3,15.5,11.6c-1.4-0.5-2.6-1.4-3.8-2.3
				C56.2,622.2,53.4,609.6,53.9,594.3z"/>
			<path fill="none" d="M69,547.7c10.5-1.8,22.5,8.2,35.5,9.6c0.5,0.1,1.1,0.1,1.6,0.1c0.4,0,0.9,0.1,1.4,0.1c3.9,0-7.2-0.2-3.3-0.4
				c7.2-0.5,14.2-5.4,21.4-5.9c6-0.5,12-0.6,18.1-0.8c0.9,0,1.9,0,2.8-0.1c0.3,0,1.5-0.1,2.6-0.2c6.1,1.7,10,9.2,12,18.8
				c4,19.9,0.8,49.4-6.8,56.2c-14.8,13.3-26.6-1.9-43.9-1.5c-0.4,0-0.9,0-1.4,0.1c-0.5,0-1.1,0.1-1.6,0.1
				c-13.1,1.3-27.3,8.5-37.9,6.6c12.9,3.3,29.3-0.7,41.1-0.9c16.7,0.1,20.7,5.6,37,0.5c6-1.9,23-2.8,26.4-15.7
				c2.2-8.3,2.5-34.6,0.9-44.3c-2.1-13-15.8-18.6-23.9-20l0,0c-0.8-0.2-2.8-0.2-3.8-0.3c-3.4-0.5-11.5-2-14.8-2.2
				c-14.3-0.7-10.9,4.2-24.8,4.1C95.9,551.3,81.7,544.7,69,547.7z"/>
			<path fill="#F16B62" d="M46.5,552.2c-11.1,9.8-11.4,19.7-11.4,33.4c0,4.4-0.1,11.8,0.1,16.2c0.3,7.8,3.9,19.9,9.1,25.9
				c6.9,7.9,15.8,5.3,25.7,5.3c19.5,0.2-6.8-2,30-3.7c9.1-0.4,19.2,2.6,32,2.7c10.7,0.1,25.4,2.3,51.9,1.7c8.2,0,15.3-1.8,21.1-5.1
				c-0.1-0.1-0.2-0.1-0.3-0.2c-1.6-0.9-2.4-2.3-2.6-4c-0.1-0.4-0.1-0.7-0.1-1.2s0-0.8,0.1-1.3c0.7-6.5,6.9-15.4,8-19.2
				c2-6.4,2.3-13.6,1.4-20.4c-1.1-7.5-5.2-13.6-7.5-20.6c-1.2-3.3-1.2-7.7,2.3-9.1c0.1,0,0.1,0,0.1-0.1c0.1,0,0.3-0.1,0.4-0.1
				c-6-3.9-13.4-5.9-22.3-6.2c-63.8-2.2-58.7,5.8-80.6,6.5c-7.2,0.2,12.6,1.5,5.3,1.4c-8.3-0.2-11-7.3-36.7-10.1
				C61.3,543,54.1,545.5,46.5,552.2z M65.6,629.2c-6.9-2.3-12.4-5.9-15.5-11.6c-3.7-6.6-2.6-19.2-2.5-30.9
				c0.2-16.8-0.9-26.3,12.6-35.6c2-1.4,4.5-2.4,7.2-3.3c-0.8,0.3-1.6,0.7-2.3,1.3c-13.5,9.4-10.5,28.4-11.1,45.1
				c-0.5,15.4,2.3,27.8,7.9,32.6C63,627.9,64.2,628.6,65.6,629.2 M69.6,630.4c10.5,1.9,24.8-5.5,37.9-6.6c0.5,0,1.1-0.1,1.6-0.1
				c0.4,0,0.9,0,1.4-0.1c17.3-0.4,29.1,14.8,43.9,1.5c7.6-6.8,10.8-36.3,6.8-56.2c-2.1-9.6-5.9-17.1-12-18.8
				c-1.2,0.1-2.3,0.2-2.6,0.2c-0.9,0-1.9,0-2.8,0.1c-6,0.1-12,0.3-18.1,0.8c-7.2,0.6-14.2,5.4-21.4,5.9c-3.9,0.3,7.3,0.5,3.3,0.4
				c-13.4-0.1-24.7-11.8-38.4-9.8c8.5-1.7,16.8,0.1,25.1,1.9c8.8,1.9,1.7,2.5,10.5,1.2c6.6-1.1,13.3-2.6,20-2.8
				c7.6-0.3,15.1,0.7,22.5,1.9c0.9,0.1,3,0.1,3.8,0.3c8.2,1.4,21.9,7.1,23.9,20c1.6,9.7,1.3,36-0.9,44.3
				c-3.5,12.8-20.4,13.8-26.4,15.7c-16.2,5-20.4-0.5-37-0.5C98.9,629.6,82.5,633.6,69.6,630.4"/>
		</g>
		<path fill="#6EC8C4" d="M149,550.1h2C150.6,549.9,149.9,549.9,149,550.1z"/>
		<path fill="#D9EDE2" d="M147.8,630c6-1.9,23-2.8,26.4-15.7c2.2-8.3,2.5-34.6,0.9-44.3c-2.1-13-15.8-18.6-23.9-20l0,0
			c-0.8-0.2-2.8-0.2-3.8-0.3c-3.4-0.5-6.3-1.9-14.8-2.2c-16.8-0.6-10.9,4.2-24.8,4.1c-11.8-0.3-25.9-7.1-38.8-3.9
			c10.5-1.8,22.5,8.2,35.5,9.6c0.5,0.1,1.1,0.1,1.6,0.1c0.4,0,0.9,0.1,1.4,0.1c3.9,0-7.2-0.2-3.3-0.4c7.2-0.5,14.2-5.4,21.4-5.9
			c6-0.5,12-0.6,18.1-0.8c0.9,0,1.9,0,2.8-0.1c0.3,0,1.5-0.1,2.6-0.2c6.1,1.7,10,9.2,12,18.8c4.3,20,0.8,49.5-6.8,56.2
			c-14.8,13.3-26.6-1.9-43.9-1.5c-0.4,0-0.9,0-1.4,0.1c-0.5,0-1.1,0.1-1.6,0.1c-13.1,1.3-27.3,8.5-37.9,6.6
			c12.9,3.3,29.3-0.7,41.1-0.9C127.4,629.5,131.4,635,147.8,630z M151,550.1h-2C149.9,549.9,150.6,549.9,151,550.1z"/>
		<path fill="#D9EDE2" d="M53.9,594.3c0.5-16.8-2.4-35.8,11.1-45.1c0.7-0.5,1.6-0.9,2.3-1.3c-2.7,0.7-5.2,1.8-7.2,3.3
			c-13.5,9.4-12.4,18.9-12.6,35.6c-0.1,11.7-1.2,24.3,2.5,30.9c3.1,5.6,8.8,9.3,15.5,11.6c-1.4-0.5-2.6-1.4-3.8-2.3
			C56.2,622.2,53.4,609.6,53.9,594.3z"/>
		<path fill="#F59796" d="M206,552.9c-3.5,1.4-3.4,5.8-2.3,9.1c2.3,7,6.4,13.1,7.5,20.6c0.9,6.8,0.6,13.9-1.4,20.4
			c-1.2,3.7-7.3,12.7-8,19.2c0,0.4-0.1,0.8-0.1,1.3l0,0c0,0.4,0.1,0.7,0.1,1.2c0.2,1.7,1.1,3.1,2.6,4c0.1,0.1,0.2,0.1,0.3,0.2
			c0.1,0,0.1,0.1,0.2,0.1c5.6,2.5,9.6-7.1,11.5-11.7c3.4-8,4.5-17.4,4.5-26.4c0-0.9,0-1.9,0-2.7c0-0.2,0-0.4,0-0.6
			c-0.1-4.7-2.2-22.3-7.3-30.5c-1.9-3.2-4.3-5-7.3-4.1C206.3,552.8,206.1,552.9,206,552.9C206.1,552.9,206.1,552.9,206,552.9z"/>
	</g>
	<g>
		<path fill="none" d="M810.4,429.8c0,0.4,0,0.8-0.1,1.3C810.4,430.6,810.4,430.1,810.4,429.8z"/>
		<path fill="none" d="M851,484.3c-4-19.9-0.8-49.4,6.8-56.2C850.3,434.9,846.7,464.3,851,484.3z"/>
		<path fill="none" d="M810.3,428.7c0.1,0.4,0.1,0.7,0.1,1.2C810.4,429.4,810.3,429,810.3,428.7z"/>
		<g>
			<path fill="none" d="M958.3,458.8c-0.5,16.8,2.4,35.8-11.1,45.1c-0.7,0.5-1.6,0.9-2.3,1.3c2.7-0.7,5.2-1.8,7.2-3.3
				c13.5-9.4,12.4-18.9,12.6-35.6c0.1-11.7,1.2-24.3-2.5-30.9c-3.1-5.6-8.8-9.3-15.5-11.6c1.4,0.5,2.6,1.4,3.8,2.3
				C956,431,958.8,443.5,958.3,458.8z"/>
			<path fill="none" d="M943.2,505.4c-10.5,1.8-22.5-8.2-35.5-9.6c-0.5-0.1-1.1-0.1-1.6-0.1c-0.4,0-0.9-0.1-1.4-0.1
				c-3.9,0,7.2,0.2,3.3,0.4c-7.2,0.5-14.2,5.4-21.4,5.9c-6,0.5-12,0.6-18.1,0.8c-0.9,0-1.9,0-2.8,0.1c-0.3,0-1.5,0.1-2.6,0.2
				c-6.1-1.7-10-9.2-12-18.8c-4-19.9-0.8-49.4,6.8-56.2c14.8-13.3,26.6,1.9,43.9,1.5c0.4,0,0.9,0,1.4-0.1c0.5,0,1.1-0.1,1.6-0.1
				c13.1-1.3,27.3-8.5,37.9-6.6c-12.9-3.3-29.3,0.7-41.1,0.9c-16.7-0.1-20.7-5.6-37-0.5c-6,1.9-23,2.8-26.4,15.7
				c-2.2,8.3-2.5,34.6-0.9,44.3c2.1,13,15.8,18.6,23.9,20l0,0c0.8,0.2,2.8,0.2,3.8,0.3c3.4,0.5,11.5,2,14.8,2.2
				c14.3,0.7,10.9-4.2,24.8-4.1C916.3,501.9,930.3,508.5,943.2,505.4z"/>
			<path fill="#6EC8C4" d="M965.7,500.9c11.1-9.8,11.4-19.7,11.4-33.4c0-4.4,0.1-11.8-0.1-16.2c-0.3-7.8-3.9-19.9-9.1-25.9
				c-6.9-7.9-15.8-5.3-25.7-5.3c-19.5-0.2,6.8,2-30,3.7c-9.1,0.4-19.2-2.6-32-2.7c-10.7-0.1-25.4-2.3-51.9-1.7
				c-8.2,0-15.3,1.8-21.1,5.1c0.1,0.1,0.2,0.1,0.3,0.2c1.6,0.9,2.4,2.3,2.6,4c0.1,0.4,0.1,0.7,0.1,1.2c0,0.4,0,0.8-0.1,1.3
				c-0.7,6.5-6.9,15.4-8,19.2c-2,6.4-2.3,13.6-1.4,20.4c1.1,7.5,5.2,13.6,7.5,20.6c1.2,3.3,1.2,7.7-2.3,9.1c-0.1,0-0.1,0-0.1,0.1
				c-0.1,0-0.3,0.1-0.4,0.1c6,3.9,13.4,5.9,22.3,6.2c63.8,2.2,58.7-5.8,80.6-6.5c7.2-0.2-12.6-1.5-5.3-1.4c8.3,0.2,11,7.3,36.7,10.1
				C950.8,510.2,958.1,507.7,965.7,500.9z M946.6,424c6.9,2.3,12.4,5.9,15.5,11.6c3.7,6.6,2.6,19.2,2.5,30.9
				c-0.2,16.8,0.9,26.3-12.6,35.6c-2,1.4-4.5,2.4-7.2,3.3c0.8-0.3,1.6-0.7,2.3-1.3c13.5-9.4,10.5-28.4,11.1-45.1
				c0.5-15.4-2.3-27.8-7.9-32.6C949.2,425.3,948,424.5,946.6,424 M942.5,422.8c-10.5-1.9-24.8,5.5-37.9,6.6c-0.5,0-1.1,0.1-1.6,0.1
				c-0.4,0-0.9,0-1.4,0.1c-17.3,0.4-29.1-14.8-43.9-1.5c-7.6,6.7-10.8,36.3-6.8,56.2c2.1,9.6,5.9,17.1,12,18.8
				c1.2-0.1,2.3-0.2,2.6-0.2c0.9,0,1.9,0,2.8-0.1c6-0.1,12-0.3,18.1-0.8c7.2-0.6,14.2-5.4,21.4-5.9c3.9-0.3-7.3-0.5-3.3-0.4
				c13.4,0.1,24.7,11.8,38.4,9.8c-8.5,1.7-16.8-0.1-25.1-1.9c-8.8-1.9-1.7-2.5-10.5-1.2c-6.6,1.1-13.3,2.6-20,2.8
				c-7.6,0.3-15.1-0.7-22.5-1.9c-0.9-0.1-3-0.1-3.8-0.3c-8.2-1.4-21.9-7.1-23.9-20c-1.6-9.7-1.3-36,0.9-44.3
				c3.5-12.8,20.4-13.8,26.4-15.7c16.2-5,20.4,0.5,37,0.5C913.3,423.6,929.7,419.5,942.5,422.8"/>
		</g>
		<path fill="#6EC8C4" d="M863.2,503.1h-2C861.6,503.2,862.3,503.2,863.2,503.1z"/>
		<path fill="#D9EDE2" d="M864.4,423.2c-6,1.9-23,2.8-26.4,15.7c-2.2,8.3-2.5,34.6-0.9,44.3c2.1,13,15.8,18.6,23.9,20l0,0
			c0.8,0.2,2.8,0.2,3.8,0.3c3.4,0.5,6.3,1.9,14.8,2.2c16.8,0.6,10.9-4.2,24.8-4.1c11.8,0.3,25.9,7.1,38.8,3.9
			c-10.5,1.8-22.5-8.2-35.5-9.6c-0.5-0.1-1.1-0.1-1.6-0.1c-0.4,0-0.9-0.1-1.4-0.1c-3.9,0,7.2,0.2,3.3,0.4
			c-7.2,0.5-14.2,5.4-21.4,5.9c-6,0.5-12,0.6-18.1,0.8c-0.9,0-1.9,0-2.8,0.1c-0.3,0-1.5,0.1-2.6,0.2c-6.1-1.7-10-9.2-12-18.8
			c-4.3-20-0.8-49.5,6.8-56.2c14.8-13.3,26.6,1.9,43.9,1.5c0.4,0,0.9,0,1.4-0.1c0.5,0,1.1-0.1,1.6-0.1c13.1-1.3,27.3-8.5,37.9-6.6
			c-12.9-3.3-29.3,0.7-41.1,0.9C884.8,423.7,880.7,418.1,864.4,423.2z M861.2,503.1h2C862.3,503.2,861.6,503.2,861.2,503.1z"/>
		<path fill="#D9EDE2" d="M958.3,458.8c-0.5,16.8,2.4,35.8-11.1,45.1c-0.7,0.5-1.6,0.9-2.3,1.3c2.7-0.7,5.2-1.8,7.2-3.3
			c13.5-9.4,12.4-18.9,12.6-35.6c0.1-11.7,1.2-24.3-2.5-30.9c-3.1-5.6-8.8-9.3-15.5-11.6c1.4,0.5,2.6,1.4,3.8,2.3
			C956,431,958.8,443.5,958.3,458.8z"/>
		<path fill="#58AEA4" d="M806.1,500.3c3.5-1.4,3.4-5.8,2.3-9.1c-2.3-7-6.4-13.1-7.5-20.6c-0.9-6.8-0.6-13.9,1.4-20.4
			c1.2-3.7,7.3-12.7,8-19.2c0-0.4,0.1-0.8,0.1-1.3l0,0c0-0.4-0.1-0.7-0.1-1.2c-0.2-1.7-1.1-3.1-2.6-4c-0.1-0.1-0.2-0.1-0.3-0.2
			c-0.1,0-0.1-0.1-0.2-0.1c-5.6-2.5-9.6,7.1-11.5,11.7c-3.4,8-4.5,17.4-4.5,26.4c0,0.9,0,1.9,0,2.7c0,0.2,0,0.4,0,0.6
			c0.1,4.7,2.2,22.3,7.3,30.5c1.9,3.2,4.3,5,7.3,4.1C805.8,500.4,806,500.3,806.1,500.3C806,500.3,806.1,500.3,806.1,500.3z"/>
	</g>
	
		<line fill="none" stroke="#425553" stroke-width="235.6881" stroke-linejoin="round" stroke-miterlimit="10" x1="449.6" y1="421.7" x2="449.6" y2="1004.7"/>
	<g>
		
			<line fill="none" stroke="#676767" stroke-width="5.439" stroke-linecap="round" stroke-miterlimit="10" x1="446.9" y1="1004.2" x2="446.9" y2="701.5"/>
		
			<line fill="none" stroke="#676767" stroke-width="5.439" stroke-linecap="round" stroke-miterlimit="10" x1="457.1" y1="1003.2" x2="457.1" y2="701.5"/>
	</g>
	<line fill="none" stroke="#676767" stroke-width="36.2597" stroke-miterlimit="10" x1="332.4" y1="697.9" x2="568" y2="697.9"/>
	<g>
		
			<line fill="none" stroke="#B7CBBF" stroke-width="7.2519" stroke-linecap="round" stroke-linejoin="round" stroke-miterlimit="10" x1="516.8" y1="849.9" x2="516.8" y2="662.2"/>
		
			<line fill="none" stroke="#6EC8C4" stroke-width="9.0649" stroke-linecap="round" stroke-linejoin="round" stroke-miterlimit="10" x1="516.8" y1="818.5" x2="516.8" y2="688.3"/>
		<path fill="#D96345" d="M538.1,765.8c0,0,10.3,45.8-11.8,45.8h-21.5c0,0-16.1-5.6-7.5-45.8"/>
		<path fill="none" stroke="#D96345" stroke-width="3.8288" stroke-miterlimit="10" d="M542.5,727.7c0,0,23.1-31.9-34.5-27.5
			c0,0-33.4-0.8-16.8,29.4"/>
		<path fill="#F6E0D2" d="M492,749.9l0.6-44.9c0-3.6,3-6.3,6.5-6.3l0,0h0.1c3.5,0.2,6.2,3.1,6.2,6.5l-0.6,44.9"/>
		<path fill="#F6E0D2" d="M531.7,749.2l36.4-22.8c2.8-1.8,6.6-0.9,8.4,2l0,0v0.1c1.7,2.8,0.8,6.5-2,8.3l-36.4,22.8"/>
		<path fill="#F79921" d="M528.7,800.3c2.8,0,8.8-25.2,9.4-27.5c3.2-11.9,7.5-25.7-5.1-32.6c-10.9-5.9-38-7.2-41.4,9.9
			c-1.3,6.1-0.6,10.1,0.4,16.1c0.7,4.6,8.3,34,12.6,34C504.5,800.3,528.7,800.3,528.7,800.3z"/>
		<polygon fill="#F79921" points="541.1,759.5 552.3,752.3 544.7,739.2 535.8,746.6 		"/>
		
			<rect x="491.7" y="737.9" transform="matrix(-0.2919 -0.9565 0.9565 -0.2919 -69.7459 1437.272)" fill="#F79921" width="11" height="13.2"/>
		<ellipse fill="#D96345" cx="516.8" cy="746.5" rx="18.8" ry="27.4"/>
		<path fill="none" stroke="#FFFFFF" stroke-width="3.626" stroke-miterlimit="10" d="M561.6,725.6c0,0-5.3-27-35-21.1"/>
		<path fill="none" stroke="#FFFFFF" stroke-width="3.626" stroke-miterlimit="10" d="M525.3,705.8l5.6-7.5L525.3,705.8z"/>
		<path fill="none" stroke="#FFFFFF" stroke-width="3.626" stroke-miterlimit="10" d="M525.6,703.9l5.1,6.4L525.6,703.9z"/>
		<path fill="none" stroke="#FFFFFF" stroke-width="3.626" stroke-miterlimit="10" d="M562.8,725.2l-9-2.4L562.8,725.2z"/>
		<path fill="none" stroke="#FFFFFF" stroke-width="3.626" stroke-miterlimit="10" d="M561,726.1l4.7-8L561,726.1z"/>
	</g>
	<g>
		<g>
			<line fill="none" stroke="#FFFFFF" stroke-width="5.439" stroke-miterlimit="10" x1="516.8" y1="662.4" x2="516.8" y2="654.7"/>
			<path fill="none" stroke="#FFFFFF" stroke-width="5.439" stroke-miterlimit="10" stroke-dasharray="14.0117,7.0059" d="
				M516.8,647.3v-3.6c0,0-5.7-60.8,63.5-60.8h158.4"/>
			<line fill="none" stroke="#FFFFFF" stroke-width="5.439" stroke-miterlimit="10" x1="742.4" y1="583.1" x2="750.1" y2="583.1"/>
			<g>
				<polygon fill="#FFFFFF" points="738.7,597.1 736.3,594.6 748.7,583.1 736.3,571.5 738.7,568.9 753.8,583.1 				"/>
			</g>
		</g>
	</g>
</g>
</svg>
