<?xml version="1.0" encoding="utf-8"?>
<!-- Generator: Adobe Illustrator 18.1.1, SVG Export Plug-In . SVG Version: 6.00 Build 0)  -->
<svg version="1.1" id="Layer_1" xmlns="http://www.w3.org/2000/svg" xmlns:xlink="http://www.w3.org/1999/xlink" x="0px" y="0px"
	 viewBox="0 0 1080 1080" enable-background="new 0 0 1080 1080" xml:space="preserve">
<g>
	
		<image overflow="visible" opacity="0.2" enable-background="new    " width="1188" height="1401" xlink:href="F69EBFE6F4DA9D7F.png"  transform="matrix(1.0547 0 0 1.0547 -23.2031 -535.6641)">
	</image>
	<g>
		<g>
			<g>
				<defs>
					<rect id="SVGID_1_" x="1.5" y="41.8" width="1077" height="876.4"/>
				</defs>
				<clipPath id="SVGID_2_">
					<use xlink:href="#SVGID_1_"  overflow="visible"/>
				</clipPath>
				<rect x="1.5" y="840.6" clip-path="url(#SVGID_2_)" fill="#A1B6A9" width="1077" height="46"/>
			</g>
			<g>
				<defs>
					<rect id="SVGID_3_" x="1.5" y="41.8" width="1077" height="876.4"/>
				</defs>
				<clipPath id="SVGID_4_">
					<use xlink:href="#SVGID_3_"  overflow="visible"/>
				</clipPath>
				<g clip-path="url(#SVGID_4_)">
					<rect x="1.4" y="57.1" fill="#D9EDE2" width="1074.6" height="798.2"/>
					<path opacity="0.6" fill="#FFFFFF" enable-background="new    " d="M866,398.8c-1.2,0-2.4,0.1-3.5,0.3
						c-4.1-8-12.6-13.5-22.1-13.5c-12.3,0-22.5,8.9-24.6,20.6c-1.2-0.3-2.4-0.5-3.7-0.5c-4.1,0-7.9,1.7-10.5,4.4
						c-2.7-3-6.8-4.9-11.1-4.9c-8.3,0-15.2,6.8-15.2,15.2c0,8.3,6.8,15.2,15.2,15.2h75.6c10.1,0,18.4-8.2,18.4-18.4
						S876.2,398.8,866,398.8z"/>
					<path opacity="0.6" fill="#FFFFFF" enable-background="new    " d="M866.1,318.3c1.2,0,2.4,0.1,3.5,0.3
						c4.1-8,12.6-13.5,22.1-13.5c12.3,0,22.5,8.9,24.6,20.6c1.2-0.3,2.4-0.5,3.7-0.5c4.1,0,7.9,1.7,10.5,4.4c2.7-3,6.8-4.9,11.1-4.9
						c8.3,0,15.2,6.7,15.2,15.2c0,8.3-6.8,15.2-15.2,15.2H866c-10.1,0-18.4-8.2-18.4-18.4C847.7,326.6,856,318.3,866.1,318.3z"/>
					<path opacity="0.6" fill="#FFFFFF" enable-background="new    " d="M167.8,339.6c7,0,12.7-5.7,12.7-12.7s-5.7-12.7-12.7-12.7
						c-0.8,0-1.7,0.1-2.4,0.2c-2.8-5.6-8.6-9.4-15.3-9.4c-8.4,0-15.5,6.1-17,14.2c-0.8-0.2-1.7-0.3-2.5-0.3c-2.8,0-5.5,1.2-7.3,3.1
						c-1.9-2.1-4.6-3.4-7.7-3.4c-5.8,0-10.4,4.6-10.4,10.4s4.6,10.4,10.4,10.4"/>
					<path opacity="0.6" fill="#FFFFFF" enable-background="new    " d="M347.5,218.6c-0.8,0-1.7,0.1-2.5,0.2
						c-0.9-15.6-13.8-28.1-29.7-28.1c-8.5,0-16.2,3.6-21.7,9.4c-1.8-0.4-3.6-0.6-5.5-0.6c-8.3,0-15.7,4-20.4,10.2
						c-3.2-1.8-6.8-2.7-10.7-2.7c-11.9,0-21.6,9.7-21.6,21.6s9.7,21.6,21.6,21.6h90.4c8.8,0,15.9-7.2,15.9-15.9
						C363.4,225.8,356.4,218.6,347.5,218.6z"/>
					<polygon fill="#A1B6A9" points="605.5,533.1 627,533.1 623.3,512.2 608.8,512.2 					"/>
					<polygon fill="#A1B6A9" points="614.6,468.4 614.6,468.4 617.9,517 612,517 					"/>
					<rect x="625.4" y="468.1" fill="#A1B6A9" width="43" height="152.4"/>
					<rect x="599.5" y="512.1" fill="#A1B6A9" width="34.7" height="129.9"/>
					<rect x="533.4" y="480" fill="#A1B6A9" width="56.4" height="163.7"/>
					<rect x="479.1" y="508.6" fill="#A1B6A9" width="39" height="152.4"/>
					<rect x="484.3" y="503" fill="#A1B6A9" width="27.3" height="9.2"/>
					<rect x="493.8" y="489.4" fill="#A1B6A9" width="14.4" height="17.3"/>
					<rect x="496.4" y="478.2" fill="#A1B6A9" width="8.3" height="13.1"/>
					<path fill="#B88D8F" d="M511.9,473.7v192h31.2h6.9V493.7h31.1v-44.4h-38v24.4H511.9z M549.2,476.5h26.1v9.4h-26.1V476.5z
						 M549.2,457.6h26.1v9.4h-26.1V457.6z M518.4,626.2h26.1v9.4h-26.1V626.2z M518.4,604.9h26.1v9.4h-26.1V604.9z M518.4,583.5
						h26.1v9.4h-26.1V583.5z M518.4,562.2h26.1v9.4h-26.1V562.2z M518.4,540.9h26.1v9.4h-26.1V540.9z M518.4,519.4h26.1v9.4h-26.1
						V519.4z M518.4,498.1h26.1v9.4h-26.1V498.1z"/>
					<path fill="#599D97" d="M553.2,479.1v167.5h54.6V479.1H553.2z M592.6,614.9h5.8v13.8h-5.8V614.9z M592.6,589.8h5.8v13.8h-5.8
						V589.8z M592.6,564.8h5.8v13.8h-5.8V564.8z M592.6,539.7h5.8v13.8h-5.8V539.7z M592.6,514.7h5.8v13.8h-5.8V514.7z M592.6,489.6
						h5.8v13.8h-5.8V489.6z M582.6,614.9h5.9v13.8h-5.9V614.9z M582.6,589.8h5.9v13.8h-5.9V589.8z M582.6,564.8h5.9v13.8h-5.9V564.8
						z M582.6,539.7h5.9v13.8h-5.9V539.7z M582.6,514.7h5.9v13.8h-5.9V514.7z M582.6,489.6h5.9v13.8h-5.9V489.6z M572.6,614.9h5.8
						v13.8h-5.8V614.9z M572.6,589.8h5.8v13.8h-5.8V589.8z M572.6,564.8h5.8v13.8h-5.8V564.8z M572.6,539.7h5.8v13.8h-5.8V539.7z
						 M572.6,514.7h5.8v13.8h-5.8V514.7z M572.6,489.6h5.8v13.8h-5.8V489.6z M562.6,614.9h5.8v13.8h-5.8V614.9z M562.6,589.8h5.8
						v13.8h-5.8V589.8z M562.6,564.8h5.8v13.8h-5.8V564.8z M562.6,539.7h5.8v13.8h-5.8V539.7z M562.6,514.7h5.8v13.8h-5.8V514.7z
						 M562.6,489.6h5.8v13.8h-5.8V489.6z"/>
					<path fill="#F16B62" d="M423,434.2v217.2h80.7V434.2H423z M481.1,610.4h8.6v17.9h-8.6V610.4z M481.1,577.9h8.6v17.9h-8.6V577.9
						z M481.1,545.4h8.6v17.9h-8.6V545.4z M481.1,512.9h8.6v17.9h-8.6V512.9z M481.1,480.4h8.6v17.9h-8.6V480.4z M481.1,447.9h8.6
						v17.9h-8.6V447.9z M466.4,610.4h8.6v17.9h-8.6V610.4z M466.4,577.9h8.6v17.9h-8.6V577.9z M466.4,545.4h8.6v17.9h-8.6V545.4z
						 M466.4,512.9h8.6v17.9h-8.6V512.9z M466.4,480.4h8.6v17.9h-8.6V480.4z M466.4,447.9h8.6v17.9h-8.6V447.9z M451.7,610.4h8.6
						v17.9h-8.6V610.4z M451.7,577.9h8.6v17.9h-8.6V577.9z M451.7,545.4h8.6v17.9h-8.6V545.4z M451.7,512.9h8.6v17.9h-8.6V512.9z
						 M451.7,480.4h8.6v17.9h-8.6V480.4z M451.7,447.9h8.6v17.9h-8.6V447.9z M437,610.4h8.6v17.9H437V610.4z M437,577.9h8.6v17.9
						H437V577.9z M437,545.4h8.6v17.9H437V545.4z M437,512.9h8.6v17.9H437V512.9z M437,480.4h8.6v17.9H437V480.4z M437,447.9h8.6
						v17.9H437V447.9z"/>
					<rect x="907.3" y="535.8" fill="#A1B6A9" width="44.6" height="116.8"/>
					<rect x="923.8" y="471.6" fill="#A1B6A9" width="56.4" height="163.7"/>
					<rect x="857.7" y="493.2" fill="#A1B6A9" width="39" height="152.4"/>
					<rect x="806.7" y="500.1" fill="#A1B6A9" width="43.3" height="152.4"/>
					<rect x="849.7" y="535.8" fill="#A1B6A9" width="29.6" height="116.8"/>
					<rect x="238.9" y="495" fill="#A1B6A9" width="39" height="152.4"/>
					<rect x="213.6" y="495" fill="#A1B6A9" width="43.3" height="152.4"/>
					<rect x="188.2" y="449.8" fill="#A1B6A9" width="33" height="197.5"/>
					<rect x="124.5" y="480.9" fill="#A1B6A9" width="70.9" height="158"/>
					<rect x="-14.1" y="480.9" fill="#A1B6A9" width="70.9" height="158"/>
					<rect x="71.2" y="458" fill="#A1B6A9" width="70.9" height="182.1"/>
					<path fill="#B88D8F" d="M195.4,437.9v217.2h70.8V437.9H195.4z M246.6,614.1h7.6V632h-7.6V614.1z M246.6,581.6h7.6v17.9h-7.6
						V581.6z M246.6,549.1h7.6V567h-7.6V549.1z M246.6,516.6h7.6v17.9h-7.6V516.6z M246.6,484.1h7.6V502h-7.6V484.1z M246.6,451.6
						h7.6v17.9h-7.6V451.6z M233.6,614.1h7.6V632h-7.6V614.1z M233.6,581.6h7.6v17.9h-7.6V581.6z M233.6,549.1h7.6V567h-7.6V549.1z
						 M233.6,516.6h7.6v17.9h-7.6V516.6z M233.6,484.1h7.6V502h-7.6V484.1z M233.6,451.6h7.6v17.9h-7.6V451.6z M220.6,614.1h7.6V632
						h-7.6V614.1z M220.6,581.6h7.6v17.9h-7.6V581.6z M220.6,549.1h7.6V567h-7.6V549.1z M220.6,516.6h7.6v17.9h-7.6V516.6z
						 M220.6,484.1h7.6V502h-7.6V484.1z M220.6,451.6h7.6v17.9h-7.6V451.6z M207.7,614.1h7.6V632h-7.6V614.1z M207.7,581.6h7.6v17.9
						h-7.6V581.6z M207.7,549.1h7.6V567h-7.6V549.1z M207.7,516.6h7.6v17.9h-7.6V516.6z M207.7,484.1h7.6V502h-7.6V484.1z
						 M207.7,451.6h7.6v17.9h-7.6V451.6z"/>
					<path fill="#D44F2D" d="M111.6,446.1v204.1h65.1V446.1h-13.2v-34.8h-11.1V394h-16.7v17.3h-11.1v34.8H111.6z M162,592.7h8.3
						v16.9H162V592.7z M162,564.8h8.3v16.9H162V564.8z M162,537h8.3v16.9H162V537z M162,509h8.3v16.9H162V509z M162,481.1h8.3v16.9
						H162V481.1z M162,453.5h8.3v16.9H162V453.5z M147.8,592.7h8.3v16.9h-8.3V592.7z M147.8,564.8h8.3v16.9h-8.3V564.8z M147.8,537
						h8.3v16.9h-8.3V537z M147.8,509h8.3v16.9h-8.3V509z M147.8,481.1h8.3v16.9h-8.3V481.1z M147.8,453.5h8.3v16.9h-8.3V453.5z
						 M147.8,419.8h8.3v16.9h-8.3V419.8z M133.6,592.7h8.3v16.9h-8.3C133.6,609.6,133.6,592.7,133.6,592.7z M133.6,564.8h8.3v16.9
						h-8.3C133.6,581.7,133.6,564.8,133.6,564.8z M133.6,537h8.3v16.9h-8.3C133.6,553.8,133.6,537,133.6,537z M133.6,509h8.3v16.9
						h-8.3C133.6,525.9,133.6,509,133.6,509z M133.6,481.1h8.3v16.9h-8.3C133.6,497.9,133.6,481.1,133.6,481.1z M133.6,453.5h8.3
						v16.9h-8.3C133.6,470.4,133.6,453.5,133.6,453.5z M133.6,419.8h8.3v16.9h-8.3C133.6,436.7,133.6,419.8,133.6,419.8z
						 M119.4,592.7h8.3v16.9h-8.3V592.7z M119.4,564.8h8.3v16.9h-8.3V564.8z M119.4,537h8.3v16.9h-8.3V537z M119.4,509h8.3v16.9
						h-8.3V509z M119.4,481.1h8.3v16.9h-8.3V481.1z M119.4,453.5h8.3v16.9h-8.3V453.5z"/>
					<rect x="861.5" y="487.6" fill="#A1B6A9" width="27.3" height="9.2"/>
					<rect x="874.2" y="472.3" fill="#A1B6A9" width="14.4" height="17.3"/>
					<rect x="876.9" y="461.1" fill="#A1B6A9" width="8.3" height="13.1"/>
					<rect x="707.5" y="437.6" fill="#A1B6A9" width="44.1" height="197.5"/>
					<rect x="993.2" y="451.3" fill="#A1B6A9" width="44.1" height="197.5"/>
					<path fill="#A1B6A9" d="M776.6,432.2"/>
					<path fill="#D44F2D" d="M902.3,465.2v192h31.2h6.9V485.3h31.2v-44.4h-38.1v24.4H902.3z M939.5,468h26.1v9.4h-26.1V468z
						 M939.5,449.1h26.1v9.4h-26.1V449.1z M908.8,617.7h26.1v9.4h-26.1V617.7z M908.8,596.4h26.1v9.4h-26.1V596.4z M908.8,575h26.1
						v9.4h-26.1V575z M908.8,553.7h26.1v9.4h-26.1V553.7z M908.8,532.3h26.1v9.4h-26.1V532.3z M908.8,511h26.1v9.4h-26.1V511z
						 M908.8,489.6h26.1v9.4h-26.1V489.6z"/>
					<path fill="#599D97" d="M943.6,489.6v167.5h54.6V489.6H943.6z M983,625.4h5.8v13.8H983V625.4z M983,600.3h5.8v13.8H983V600.3z
						 M983,575.3h5.8v13.8H983V575.3z M983,550.2h5.8v13.8H983V550.2z M983,525.2h5.8v13.8H983V525.2z M983,500.1h5.8V514H983V500.1
						z M973.1,625.4h5.9v13.8h-5.9V625.4z M973.1,600.3h5.9v13.8h-5.9V600.3z M973.1,575.3h5.9v13.8h-5.9V575.3z M973.1,550.2h5.9
						v13.8h-5.9V550.2z M973.1,525.2h5.9v13.8h-5.9V525.2z M973.1,500.1h5.9V514h-5.9V500.1z M963,625.4h5.8v13.8H963V625.4z
						 M963,600.3h5.8v13.8H963V600.3z M963,575.3h5.8v13.8H963V575.3z M963,550.2h5.8v13.8H963V550.2z M963,525.2h5.8v13.8H963
						V525.2z M963,500.1h5.8V514H963V500.1z M953,625.4h5.8v13.8H953V625.4z M953,600.3h5.8v13.8H953V600.3z M953,575.3h5.8v13.8
						H953V575.3z M953,550.2h5.8v13.8H953V550.2z M953,525.2h5.8v13.8H953V525.2z M953,500.1h5.8V514H953V500.1z"/>
					<path fill="#599D97" d="M33.1,468.4v188.7h61.5V468.4H33.1z M77.4,621.4h6.6V637h-6.6V621.4z M77.4,593.2h6.6v15.6h-6.6V593.2z
						 M77.4,564.9h6.6v15.6h-6.6V564.9z M77.4,536.7h6.6v15.6h-6.6V536.7z M77.4,508.5h6.6v15.6h-6.6V508.5z M77.4,480.3h6.6v15.6
						h-6.6V480.3z M66.1,621.4h6.6V637h-6.6V621.4z M66.1,593.2h6.6v15.6h-6.6V593.2z M66.1,564.9h6.6v15.6h-6.6V564.9z M66.1,536.7
						h6.6v15.6h-6.6V536.7z M66.1,508.5h6.6v15.6h-6.6V508.5z M66.1,480.3h6.6v15.6h-6.6V480.3z M54.9,621.4h6.6V637h-6.6V621.4z
						 M54.9,593.2h6.6v15.6h-6.6V593.2z M54.9,564.9h6.6v15.6h-6.6V564.9z M54.9,536.7h6.6v15.6h-6.6V536.7z M54.9,508.5h6.6v15.6
						h-6.6V508.5z M54.9,480.3h6.6v15.6h-6.6V480.3z M43.7,621.4h6.6V637h-6.6V621.4z M43.7,593.2h6.6v15.6h-6.6V593.2z M43.7,564.9
						h6.6v15.6h-6.6V564.9z M43.7,536.7h6.6v15.6h-6.6V536.7z M43.7,508.5h6.6v15.6h-6.6V508.5z M43.7,480.3h6.6v15.6h-6.6V480.3z"
						/>
					<path fill="#F16B62" d="M1022,512.7v167.5h54.6V512.7H1022z M1061.3,648.4h5.8v13.8h-5.8V648.4z M1061.3,623.4h5.8v13.8h-5.8
						V623.4z M1061.3,598.3h5.8v13.8h-5.8V598.3z M1061.3,573.3h5.8v13.8h-5.8V573.3z M1061.3,548.2h5.8v13.8h-5.8V548.2z
						 M1061.3,523.2h5.8v13.8h-5.8V523.2z M1051.4,648.4h5.9v13.8h-5.9V648.4z M1051.4,623.4h5.9v13.8h-5.9V623.4z M1051.4,598.3
						h5.9v13.8h-5.9V598.3z M1051.4,573.3h5.9v13.8h-5.9V573.3z M1051.4,548.2h5.9v13.8h-5.9V548.2z M1051.4,523.2h5.9v13.8h-5.9
						V523.2z M1041.4,648.4h5.8v13.8h-5.8V648.4z M1041.4,623.4h5.8v13.8h-5.8V623.4z M1041.4,598.3h5.8v13.8h-5.8V598.3z
						 M1041.4,573.3h5.8v13.8h-5.8V573.3z M1041.4,548.2h5.8v13.8h-5.8V548.2z M1041.4,523.2h5.8v13.8h-5.8V523.2z M1031.4,648.4
						h5.8v13.8h-5.8V648.4z M1031.4,623.4h5.8v13.8h-5.8V623.4z M1031.4,598.3h5.8v13.8h-5.8V598.3z M1031.4,573.3h5.8v13.8h-5.8
						V573.3z M1031.4,548.2h5.8v13.8h-5.8V548.2z M1031.4,523.2h5.8v13.8h-5.8V523.2z"/>
					<path fill="#F16B62" d="M718.8,459.2v217.2h79.8V459.2H718.8z M776.4,635.4h8.5v17.9h-8.5V635.4z M776.4,602.9h8.5v17.9h-8.5
						V602.9z M776.4,570.4h8.5v17.9h-8.5V570.4z M776.4,537.9h8.5v17.9h-8.5V537.9z M776.4,505.4h8.5v17.9h-8.5V505.4z M776.4,472.9
						h8.5v17.9h-8.5V472.9z M761.8,635.4h8.5v17.9h-8.5V635.4z M761.8,602.9h8.5v17.9h-8.5V602.9z M761.8,570.4h8.5v17.9h-8.5V570.4
						z M761.8,537.9h8.5v17.9h-8.5V537.9z M761.8,505.4h8.5v17.9h-8.5V505.4z M761.8,472.9h8.5v17.9h-8.5V472.9z M747.1,635.4h8.5
						v17.9h-8.5V635.4z M747.1,602.9h8.5v17.9h-8.5V602.9z M747.1,570.4h8.5v17.9h-8.5V570.4z M747.1,537.9h8.5v17.9h-8.5V537.9z
						 M747.1,505.4h8.5v17.9h-8.5V505.4z M747.1,472.9h8.5v17.9h-8.5V472.9z M732.5,635.4h8.5v17.9h-8.5V635.4z M732.5,602.9h8.5
						v17.9h-8.5V602.9z M732.5,570.4h8.5v17.9h-8.5V570.4z M732.5,537.9h8.5v17.9h-8.5V537.9z M732.5,505.4h8.5v17.9h-8.5V505.4z
						 M732.5,472.9h8.5v17.9h-8.5V472.9z"/>
					<path fill="#599D97" d="M816.8,482.3v167.9h54.7V482.3H816.8z M856.2,618.5h5.9v13.9h-5.9V618.5z M856.2,593.4h5.9v13.9h-5.9
						V593.4z M856.2,568.3h5.9v13.9h-5.9V568.3z M856.2,543.2h5.9v13.9h-5.9V543.2z M856.2,518.1h5.9V532h-5.9V518.1z M856.2,493
						h5.9v13.9h-5.9V493z M846.2,618.5h5.9v13.9h-5.9V618.5z M846.2,593.4h5.9v13.9h-5.9V593.4z M846.2,568.3h5.9v13.9h-5.9V568.3z
						 M846.2,543.2h5.9v13.9h-5.9V543.2z M846.2,518.1h5.9V532h-5.9V518.1z M846.2,493h5.9v13.9h-5.9V493z M836.2,618.5h5.9v13.9
						h-5.9V618.5z M836.2,593.4h5.9v13.9h-5.9V593.4z M836.2,568.3h5.9v13.9h-5.9V568.3z M836.2,543.2h5.9v13.9h-5.9V543.2z
						 M836.2,518.1h5.9V532h-5.9V518.1z M836.2,493h5.9v13.9h-5.9V493z M826.1,618.5h5.9v13.9h-5.9V618.5z M826.1,593.4h5.9v13.9
						h-5.9V593.4z M826.1,568.3h5.9v13.9h-5.9V568.3z M826.1,543.2h5.9v13.9h-5.9V543.2z M826.1,518.1h5.9V532h-5.9V518.1z
						 M826.1,493h5.9v13.9h-5.9V493z"/>
					<rect x="628.8" y="457.3" fill="#A1B6A9" width="44.2" height="177.9"/>
					<path fill="#B88D8F" d="M630.8,459.1v183.2h50.1V459.1h-10.1v-31.2h-8.5v-15.5h-12.8v15.5h-8.5v31.2H630.8z M669.6,590.6h6.4
						v15.2h-6.4V590.6z M669.6,565.6h6.4v15.2h-6.4V565.6z M669.6,540.5h6.4v15.2h-6.4V540.5z M669.6,515.4h6.4v15.2h-6.4V515.4z
						 M669.6,490.4h6.4v15.2h-6.4V490.4z M669.6,465.8h6.4v15.2h-6.4V465.8z M658.7,590.6h6.4v15.2h-6.4V590.6z M658.7,565.6h6.4
						v15.2h-6.4V565.6z M658.7,540.5h6.4v15.2h-6.4V540.5z M658.7,515.4h6.4v15.2h-6.4V515.4z M658.7,490.4h6.4v15.2h-6.4V490.4z
						 M658.7,465.8h6.4v15.2h-6.4V465.8z M658.7,435.4h6.4v15.2h-6.4V435.4z M647.8,590.6h6.4v15.2h-6.4V590.6z M647.8,565.6h6.4
						v15.2h-6.4V565.6z M647.8,540.5h6.4v15.2h-6.4V540.5z M647.8,515.4h6.4v15.2h-6.4V515.4z M647.8,490.4h6.4v15.2h-6.4V490.4z
						 M647.8,465.8h6.4v15.2h-6.4V465.8z M647.8,435.4h6.4v15.2h-6.4V435.4z M636.8,590.6h6.4v15.2h-6.4V590.6z M636.8,565.6h6.4
						v15.2h-6.4V565.6z M636.8,540.5h6.4v15.2h-6.4V540.5z M636.8,515.4h6.4v15.2h-6.4V515.4z M636.8,490.4h6.4v15.2h-6.4V490.4z
						 M636.8,465.8h6.4v15.2h-6.4V465.8z"/>
					<rect x="333.9" y="541.8" fill="#A1B6A9" width="44.6" height="102.6"/>
					<rect x="305.5" y="478.7" fill="#A1B6A9" width="56.4" height="163.7"/>
					<rect x="375.8" y="504.4" fill="#A1B6A9" width="39" height="134.1"/>
					<rect x="383.7" y="498.1" fill="#A1B6A9" width="27.3" height="9.2"/>
					<rect x="383.8" y="482.8" fill="#A1B6A9" width="14.4" height="17.3"/>
					<rect x="387.3" y="471.7" fill="#A1B6A9" width="8.3" height="13.1"/>
					<path fill="#599D97" d="M282,497.7v167.5h54.6V497.7H282z M321.5,633.6h5.8v13.8h-5.8V633.6z M321.5,608.5h5.8v13.9h-5.8V608.5
						z M321.5,583.5h5.8v13.8h-5.8V583.5z M321.5,558.4h5.8v13.8h-5.8V558.4z M321.5,533.4h5.8v13.8h-5.8V533.4z M321.5,508.3h5.8
						v13.8h-5.8V508.3z M311.4,633.6h5.9v13.8h-5.9V633.6z M311.4,608.5h5.9v13.9h-5.9V608.5z M311.4,583.5h5.9v13.8h-5.9V583.5z
						 M311.4,558.4h5.9v13.8h-5.9V558.4z M311.4,533.4h5.9v13.8h-5.9V533.4z M311.4,508.3h5.9v13.8h-5.9V508.3z M301.4,633.6h5.8
						v13.8h-5.8V633.6z M301.4,608.5h5.8v13.9h-5.8V608.5z M301.4,583.5h5.8v13.8h-5.8V583.5z M301.4,558.4h5.8v13.8h-5.8V558.4z
						 M301.4,533.4h5.8v13.8h-5.8V533.4z M301.4,508.3h5.8v13.8h-5.8V508.3z M291.4,633.6h5.8v13.8h-5.8V633.6z M291.4,608.5h5.8
						v13.9h-5.8V608.5z M291.4,583.5h5.8v13.8h-5.8V583.5z M291.4,558.4h5.8v13.8h-5.8V558.4z M291.4,533.4h5.8v13.8h-5.8V533.4z
						 M291.4,508.3h5.8v13.8h-5.8V508.3z"/>
					<path fill="#D44F2D" d="M352.3,472.5v-24.4h-38.1v44.4h31.2v171.9h6.9h31.2v-192L352.3,472.5L352.3,472.5z M346.3,484.6h-26.1
						v-9.4h26.1V484.6z M346.3,465.8h-26.1v-9.4h26.1V465.8z M376.9,634.4h-26.1V625h26.1V634.4z M376.9,613.1h-26.1v-9.4h26.1
						V613.1z M376.9,591.7h-26.1v-9.4h26.1V591.7z M376.9,570.4h-26.1V561h26.1V570.4z M376.9,549h-26.1v-9.4h26.1V549z
						 M376.9,527.7h-26.1v-9.4h26.1V527.7z M376.9,506.3h-26.1v-9.4h26.1V506.3z"/>
					<g>
						<polyline fill="#A1B6A9" points="0,964.2 0,821.2 1084.1,821.2 1084.1,964.2 						"/>
					</g>
					<g>
						<rect x="931" y="561.9" fill="#70575A" width="6.6" height="59.7"/>
						<path fill="#8AA83D" d="M934.3,509c10,0,18.1,8.1,18.1,18.1c0,1.2-0.1,2.3-0.3,3.4c1.1,2.3,1.6,5,1.6,7.7
							c0,3.2-0.7,6.2-2.1,8.9c1.9,2.7,3,5.9,3,9.4c0,2.5-0.6,5.1-1.7,7.3c0.6,1.9,0.9,3.8,0.9,5.9c0,10.8-8.8,19.4-19.4,19.4"/>
					</g>
					<g>
						<rect x="704.9" y="580.2" fill="#70575A" width="5.7" height="51.4"/>
						<path fill="#A3CD39" d="M694.5,590.4c-0.3-1.3-0.5-2.5-0.5-3.8c0-2.2,0.5-4.3,1.5-6.2c-1.4-2.2-2.2-4.9-2.2-7.7
							c0-3.7,1.4-7,3.6-9.6c-0.3-1.1-0.5-2.1-0.5-3.3c0-6.3,5.2-11.5,11.5-11.5s11.5,5.2,11.5,11.5c0,1.2-0.2,2.2-0.5,3.3
							c2.2,2.5,3.6,5.9,3.6,9.6c0,2.8-0.8,5.5-2.2,7.7c0.9,1.9,1.5,4,1.5,6.2c0,1.4-0.2,2.6-0.5,3.8c0.8,1.9,1.4,4,1.4,6.2
							c0,8.1-6.6,14.8-14.8,14.8s-14.8-6.6-14.8-14.8C693.1,594.4,693.6,592.3,694.5,590.4z"/>
						<path fill="#8AA83D" d="M707.8,548.3c6.3,0,11.5,5.2,11.5,11.5c0,1.2-0.2,2.2-0.5,3.3c2.2,2.5,3.6,5.9,3.6,9.6
							c0,2.8-0.8,5.5-2.2,7.7c0.9,1.9,1.5,4,1.5,6.2c0,1.4-0.2,2.6-0.5,3.8c0.8,1.9,1.4,4,1.4,6.2c0,8.1-6.6,14.8-14.8,14.8"/>
					</g>
					<g>
						<rect x="256.7" y="557.9" fill="#70575A" width="7.3" height="65"/>
						<path fill="#A3CD39" d="M243.4,570.8c-0.4-1.6-0.7-3.2-0.7-4.9c0-2.8,0.6-5.5,1.9-7.8c-1.8-2.8-2.7-6.1-2.7-9.7
							c0-4.6,1.7-8.9,4.5-12.1c-0.4-1.3-0.6-2.6-0.6-4.1c0-8,6.5-14.6,14.6-14.6s14.6,6.5,14.6,14.6c0,1.5-0.2,2.8-0.6,4.1
							c2.8,3.3,4.5,7.5,4.5,12.1c0,3.6-1.1,6.9-2.7,9.7c1.2,2.3,1.9,5.1,1.9,7.8c0,1.7-0.2,3.3-0.7,4.9c1.2,2.4,1.8,5.1,1.8,7.9
							c0,10.3-8.3,18.7-18.7,18.7s-18.7-8.3-18.7-18.7C241.7,575.9,242.4,573.2,243.4,570.8z"/>
						<path fill="#8AA83D" d="M260.3,517.7c8,0,14.6,6.5,14.6,14.6c0,1.5-0.2,2.8-0.6,4.1c2.8,3.3,4.5,7.5,4.5,12.1
							c0,3.6-1.1,6.9-2.7,9.7c1.2,2.3,1.9,5.1,1.9,7.8c0,1.7-0.2,3.3-0.7,4.9c1.2,2.4,1.8,5.1,1.8,7.9c0,10.3-8.3,18.7-18.7,18.7"/>
					</g>
					<g>
						<rect x="432" y="538.2" fill="#70575A" width="10" height="89.5"/>
						<path fill="#A3CD39" d="M416.1,559.2c0-3.6,1.1-7,2.7-9.9c-2.1-3.2-3.4-7-3.4-11.1c0-4.2,1.3-8,3.6-11.3
							c-0.5-1.7-0.8-3.6-0.8-5.5c0-2.1,0.4-4.1,1.1-5.9c-2.1-3.2-3.3-6.9-3.3-10.9c0-11.2,9.5-20.1,21.1-20.1s21.1,9.1,21.1,20.1
							c0,4-1.3,7.7-3.3,10.9c0.6,1.9,1.1,3.9,1.1,5.9c0,1.9-0.3,3.8-0.8,5.5c2.2,3.3,3.6,7.2,3.6,11.3s-1.3,7.9-3.4,11.1
							c1.8,3,2.7,6.3,2.7,9.9c0,2.1-0.3,4.2-1.1,6.1c0.7,2,1.1,4.1,1.1,6.4c0,11.1-9.4,20-21,20s-21-9-21-20c0-2.2,0.4-4.4,1.1-6.4
							C416.4,563.4,416.1,561.4,416.1,559.2z"/>
						<path fill="#8AA83D" d="M437,484.4c11.7,0,21.1,9.1,21.1,20.1c0,4-1.3,7.7-3.3,10.9c0.6,1.9,1.1,3.9,1.1,5.9
							c0,1.9-0.3,3.8-0.8,5.5c2.2,3.3,3.6,7.2,3.6,11.3s-1.3,7.9-3.4,11.1c1.8,3,2.7,6.3,2.7,9.9c0,2.1-0.3,4.2-1.1,6.1
							c0.7,2,1.1,4.1,1.1,6.4c0,11.1-9.4,20-21,20"/>
					</g>
					
						<line fill="none" stroke="#425553" stroke-width="204.1889" stroke-linejoin="round" stroke-miterlimit="10" x1="-8.4" y1="728.1" x2="1078" y2="728.1"/>
					<path fill="none" stroke="#676767" stroke-width="4.7121" stroke-linecap="round" stroke-miterlimit="10" d="M-7.8,711
						c-8.9,0,216.1,0,217.7,0c4.4,0,8.9,0,13.3,0c7.1,0,14,0,21.1,0c9.3,0,18.6,0,27.8,0c11.3,0,22.6,0,33.9,0c13.1,0,26.2,0,39.2,0
						c14.3,0,28.7,0,43,0c15.6,0,31.3,0,46.9,0c16.5,0,32.8,0,49.3,0c16.9,0,33.7,0,50.7,0c17.4,0,34.8,0,52.2,0c17,0,33.9,0,50.8,0
						c17.2,0,34.4,0,51.6,0c16,0,32.2,0,48.2,0c15.4,0,110.1,0,117.9,0.1"/>
					<path fill="none" stroke="#676767" stroke-width="4.7121" stroke-linecap="round" stroke-miterlimit="10" d="M-8.4,719.8
						c1.5,0,207.1,0,208.7,0c4.4,0,8.9,0,13.3,0c7.1,0,14,0,21.1,0c9.3,0,18.6,0,27.8,0c11.3,0,22.6,0,33.9,0c13.1,0,26.2,0,39.2,0
						c14.3,0,28.7,0,43,0c15.6,0,31.3,0,46.9,0c16.5,0,32.8,0,49.3,0c16.9,0,33.8,0,50.7,0c17.4,0,34.8,0,52.2,0c17,0,33.9,0,50.8,0
						c17.2,0,34.4,0,51.6,0c16,0,32.2,0,48.2,0c15.4,0,30.9,0,46.3,0c14.4,0,84.1,0,98.5,0"/>
					<g>
						<path fill="#D44F2D" d="M268.3,590.5c3.6-3.2,7.8-5.7,13-7c9.6-2.4,20.1-2.5,30.1-2.2c18.1,0.5,36.5,3.6,52.9,11.6
							c4.1,2,8.2,4.5,11.8,7.4c0,0,30.1,23.6,29,58.5c0,0,0.5,9-8.1,9H207.9c0,0-8.5,1.2-10.5-5.4c-2.7-8.9-0.3-23.2,6.1-30.2
							c8.8-9.5,22.1-8.4,33.6-11.7C252.5,616.2,257.1,600.4,268.3,590.5z"/>
						<path fill="#D9EDE2" d="M239.5,627.6c5.1-1.1,7.6-2.2,12.1-4.5c14-7.3,11.7-17.2,21.9-26.4c3.3-3,7.2-5.3,12-6.4
							c3.4-0.8,6.9-1.4,10.4-1.7v39H239.5z"/>
						<path fill="#D9EDE2" d="M382.9,627.6c-7.4-19.8-13.8-22.3-13.8-22.3c-3.4-2.6-7.1-5-11-6.9c-15.2-7.5-32.3-10.2-49-10.8
							c-1.2,0-2.3-0.1-3.5-0.1v40H382.9z"/>
						<circle fill="#B7CBBF" cx="246.3" cy="667.9" r="21.2"/>
						<circle fill="#B88D8F" cx="246.3" cy="667.9" r="12.8"/>
						<circle fill="#B7CBBF" cx="371.6" cy="667.9" r="21.2"/>
						<circle fill="#B88D8F" cx="371.6" cy="667.9" r="12.8"/>
						<path fill="#E36850" d="M207.1,656.4c0,1.4-0.7,2.5-1.6,2.5h-10.1c-0.8,0-1.6-1.2-1.6-2.5v-15.6c0-1.4,0.7-2.5,1.6-2.5h10.1
							c0.8,0,1.6,1.2,1.6,2.5V656.4z"/>
					</g>
					<g>
						<g>
							
								<circle fill="none" stroke="#B7CBBF" stroke-width="1.9903" stroke-linecap="round" stroke-linejoin="round" stroke-miterlimit="10" cx="732.6" cy="767.3" r="7.9"/>
							
								<circle fill="none" stroke="#B7CBBF" stroke-width="4.7121" stroke-linecap="round" stroke-linejoin="round" stroke-miterlimit="10" cx="732.6" cy="767.3" r="30.2"/>
							
								<line fill="none" stroke="#6EC8C4" stroke-width="3.3171" stroke-linecap="round" stroke-linejoin="round" stroke-miterlimit="10" x1="732.4" y1="768" x2="717.7" y2="712.3"/>
							
								<path fill="none" stroke="#B7CBBF" stroke-width="4.7121" stroke-linecap="round" stroke-linejoin="round" stroke-miterlimit="10" d="
								M639.1,737.1c-16.7,0-30.2,13.5-30.2,30.2c0,16.7,13.5,30.2,30.2,30.2s30.2-13.5,30.2-30.2
								C669.2,750.6,655.7,737.1,639.1,737.1z"/>
							
								<polygon fill="none" stroke="#6EC8C4" stroke-width="3.3171" stroke-linecap="round" stroke-linejoin="round" stroke-miterlimit="10" points="
								665.5,722.3 720.4,722.3 681.2,767 							"/>
							
								<polyline fill="none" stroke="#6EC8C4" stroke-width="3.3171" stroke-linecap="round" stroke-linejoin="round" stroke-miterlimit="10" points="
								665.5,722.3 637.2,768 681.2,767 							"/>
							
								<circle fill="none" stroke="#B7CBBF" stroke-width="1.9903" stroke-linecap="round" stroke-linejoin="round" stroke-miterlimit="10" cx="682.1" cy="766.5" r="10.4"/>
							
								<path fill="none" stroke="#B7CBBF" stroke-width="1.9903" stroke-linecap="round" stroke-linejoin="round" stroke-miterlimit="10" d="
								M638.5,773.9c-3.6-0.1-6.3-3.2-6.2-6.8c0.1-3.6,3.2-6.3,6.8-6.2"/>
							
								<line fill="none" stroke="#B7CBBF" stroke-width="1.9903" stroke-linecap="round" stroke-linejoin="round" stroke-miterlimit="10" x1="639.1" y1="760.9" x2="681.2" y2="756.2"/>
							
								<line fill="none" stroke="#B7CBBF" stroke-width="1.9903" stroke-linecap="round" stroke-linejoin="round" stroke-miterlimit="10" x1="638.5" y1="773.9" x2="681.4" y2="777"/>
							
								<line fill="none" stroke="#6EC8C4" stroke-width="3.3171" stroke-linecap="round" stroke-linejoin="round" stroke-miterlimit="10" x1="673.3" y1="744.6" x2="662.1" y2="712.8"/>
							<path fill="none" stroke="#D96547" stroke-width="3.3171" stroke-miterlimit="10" d="M717.7,712.3l-1.8-6.8h17.5
								c0,0,4.5,0.4,4.5,6.2c0,0,0.4,6.2-7.6,6.4"/>
						</g>
						<path fill="#F6E0D2" d="M694.3,689c3,0,5.6-1.1,7.7-3.3c2.1-2.2,3.2-4.9,3.2-7.8s-1.1-5.6-3.2-7.8s-4.6-3.3-7.7-3.3
							c-3.1,0-5.6,1.1-7.7,3.3c-2.1,2.2-3.2,4.9-3.2,7.8s1.1,5.6,3.2,7.8C688.7,688,691.2,689,694.3,689z"/>
						<path fill="#D96345" d="M649.2,715.3c0,3.6,1.5,6.3,4.5,8.1l23.4,13.2v24.9c0,1.8,0.5,3.3,1.7,4.5c1.1,1.2,2.5,1.8,4.3,1.8
							c1.8,0,3.3-0.6,4.3-1.8c1.1-1.2,1.7-2.7,1.7-4.5c0-5.3-0.1-10.5,0-15.8c0-3.6-0.1-7.2,0-10.8c0.1-4.9,0.5-9.7-4.4-12.1
							l-13.5-7.2"/>
						<path fill="#F79921" d="M698,703.8l-9.9-16.3c0,0-0.8-1.2-0.9-1.2c-2.8-3.9-9.1-4-12.7-0.9c-1.4,1.2-2.4,2.6-3.7,3.9
							c-5.3,5.1-10.1,10.5-15.3,15.7c-1.5,1.5-2.8,3-4.3,4.4c-1.4,1.6-2.1,3.6-2.1,6l21.9,0.3l14.7-14.4l5.7,9.2L698,703.8z"/>
						<path fill="#F6E0D2" d="M691.5,710.3l1.2,1.9c1.2,2,2.7,3,4.5,3H717c1.8,0,3.1-0.7,3.9-2.2c0.8-1.5,0.8-3,0-4.5
							s-2.1-2.2-3.9-2.2h-17.4l-1.5-2.5"/>
						<path fill="#D96345" d="M706.2,671.6c-0.7-3.6-2.6-6.4-5.6-8.6c-3.1-2.1-6.3-2.8-9.9-2.1c-3.6,0.7-6.4,2.6-8.4,5.8
							c-2,3.2-2.6,6.5-1.9,10.1"/>
						<path fill="none" stroke="#AEABB3" stroke-width="1.9903" stroke-miterlimit="10" d="M691.5,674.2c0,0,2.2,13.4,7.6,12.6"/>
					</g>
					
						<line fill="none" stroke="#425553" stroke-width="204.1889" stroke-linejoin="round" stroke-miterlimit="10" x1="1027.2" y1="30.7" x2="1027.2" y2="826.3"/>
					<path fill="none" stroke="#676767" stroke-width="4.7121" stroke-miterlimit="10" d="M1031.6,54.5c0-8.9,0,487.9,0,503.9"/>
					<path fill="none" stroke="#676767" stroke-width="4.7121" stroke-miterlimit="10" d="M1022.7,53.9c0,1.5,0,488.4,0,504.5"/>
					
						<line fill="none" stroke="#676767" stroke-width="36.2597" stroke-miterlimit="10" x1="857.1" y1="620.6" x2="857.1" y2="830.1"/>
					
						<line fill="none" stroke="#676767" stroke-width="36.2597" stroke-miterlimit="10" x1="1135.1" y1="558.6" x2="919.6" y2="558.6"/>
					<g>
						<path fill="#BFD1C6" d="M899.9,709.2c0,1.8-1.5,3.3-3.3,3.2l0,0c-1.8,0-3.3-1.5-3.2-3.3l0.1-28.5c0-1.8,1.5-3.3,3.3-3.2l0,0
							c1.8,0,3.3,1.5,3.2,3.3L899.9,709.2z"/>
						<path fill="#BFD1C6" d="M909.4,709.3c0,1.8-1.5,3.3-3.3,3.2l0,0c-1.8,0-3.3-1.5-3.2-3.3l0.1-28.5c0-1.8,1.5-3.3,3.3-3.2l0,0
							c1.8,0,3.3,1.5,3.2,3.3L909.4,709.3z"/>
						<path fill="#020102" d="M871.5,608c0-0.1-0.1-0.1-0.1-0.2l3.4,8C873.4,612.4,872.2,609.4,871.5,608z"/>
						<path fill="#F6E0D2" d="M901.4,659.1c4,0,7.4-3.3,7.4-7.3c0-4-3.3-7.4-7.3-7.4c-4.1,0-7.4,3.3-7.4,7.3
							C894.2,655.8,897.4,659.1,901.4,659.1z"/>
						<g>
							<path fill="#020102" d="M846.4,712.2C846.4,712.2,846.5,712.2,846.4,712.2C846.5,712.2,846.4,712.2,846.4,712.2L846.4,712.2z
								"/>
							<path fill="#F6E0D2" d="M875.8,617.8c3.5,8.9,7.4,17.6,11.1,26.4c1.1,2.4-0.1,5.2-2.5,6.2c-0.7,0.3-1.6,0.4-2.4,0.3
								c-1.3-0.1-2.3-0.7-3.2-1.8c-0.3-0.3-0.5-0.7-0.7-1.2l-8.9-21.2"/>
							<path fill="#F6E0D2" d="M838.4,625.4l-11,26.6c-1.1,2.4-3.8,3.6-6.2,2.5s-3.6-3.8-2.5-6.2l8.5-20.7c1.6-4,3.2-8.1,4.5-11.6"
								/>
							<path fill="#F6E0D2" d="M854.5,665l0.8,14.6l-0.1,26.5c0,1.8,0.8,3.5,2.1,4.5c0.8,0.6,1.8,1.2,3,1.3c0.2,0,0.5,0.1,0.7,0.1
								c3.3,0,5.9-2.6,5.9-5.9l0.1-41"/>
							<line fill="none" x1="852.4" y1="665.4" x2="854.5" y2="665.4"/>
							<path fill="#F6E0D2" d="M840.6,665l-0.1,41c0,3.3,2.6,5.9,5.9,5.9l0,0h0.1c3.2-0.1,5.8-2.6,5.8-5.8l0.1-41"/>
							<path fill="#5CC3BD" d="M867.1,665.4h5.8l-7.6-47.9l4,9.5l6.6-8.9c-0.9-2.4-1.9-5-2.7-7.5c-1.3-3.5-2.7-7.5-5.9-9.7
								c-4.7-3.4-11.5-3-17-2.6c-7.2,0.3-11.8,3.2-15,9.5c-0.7,1.5-2.1,4.7-3.7,8.6l6.8,9.3l3.1-7.3l-7.8,46.8h7.1"/>
							<path fill="#F6E0D2" d="M853.5,598.8c6.6,0,12-5.3,12-11.9c0-6.6-5.3-11.9-11.9-12c-6.6,0-12,5.3-12,11.9
								S846.8,598.8,853.5,598.8z"/>
						</g>
						<path fill="#5CC3BD" d="M893.4,687.5l0.1-20.1c0-4.3,3.6-7.8,8-7.8l0,0c4.4,0,8,3.6,7.9,7.9l-0.1,20.1"/>
						<path fill="#5CC3BD" d="M911.2,675.5l-5.7-9.1c-0.7-1.2-0.5-2.5,0.4-3.2l0,0c0.9-0.6,2.3-0.2,3.1,0.9l5.2,8.3"/>
						<path fill="#F6E0D2" d="M914.3,672.5l6.1,9.8c0.7,1.2,0.5,2.5-0.4,3.2l0,0c-0.9,0.6-2.3,0.2-3.1-0.9l-5.6-9"/>
						<path fill="#F6E0D2" d="M889.6,663.7l-5.2-9.5c-0.6-1.2-0.3-2.5,0.6-3.1l0,0c0.9-0.5,2.3,0,3,1.2l4.5,8.4"/>
						<path fill="#5CC3BD" d="M892.6,660.8l5.6,10.2c0.6,1.2,0.3,2.5-0.6,3.1l0,0c-0.9,0.5-2.3,0-3-1.2l-5.1-9.2"/>
						<path fill="#F6E0D2" d="M844.9,599.2c0,0,8.2,8.6,17.4-0.3C862.3,598.9,855.5,596.5,844.9,599.2z"/>
					</g>
				</g>
			</g>
		</g>
	</g>
</g>
<g>
	<rect x="743" y="540" fill="#70575A" width="10" height="86.5"/>
	<path fill="#A3CD39" d="M727.1,561c0-3.6,1.1-7,2.7-9.9c-2.1-3.2-3.4-7-3.4-11.1c0-4.2,1.3-8,3.6-11.3c-0.5-1.7-0.8-3.6-0.8-5.5
		c0-2.1,0.4-4.1,1.1-5.9c-2.1-3.2-3.3-6.9-3.3-10.9c0-11.2,9.5-20.1,21.1-20.1s21.1,9.1,21.1,20.1c0,4-1.3,7.7-3.3,10.9
		c0.6,1.9,1.1,3.9,1.1,5.9c0,1.9-0.3,3.8-0.8,5.5c2.2,3.3,3.6,7.2,3.6,11.3s-1.3,7.9-3.4,11.1c1.8,3,2.7,6.3,2.7,9.9
		c0,2.1-0.3,4.2-1.1,6.1c0.7,2,1.1,4.1,1.1,6.4c0,11.1-9.4,20-21,20s-21-9-21-20c0-2.2,0.4-4.4,1.1-6.4
		C727.4,565.2,727.1,563.2,727.1,561z"/>
	<path fill="#8AA83D" d="M748,486.2c11.7,0,21.1,9.1,21.1,20.1c0,4-1.3,7.7-3.3,10.9c0.6,1.9,1.1,3.9,1.1,5.9c0,1.9-0.3,3.8-0.8,5.5
		c2.2,3.3,3.6,7.2,3.6,11.3c0,4.1-1.3,7.9-3.4,11.1c1.8,3,2.7,6.3,2.7,9.9c0,2.1-0.3,4.2-1.1,6.1c0.7,2,1.1,4.1,1.1,6.4
		c0,11.1-9.4,20-21,20"/>
</g>
</svg>
