<?xml version="1.0" encoding="utf-8"?>
<!-- Generator: Adobe Illustrator 18.1.1, SVG Export Plug-In . SVG Version: 6.00 Build 0)  -->
<svg version="1.1" id="Layer_1" xmlns="http://www.w3.org/2000/svg" xmlns:xlink="http://www.w3.org/1999/xlink" x="0px" y="0px"
	 viewBox="0 0 1080 1080" enable-background="new 0 0 1080 1080" xml:space="preserve">
<g>
	
		<image overflow="visible" opacity="0.2" enable-background="new    " width="1072" height="914" xlink:href="715C0A6D5E36B110.png"  transform="matrix(1.0547 0 0 1.0547 -16.875 94.9219)">
	</image>
	<g>
		<g>
			<g>
				<defs>
					<rect id="SVGID_1_" x="-7.8" y="73.4" width="1095.7" height="903.3"/>
				</defs>
				<clipPath id="SVGID_2_">
					<use xlink:href="#SVGID_1_"  overflow="visible"/>
				</clipPath>
				<rect x="2.7" y="95.5" clip-path="url(#SVGID_2_)" fill="#D9EDE2" width="1085.2" height="796.4"/>
			</g>
			<g>
				<defs>
					<rect id="SVGID_3_" x="-7.8" y="73.4" width="1095.7" height="903.3"/>
				</defs>
				<clipPath id="SVGID_4_">
					<use xlink:href="#SVGID_3_"  overflow="visible"/>
				</clipPath>
				<polygon clip-path="url(#SVGID_4_)" fill="#A1B6A9" points="607.7,560.1 629.1,560.1 625.4,539.1 610.9,539.1 				"/>
			</g>
			<g>
				<defs>
					<rect id="SVGID_5_" x="-7.8" y="73.4" width="1095.7" height="903.3"/>
				</defs>
				<clipPath id="SVGID_6_">
					<use xlink:href="#SVGID_5_"  overflow="visible"/>
				</clipPath>
				<polygon clip-path="url(#SVGID_6_)" fill="#A1B6A9" points="616.7,495.4 616.7,495.4 620.1,544 614.1,544 				"/>
			</g>
			<g>
				<defs>
					<rect id="SVGID_7_" x="-7.8" y="73.4" width="1095.7" height="903.3"/>
				</defs>
				<clipPath id="SVGID_8_">
					<use xlink:href="#SVGID_7_"  overflow="visible"/>
				</clipPath>
				<rect x="627.6" y="495" clip-path="url(#SVGID_8_)" fill="#A1B6A9" width="43" height="152.4"/>
			</g>
			<g>
				<defs>
					<rect id="SVGID_9_" x="-7.8" y="73.4" width="1095.7" height="903.3"/>
				</defs>
				<clipPath id="SVGID_10_">
					<use xlink:href="#SVGID_9_"  overflow="visible"/>
				</clipPath>
				<rect x="601.6" y="539.1" clip-path="url(#SVGID_10_)" fill="#A1B6A9" width="34.7" height="129.9"/>
			</g>
			<g>
				<defs>
					<rect id="SVGID_11_" x="-7.8" y="73.4" width="1095.7" height="903.3"/>
				</defs>
				<clipPath id="SVGID_12_">
					<use xlink:href="#SVGID_11_"  overflow="visible"/>
				</clipPath>
				<rect x="535.6" y="507" clip-path="url(#SVGID_12_)" fill="#A1B6A9" width="56.4" height="163.7"/>
			</g>
			<g>
				<defs>
					<rect id="SVGID_13_" x="-7.8" y="73.4" width="1095.7" height="903.3"/>
				</defs>
				<clipPath id="SVGID_14_">
					<use xlink:href="#SVGID_13_"  overflow="visible"/>
				</clipPath>
				<path clip-path="url(#SVGID_14_)" fill="#B88D8F" d="M514.1,500.7v192h31.2h6.9V520.8h31.2v-44.5h-38.1v24.4h-31.2V500.7z
					 M551.3,503.5h26.1v9.4h-26.1V503.5z M551.3,484.6h26.1v9.4h-26.1V484.6z M520.6,653.2h26.1v9.4h-26.1V653.2L520.6,653.2z
					 M520.6,631.9h26.1v9.4h-26.1V631.9L520.6,631.9z M520.6,610.5h26.1v9.4h-26.1V610.5L520.6,610.5z M520.6,589.2h26.1v9.4h-26.1
					V589.2L520.6,589.2z M520.6,567.8h26.1v9.4h-26.1V567.8L520.6,567.8z M520.6,546.5h26.1v9.4h-26.1V546.5L520.6,546.5z
					 M520.6,525.1h26.1v9.4h-26.1V525.1L520.6,525.1z"/>
			</g>
			<g>
				<defs>
					<rect id="SVGID_15_" x="-7.8" y="73.4" width="1095.7" height="903.3"/>
				</defs>
				<clipPath id="SVGID_16_">
					<use xlink:href="#SVGID_15_"  overflow="visible"/>
				</clipPath>
				<path clip-path="url(#SVGID_16_)" fill="#599D97" d="M555.4,506.1v167.5H610V506.1H555.4z M594.7,641.8h5.8v13.8h-5.8V641.8z
					 M594.7,616.8h5.8v13.8h-5.8V616.8z M594.7,591.7h5.8v13.8h-5.8V591.7z M594.7,566.7h5.8v13.8h-5.8V566.7z M594.7,541.6h5.8
					v13.8h-5.8V541.6z M594.7,516.6h5.8v13.8h-5.8V516.6z M584.7,641.8h5.9v13.8h-5.9V641.8z M584.7,616.8h5.9v13.8h-5.9V616.8z
					 M584.7,591.7h5.9v13.8h-5.9V591.7z M584.7,566.7h5.9v13.8h-5.9V566.7z M584.7,541.6h5.9v13.8h-5.9V541.6z M584.7,516.6h5.9
					v13.8h-5.9V516.6z M574.7,641.8h5.8v13.8h-5.8V641.8z M574.7,616.8h5.8v13.8h-5.8V616.8z M574.7,591.7h5.8v13.8h-5.8V591.7z
					 M574.7,566.7h5.8v13.8h-5.8V566.7z M574.7,541.6h5.8v13.8h-5.8V541.6z M574.7,516.6h5.8v13.8h-5.8V516.6z M564.8,641.8h5.8
					v13.8h-5.8V641.8z M564.8,616.8h5.8v13.8h-5.8V616.8z M564.8,591.7h5.8v13.8h-5.8V591.7z M564.8,566.7h5.8v13.8h-5.8V566.7z
					 M564.8,541.6h5.8v13.8h-5.8V541.6z M564.8,516.6h5.8v13.8h-5.8V516.6z"/>
			</g>
			<g>
				<defs>
					<rect id="SVGID_17_" x="-7.8" y="73.4" width="1095.7" height="903.3"/>
				</defs>
				<clipPath id="SVGID_18_">
					<use xlink:href="#SVGID_17_"  overflow="visible"/>
				</clipPath>
				<rect x="909.5" y="562.7" clip-path="url(#SVGID_18_)" fill="#A1B6A9" width="44.6" height="116.8"/>
			</g>
			<g>
				<defs>
					<rect id="SVGID_19_" x="-7.8" y="73.4" width="1095.7" height="903.3"/>
				</defs>
				<clipPath id="SVGID_20_">
					<use xlink:href="#SVGID_19_"  overflow="visible"/>
				</clipPath>
				<rect x="926" y="498.5" clip-path="url(#SVGID_20_)" fill="#A1B6A9" width="56.4" height="163.7"/>
			</g>
			<g>
				<defs>
					<rect id="SVGID_21_" x="-7.8" y="73.4" width="1095.7" height="903.3"/>
				</defs>
				<clipPath id="SVGID_22_">
					<use xlink:href="#SVGID_21_"  overflow="visible"/>
				</clipPath>
				<rect x="859.9" y="520.1" clip-path="url(#SVGID_22_)" fill="#A1B6A9" width="39" height="152.4"/>
			</g>
			<g>
				<defs>
					<rect id="SVGID_23_" x="-7.8" y="73.4" width="1095.7" height="903.3"/>
				</defs>
				<clipPath id="SVGID_24_">
					<use xlink:href="#SVGID_23_"  overflow="visible"/>
				</clipPath>
				<rect x="808.9" y="527.1" clip-path="url(#SVGID_24_)" fill="#A1B6A9" width="43.3" height="152.4"/>
			</g>
			<g>
				<defs>
					<rect id="SVGID_25_" x="-7.8" y="73.4" width="1095.7" height="903.3"/>
				</defs>
				<clipPath id="SVGID_26_">
					<use xlink:href="#SVGID_25_"  overflow="visible"/>
				</clipPath>
				<rect x="851.9" y="562.7" clip-path="url(#SVGID_26_)" fill="#A1B6A9" width="29.6" height="116.8"/>
			</g>
			<g>
				<defs>
					<rect id="SVGID_27_" x="-7.8" y="73.4" width="1095.7" height="903.3"/>
				</defs>
				<clipPath id="SVGID_28_">
					<use xlink:href="#SVGID_27_"  overflow="visible"/>
				</clipPath>
				<rect x="863.7" y="514.6" clip-path="url(#SVGID_28_)" fill="#A1B6A9" width="27.3" height="9.2"/>
			</g>
			<g>
				<defs>
					<rect id="SVGID_29_" x="-7.8" y="73.4" width="1095.7" height="903.3"/>
				</defs>
				<clipPath id="SVGID_30_">
					<use xlink:href="#SVGID_29_"  overflow="visible"/>
				</clipPath>
				<rect x="876.4" y="499.2" clip-path="url(#SVGID_30_)" fill="#A1B6A9" width="14.4" height="17.3"/>
			</g>
			<g>
				<defs>
					<rect id="SVGID_31_" x="-7.8" y="73.4" width="1095.7" height="903.3"/>
				</defs>
				<clipPath id="SVGID_32_">
					<use xlink:href="#SVGID_31_"  overflow="visible"/>
				</clipPath>
				<rect x="709.7" y="464.6" clip-path="url(#SVGID_32_)" fill="#A1B6A9" width="44.1" height="197.5"/>
			</g>
			<g>
				<defs>
					<rect id="SVGID_33_" x="-7.8" y="73.4" width="1095.7" height="903.3"/>
				</defs>
				<clipPath id="SVGID_34_">
					<use xlink:href="#SVGID_33_"  overflow="visible"/>
				</clipPath>
				<rect x="995.4" y="478.4" clip-path="url(#SVGID_34_)" fill="#A1B6A9" width="44.1" height="197.5"/>
			</g>
			<g>
				<defs>
					<rect id="SVGID_35_" x="-7.8" y="73.4" width="1095.7" height="903.3"/>
				</defs>
				<clipPath id="SVGID_36_">
					<use xlink:href="#SVGID_35_"  overflow="visible"/>
				</clipPath>
				<path clip-path="url(#SVGID_36_)" fill="#D44F2D" d="M904.5,492.2v192h31.2h6.9V512.2h31.2v-44.4h-38.1v24.4H904.5z M941.7,495
					h26.1v9.4h-26.1V495z M941.7,476.1h26.1v9.4h-26.1V476.1z M911,644.8h26.1v9.4H911V644.8z M911,623.4h26.1v9.4H911V623.4z
					 M911,602.1h26.1v9.4H911V602.1z M911,580.7h26.1v9.4H911V580.7z M911,559.4h26.1v9.4H911V559.4z M911,537.9h26.1v9.4H911V537.9
					z M911,516.6h26.1v9.4H911V516.6z"/>
			</g>
			<g>
				<defs>
					<rect id="SVGID_37_" x="-7.8" y="73.4" width="1095.7" height="903.3"/>
				</defs>
				<clipPath id="SVGID_38_">
					<use xlink:href="#SVGID_37_"  overflow="visible"/>
				</clipPath>
				<path clip-path="url(#SVGID_38_)" fill="#599D97" d="M945.7,516.6v167.5h54.6V516.6H945.7z M985.2,652.4h5.8v13.8h-5.8V652.4z
					 M985.2,627.4h5.8v13.8h-5.8V627.4z M985.2,602.3h5.8v13.8h-5.8V602.3z M985.2,577.3h5.8v13.8h-5.8V577.3z M985.2,552.2h5.8V566
					h-5.8V552.2z M985.2,527.2h5.8V541h-5.8V527.2z M975.2,652.4h5.9v13.8h-5.9V652.4z M975.2,627.4h5.9v13.8h-5.9V627.4z
					 M975.2,602.3h5.9v13.8h-5.9V602.3z M975.2,577.3h5.9v13.8h-5.9V577.3z M975.2,552.2h5.9V566h-5.9V552.2z M975.2,527.2h5.9V541
					h-5.9V527.2z M965.1,652.4h5.8v13.8h-5.8V652.4z M965.1,627.4h5.8v13.8h-5.8V627.4z M965.1,602.3h5.8v13.8h-5.8V602.3z
					 M965.1,577.3h5.8v13.8h-5.8V577.3z M965.1,552.2h5.8V566h-5.8V552.2z M965.1,527.2h5.8V541h-5.8V527.2z M955.1,652.4h5.8v13.8
					h-5.8V652.4z M955.1,627.4h5.8v13.8h-5.8V627.4z M955.1,602.3h5.8v13.8h-5.8V602.3z M955.1,577.3h5.8v13.8h-5.8V577.3z
					 M955.1,552.2h5.8V566h-5.8V552.2z M955.1,527.2h5.8V541h-5.8V527.2z"/>
			</g>
			<g>
				<defs>
					<rect id="SVGID_39_" x="-7.8" y="73.4" width="1095.7" height="903.3"/>
				</defs>
				<clipPath id="SVGID_40_">
					<use xlink:href="#SVGID_39_"  overflow="visible"/>
				</clipPath>
				<path clip-path="url(#SVGID_40_)" fill="#F16B62" d="M1024.1,539.6v167.6h54.6V539.6H1024.1z M1063.5,675.5h5.8v13.8h-5.8V675.5
					z M1063.5,650.4h5.8v13.8h-5.8V650.4z M1063.5,625.4h5.8v13.8h-5.8V625.4z M1063.5,600.3h5.8v13.8h-5.8V600.3z M1063.5,575.3
					h5.8v13.8h-5.8V575.3z M1063.5,550.2h5.8V564h-5.8V550.2z M1053.5,675.5h5.9v13.8h-5.9V675.5z M1053.5,650.4h5.9v13.8h-5.9
					V650.4z M1053.5,625.4h5.9v13.8h-5.9V625.4z M1053.5,600.3h5.9v13.8h-5.9V600.3z M1053.5,575.3h5.9v13.8h-5.9V575.3z
					 M1053.5,550.2h5.9V564h-5.9V550.2z M1043.5,675.5h5.8v13.8h-5.8V675.5z M1043.5,650.4h5.8v13.8h-5.8V650.4z M1043.5,625.4h5.8
					v13.8h-5.8V625.4z M1043.5,600.3h5.8v13.8h-5.8V600.3z M1043.5,575.3h5.8v13.8h-5.8V575.3z M1043.5,550.2h5.8V564h-5.8V550.2z
					 M1033.6,675.5h5.8v13.8h-5.8V675.5z M1033.6,650.4h5.8v13.8h-5.8V650.4z M1033.6,625.4h5.8v13.8h-5.8V625.4z M1033.6,600.3h5.8
					v13.8h-5.8V600.3z M1033.6,575.3h5.8v13.8h-5.8V575.3z M1033.6,550.2h5.8V564h-5.8V550.2z"/>
			</g>
			<g>
				<defs>
					<rect id="SVGID_41_" x="-7.8" y="73.4" width="1095.7" height="903.3"/>
				</defs>
				<clipPath id="SVGID_42_">
					<use xlink:href="#SVGID_41_"  overflow="visible"/>
				</clipPath>
				<path clip-path="url(#SVGID_42_)" fill="#F16B62" d="M721,486.3v217.2h79.8V486.3H721z M778.6,662.3h8.5v17.9h-8.5V662.3z
					 M778.6,629.8h8.5v17.9h-8.5V629.8z M778.6,597.3h8.5v17.9h-8.5V597.3z M778.6,564.8h8.5v17.9h-8.5V564.8z M778.6,532.4h8.5
					v17.9h-8.5V532.4z M778.6,499.9h8.5v17.9h-8.5V499.9z M763.9,662.3h8.5v17.9h-8.5V662.3z M763.9,629.8h8.5v17.9h-8.5V629.8z
					 M763.9,597.3h8.5v17.9h-8.5V597.3z M763.9,564.8h8.5v17.9h-8.5V564.8z M763.9,532.4h8.5v17.9h-8.5V532.4z M763.9,499.9h8.5
					v17.9h-8.5V499.9z M749.4,662.3h8.5v17.9h-8.5V662.3z M749.4,629.8h8.5v17.9h-8.5V629.8z M749.4,597.3h8.5v17.9h-8.5V597.3z
					 M749.4,564.8h8.5v17.9h-8.5V564.8z M749.4,532.4h8.5v17.9h-8.5V532.4z M749.4,499.9h8.5v17.9h-8.5V499.9z M734.7,662.3h8.5
					v17.9h-8.5V662.3z M734.7,629.8h8.5v17.9h-8.5V629.8z M734.7,597.3h8.5v17.9h-8.5V597.3z M734.7,564.8h8.5v17.9h-8.5V564.8z
					 M734.7,532.4h8.5v17.9h-8.5V532.4z M734.7,499.9h8.5v17.9h-8.5V499.9z"/>
			</g>
			<g>
				<defs>
					<rect id="SVGID_43_" x="-7.8" y="73.4" width="1095.7" height="903.3"/>
				</defs>
				<clipPath id="SVGID_44_">
					<use xlink:href="#SVGID_43_"  overflow="visible"/>
				</clipPath>
				<rect x="-0.4" y="464.6" clip-path="url(#SVGID_44_)" fill="#A1B6A9" width="44.1" height="197.5"/>
			</g>
			<g>
				<defs>
					<rect id="SVGID_45_" x="-7.8" y="73.4" width="1095.7" height="903.3"/>
				</defs>
				<clipPath id="SVGID_46_">
					<use xlink:href="#SVGID_45_"  overflow="visible"/>
				</clipPath>
				<path clip-path="url(#SVGID_46_)" fill="#F16B62" d="M10.9,486.3v217.2h79.8V486.3H10.9z M68.4,662.3H77v17.9h-8.5V662.3z
					 M68.4,629.8H77v17.9h-8.5V629.8z M68.4,597.3H77v17.9h-8.5V597.3z M68.4,564.8H77v17.9h-8.5V564.8z M68.4,532.4H77v17.9h-8.5
					V532.4z M68.4,499.9H77v17.9h-8.5V499.9z M53.8,662.3h8.5v17.9h-8.5V662.3z M53.8,629.8h8.5v17.9h-8.5V629.8z M53.8,597.3h8.5
					v17.9h-8.5V597.3z M53.8,564.8h8.5v17.9h-8.5V564.8z M53.8,532.4h8.5v17.9h-8.5V532.4z M53.8,499.9h8.5v17.9h-8.5V499.9z
					 M39.2,662.3h8.5v17.9h-8.5C39.2,680.2,39.2,662.3,39.2,662.3z M39.2,629.8h8.5v17.9h-8.5C39.2,647.7,39.2,629.8,39.2,629.8z
					 M39.2,597.3h8.5v17.9h-8.5C39.2,615.3,39.2,597.3,39.2,597.3z M39.2,564.8h8.5v17.9h-8.5C39.2,582.8,39.2,564.8,39.2,564.8z
					 M39.2,532.4h8.5v17.9h-8.5C39.2,550.3,39.2,532.4,39.2,532.4z M39.2,499.9h8.5v17.9h-8.5C39.2,517.8,39.2,499.9,39.2,499.9z
					 M24.6,662.3h8.5v17.9h-8.5V662.3z M24.6,629.8h8.5v17.9h-8.5V629.8z M24.6,597.3h8.5v17.9h-8.5V597.3z M24.6,564.8h8.5v17.9
					h-8.5V564.8z M24.6,532.4h8.5v17.9h-8.5V532.4z M24.6,499.9h8.5v17.9h-8.5V499.9z"/>
			</g>
			<g>
				<defs>
					<rect id="SVGID_47_" x="-7.8" y="73.4" width="1095.7" height="903.3"/>
				</defs>
				<clipPath id="SVGID_48_">
					<use xlink:href="#SVGID_47_"  overflow="visible"/>
				</clipPath>
				<path clip-path="url(#SVGID_48_)" fill="#599D97" d="M819,509.4v167.9h54.7V509.4H819z M858.4,645.4h5.9v13.9h-5.9V645.4z
					 M858.4,620.3h5.9v13.9h-5.9V620.3z M858.4,595.2h5.9v13.9h-5.9V595.2z M858.4,570.1h5.9V584h-5.9V570.1z M858.4,545h5.9v13.9
					h-5.9V545z M858.4,519.9h5.9v13.9h-5.9V519.9z M848.4,645.4h5.9v13.9h-5.9V645.4z M848.4,620.3h5.9v13.9h-5.9V620.3z
					 M848.4,595.2h5.9v13.9h-5.9V595.2z M848.4,570.1h5.9V584h-5.9V570.1z M848.4,545h5.9v13.9h-5.9V545z M848.4,519.9h5.9v13.9
					h-5.9V519.9z M838.4,645.4h5.9v13.9h-5.9V645.4z M838.4,620.3h5.9v13.9h-5.9V620.3z M838.4,595.2h5.9v13.9h-5.9V595.2z
					 M838.4,570.1h5.9V584h-5.9V570.1z M838.4,545h5.9v13.9h-5.9V545z M838.4,519.9h5.9v13.9h-5.9V519.9z M828.4,645.4h5.9v13.9
					h-5.9V645.4z M828.4,620.3h5.9v13.9h-5.9V620.3z M828.4,595.2h5.9v13.9h-5.9V595.2z M828.4,570.1h5.9V584h-5.9V570.1z
					 M828.4,545h5.9v13.9h-5.9V545z M828.4,519.9h5.9v13.9h-5.9V519.9z"/>
			</g>
			<g>
				<defs>
					<rect id="SVGID_49_" x="-7.8" y="73.4" width="1095.7" height="903.3"/>
				</defs>
				<clipPath id="SVGID_50_">
					<use xlink:href="#SVGID_49_"  overflow="visible"/>
				</clipPath>
				<rect x="631" y="484.3" clip-path="url(#SVGID_50_)" fill="#A1B6A9" width="44.2" height="177.9"/>
			</g>
			<g>
				<defs>
					<rect id="SVGID_51_" x="-7.8" y="73.4" width="1095.7" height="903.3"/>
				</defs>
				<clipPath id="SVGID_52_">
					<use xlink:href="#SVGID_51_"  overflow="visible"/>
				</clipPath>
				<path clip-path="url(#SVGID_52_)" fill="#B88D8F" d="M632.9,486.1v183.2H683V486.1h-10.1v-31.2h-8.5v-15.5h-12.8v15.5H643v31.2
					L632.9,486.1L632.9,486.1z M671.7,617.7h6.4v15.2h-6.4V617.7z M671.7,592.6h6.4v15.2h-6.4V592.6z M671.7,567.6h6.4v15.2h-6.4
					V567.6z M671.7,542.5h6.4v15.2h-6.4V542.5z M671.7,517.4h6.4v15.2h-6.4V517.4z M671.7,492.7h6.4v15.2h-6.4V492.7z M660.9,617.7
					h6.4v15.2h-6.4V617.7z M660.9,592.6h6.4v15.2h-6.4V592.6z M660.9,567.6h6.4v15.2h-6.4V567.6z M660.9,542.5h6.4v15.2h-6.4V542.5z
					 M660.9,517.4h6.4v15.2h-6.4V517.4z M660.9,492.7h6.4v15.2h-6.4V492.7z M660.9,462.4h6.4v15.2h-6.4V462.4z M649.9,617.7h6.4
					v15.2h-6.4V617.7z M649.9,592.6h6.4v15.2h-6.4V592.6z M649.9,567.6h6.4v15.2h-6.4V567.6z M649.9,542.5h6.4v15.2h-6.4V542.5z
					 M649.9,517.4h6.4v15.2h-6.4V517.4z M649.9,492.7h6.4v15.2h-6.4V492.7z M649.9,462.4h6.4v15.2h-6.4V462.4z M638.9,617.7h6.4
					v15.2h-6.4V617.7z M638.9,592.6h6.4v15.2h-6.4V592.6z M638.9,567.6h6.4v15.2h-6.4V567.6z M638.9,542.5h6.4v15.2h-6.4V542.5z
					 M638.9,517.4h6.4v15.2h-6.4V517.4z M638.9,492.7h6.4v15.2h-6.4V492.7z"/>
			</g>
			<g>
				<defs>
					<rect id="SVGID_53_" x="-7.8" y="73.4" width="1095.7" height="903.3"/>
				</defs>
				<clipPath id="SVGID_54_">
					<use xlink:href="#SVGID_53_"  overflow="visible"/>
				</clipPath>
				<g clip-path="url(#SVGID_54_)">
					<rect x="933.1" y="588.9" fill="#70575A" width="6.6" height="59.7"/>
					<path fill="#A3CD39" d="M916.2,583.4c0-3.5,1.1-6.6,3-9.4c-1.4-2.6-2.1-5.7-2.1-8.9c0-2.7,0.5-5.4,1.6-7.7
						c-0.2-1.1-0.3-2.2-0.3-3.4c0-10,8.1-18.1,18.1-18.1s18.1,8.1,18.1,18.1c0,1.2-0.1,2.3-0.3,3.4c1.1,2.3,1.6,5,1.6,7.7
						c0,3.2-0.7,6.2-2.1,8.9c1.9,2.7,3,5.9,3,9.4c0,2.5-0.6,5.1-1.7,7.3c0.6,1.9,0.9,3.8,0.9,5.9c0,10.8-8.8,19.4-19.4,19.4
						c-10.8,0-19.4-8.8-19.4-19.4c0-2,0.3-4,0.9-5.9C916.8,588.5,916.2,586,916.2,583.4z"/>
					<path fill="#8AA83D" d="M936.5,535.9c10,0,18.1,8.1,18.1,18.1c0,1.2-0.1,2.3-0.3,3.4c1.1,2.3,1.6,5,1.6,7.7
						c0,3.2-0.7,6.2-2.1,8.9c1.9,2.7,3,5.9,3,9.4c0,2.5-0.6,5.1-1.7,7.3c0.6,1.9,0.9,3.8,0.9,5.9c0,10.8-8.8,19.4-19.4,19.4"/>
				</g>
			</g>
			<g>
				<defs>
					<rect id="SVGID_55_" x="-7.8" y="73.4" width="1095.7" height="903.3"/>
				</defs>
				<clipPath id="SVGID_56_">
					<use xlink:href="#SVGID_55_"  overflow="visible"/>
				</clipPath>
				<g clip-path="url(#SVGID_56_)">
					<rect x="907.1" y="597.2" fill="#70575A" width="5.7" height="51.4"/>
					<path fill="#A3CD39" d="M896.7,607.5c-0.3-1.3-0.5-2.5-0.5-3.8c0-2.2,0.5-4.3,1.5-6.2c-1.4-2.2-2.2-4.9-2.2-7.7
						c0-3.7,1.4-7,3.6-9.6c-0.3-1.1-0.5-2.1-0.5-3.3c0-6.3,5.2-11.5,11.5-11.5s11.5,5.2,11.5,11.5c0,1.2-0.2,2.2-0.5,3.3
						c2.2,2.5,3.6,5.9,3.6,9.6c0,2.8-0.8,5.5-2.2,7.7c0.9,1.9,1.5,4,1.5,6.2c0,1.4-0.2,2.6-0.5,3.8c0.8,1.9,1.4,4,1.4,6.2
						c0,8.1-6.6,14.8-14.8,14.8c-8.1,0-14.8-6.6-14.8-14.8C895.2,611.5,895.7,609.4,896.7,607.5z"/>
					<path fill="#8AA83D" d="M910,565.4c6.3,0,11.5,5.2,11.5,11.5c0,1.2-0.2,2.2-0.5,3.3c2.2,2.5,3.6,5.9,3.6,9.6
						c0,2.8-0.8,5.5-2.2,7.7c0.9,1.9,1.5,4,1.5,6.2c0,1.4-0.2,2.6-0.5,3.8c0.8,1.9,1.4,4,1.4,6.2c0,8.1-6.6,14.8-14.8,14.8"/>
				</g>
			</g>
			<g>
				<defs>
					<rect id="SVGID_57_" x="-7.8" y="73.4" width="1095.7" height="903.3"/>
				</defs>
				<clipPath id="SVGID_58_">
					<use xlink:href="#SVGID_57_"  overflow="visible"/>
				</clipPath>
				<path opacity="0.6" clip-path="url(#SVGID_58_)" fill="#FFFFFF" enable-background="new    " d="M163.3,452.5
					c-1.3,0-2.6,0.2-3.8,0.5c-3.1-9.6-12-16.6-22.6-16.6c-7,0-13.3,3.1-17.6,7.8c-4.2-4.2-10-6.9-16.5-6.9
					c-12.8,0-23.2,10.3-23.2,23.2c0,12.8,10.3,23.2,23.2,23.2h60.4c8.6,0,15.7-7.1,15.7-15.7C179,459.6,172,452.5,163.3,452.5z"/>
			</g>
			<g>
				<defs>
					<rect id="SVGID_59_" x="-7.8" y="73.4" width="1095.7" height="903.3"/>
				</defs>
				<clipPath id="SVGID_60_">
					<use xlink:href="#SVGID_59_"  overflow="visible"/>
				</clipPath>
				<path opacity="0.6" clip-path="url(#SVGID_60_)" fill="#FFFFFF" enable-background="new    " d="M431.6,373.5
					c0.8,0,1.7,0.1,2.5,0.2c0.9-15.1,13.4-27.1,28.8-27.1c8.3,0,15.7,3.5,21,9.1c1.7-0.4,3.5-0.6,5.3-0.6c8.1,0,15.2,3.9,19.7,9.9
					c3.1-1.7,6.5-2.7,10.2-2.7c11.6,0,21,9.4,21,21s-9.4,21-21,21h-87.5c-8.5,0-15.4-6.9-15.4-15.4
					C416.2,380.4,423,373.5,431.6,373.5z"/>
			</g>
			<g>
				<defs>
					<rect id="SVGID_61_" x="-7.8" y="73.4" width="1095.7" height="903.3"/>
				</defs>
				<clipPath id="SVGID_62_">
					<use xlink:href="#SVGID_61_"  overflow="visible"/>
				</clipPath>
				<path opacity="0.6" clip-path="url(#SVGID_62_)" fill="#FFFFFF" enable-background="new    " d="M844.3,373.5
					c0.8,0,1.7,0.1,2.5,0.2c0.9-15.1,13.4-27.1,28.8-27.1c8.3,0,15.7,3.5,21,9.1c1.7-0.4,3.5-0.6,5.3-0.6c8.1,0,15.2,3.9,19.7,9.9
					c3.1-1.7,6.5-2.7,10.2-2.7c11.6,0,21,9.4,21,21s-9.4,21-21,21h-87.5c-8.5,0-15.4-6.9-15.4-15.4
					C829,380.4,835.8,373.5,844.3,373.5z"/>
			</g>
			<g>
				<defs>
					<rect id="SVGID_63_" x="-7.8" y="73.4" width="1095.7" height="903.3"/>
				</defs>
				<clipPath id="SVGID_64_">
					<use xlink:href="#SVGID_63_"  overflow="visible"/>
				</clipPath>
				<path opacity="0.6" clip-path="url(#SVGID_64_)" fill="#FFFFFF" enable-background="new    " d="M589.8,188
					c0.8,0,1.7,0.1,2.5,0.2c0.9-15.1,13.4-27.1,28.8-27.1c8.3,0,15.7,3.5,21,9.1c1.7-0.4,3.5-0.6,5.3-0.6c8.1,0,15.2,3.9,19.7,9.9
					c3.1-1.7,6.5-2.7,10.2-2.7c11.6,0,21,9.4,21,21s-9.4,21-21,21h-87.5c-8.5,0-15.4-6.9-15.4-15.4C574.4,195,581.2,188,589.8,188z"
					/>
			</g>
			<g>
				<defs>
					<rect id="SVGID_65_" x="-7.8" y="73.4" width="1095.7" height="903.3"/>
				</defs>
				<clipPath id="SVGID_66_">
					<use xlink:href="#SVGID_65_"  overflow="visible"/>
				</clipPath>
				<path clip-path="url(#SVGID_66_)" fill="#A1B6A9" d="M400.3,830.1c0,0-19.8-28.8-41.7,0"/>
			</g>
			<g>
				<defs>
					<rect id="SVGID_67_" x="-7.8" y="73.4" width="1095.7" height="903.3"/>
				</defs>
				<clipPath id="SVGID_68_">
					<use xlink:href="#SVGID_67_"  overflow="visible"/>
				</clipPath>
				<rect x="234.4" y="830.4" clip-path="url(#SVGID_68_)" fill="#A1B6A9" width="14" height="14.8"/>
			</g>
			<g>
				<defs>
					<rect id="SVGID_69_" x="-7.8" y="73.4" width="1095.7" height="903.3"/>
				</defs>
				<clipPath id="SVGID_70_">
					<use xlink:href="#SVGID_69_"  overflow="visible"/>
				</clipPath>
				<rect x="236.9" y="820.9" clip-path="url(#SVGID_70_)" fill="#A1B6A9" width="8.1" height="11.2"/>
			</g>
			<g>
				<defs>
					<rect id="SVGID_71_" x="-7.8" y="73.4" width="1095.7" height="903.3"/>
				</defs>
				<clipPath id="SVGID_72_">
					<use xlink:href="#SVGID_71_"  overflow="visible"/>
				</clipPath>
				<polygon clip-path="url(#SVGID_72_)" fill="#A1B6A9" points="486.7,760.3 468.6,797.9 504.9,797.9 				"/>
			</g>
			<g>
				<defs>
					<rect id="SVGID_73_" x="-7.8" y="73.4" width="1095.7" height="903.3"/>
				</defs>
				<clipPath id="SVGID_74_">
					<use xlink:href="#SVGID_73_"  overflow="visible"/>
				</clipPath>
				<rect x="482.2" y="597.9" clip-path="url(#SVGID_74_)" fill="#A1B6A9" width="23.9" height="114.9"/>
			</g>
			<g>
				<defs>
					<rect id="SVGID_75_" x="-7.8" y="73.4" width="1095.7" height="903.3"/>
				</defs>
				<clipPath id="SVGID_76_">
					<use xlink:href="#SVGID_75_"  overflow="visible"/>
				</clipPath>
				<rect x="423.6" y="556.1" clip-path="url(#SVGID_76_)" fill="#A1B6A9" width="43.1" height="99.4"/>
			</g>
			<g>
				<defs>
					<rect id="SVGID_77_" x="-7.8" y="73.4" width="1095.7" height="903.3"/>
				</defs>
				<clipPath id="SVGID_78_">
					<use xlink:href="#SVGID_77_"  overflow="visible"/>
				</clipPath>
				<rect x="439.6" y="509.6" clip-path="url(#SVGID_78_)" fill="#A1B6A9" width="54.6" height="183.7"/>
			</g>
			<g>
				<defs>
					<rect id="SVGID_79_" x="-7.8" y="73.4" width="1095.7" height="903.3"/>
				</defs>
				<clipPath id="SVGID_80_">
					<use xlink:href="#SVGID_79_"  overflow="visible"/>
				</clipPath>
				<rect x="389.8" y="522.2" clip-path="url(#SVGID_80_)" fill="#A1B6A9" width="37.8" height="171.1"/>
			</g>
			<g>
				<defs>
					<rect id="SVGID_81_" x="-7.8" y="73.4" width="1095.7" height="903.3"/>
				</defs>
				<clipPath id="SVGID_82_">
					<use xlink:href="#SVGID_81_"  overflow="visible"/>
				</clipPath>
				<rect x="339.1" y="522.2" clip-path="url(#SVGID_82_)" fill="#A1B6A9" width="42" height="171.1"/>
			</g>
			<g>
				<defs>
					<rect id="SVGID_83_" x="-7.8" y="73.4" width="1095.7" height="903.3"/>
				</defs>
				<clipPath id="SVGID_84_">
					<use xlink:href="#SVGID_83_"  overflow="visible"/>
				</clipPath>
				<rect x="395.5" y="515.9" clip-path="url(#SVGID_84_)" fill="#A1B6A9" width="26.5" height="7.8"/>
			</g>
			<g>
				<defs>
					<rect id="SVGID_85_" x="-7.8" y="73.4" width="1095.7" height="903.3"/>
				</defs>
				<clipPath id="SVGID_86_">
					<use xlink:href="#SVGID_85_"  overflow="visible"/>
				</clipPath>
				<rect x="401.7" y="502.8" clip-path="url(#SVGID_86_)" fill="#A1B6A9" width="14" height="14.8"/>
			</g>
			<g>
				<defs>
					<rect id="SVGID_87_" x="-7.8" y="73.4" width="1095.7" height="903.3"/>
				</defs>
				<clipPath id="SVGID_88_">
					<use xlink:href="#SVGID_87_"  overflow="visible"/>
				</clipPath>
				<rect x="404.7" y="493.3" clip-path="url(#SVGID_88_)" fill="#A1B6A9" width="8.1" height="11.2"/>
			</g>
			<g>
				<defs>
					<rect id="SVGID_89_" x="-7.8" y="73.4" width="1095.7" height="903.3"/>
				</defs>
				<clipPath id="SVGID_90_">
					<use xlink:href="#SVGID_89_"  overflow="visible"/>
				</clipPath>
				<rect x="290.6" y="475.5" clip-path="url(#SVGID_90_)" fill="#A1B6A9" width="42.6" height="221.7"/>
			</g>
			<g>
				<defs>
					<rect id="SVGID_91_" x="-7.8" y="73.4" width="1095.7" height="903.3"/>
				</defs>
				<clipPath id="SVGID_92_">
					<use xlink:href="#SVGID_91_"  overflow="visible"/>
				</clipPath>
				<rect x="223.9" y="475.5" clip-path="url(#SVGID_92_)" fill="#A1B6A9" width="42.6" height="221.7"/>
			</g>
			<g>
				<defs>
					<rect id="SVGID_93_" x="-7.8" y="73.4" width="1095.7" height="903.3"/>
				</defs>
				<clipPath id="SVGID_94_">
					<use xlink:href="#SVGID_93_"  overflow="visible"/>
				</clipPath>
				<rect x="260" y="504.8" clip-path="url(#SVGID_94_)" fill="#A1B6A9" width="33" height="192.3"/>
			</g>
			<g>
				<defs>
					<rect id="SVGID_95_" x="-7.8" y="73.4" width="1095.7" height="903.3"/>
				</defs>
				<clipPath id="SVGID_96_">
					<use xlink:href="#SVGID_95_"  overflow="visible"/>
				</clipPath>
				<path clip-path="url(#SVGID_96_)" fill="#D44F2D" d="M418.7,496v178.1h30.2h6.6V513h30.2v-37.8h-36.8V496H418.7z M454.8,498.4
					H480v8h-25.2V498.4z M454.8,482.3H480v8h-25.2V482.3z M425,625.8h25.2v8H425V625.8z M425,607.7h25.2v8H425V607.7z M425,589.4
					h25.2v8H425V589.4z M425,571.3h25.2v8H425V571.3z M425,553.1h25.2v8H425V553.1z M425,534.9h25.2v8H425V534.9z M425,516.8h25.2v8
					H425V516.8z"/>
			</g>
			<g>
				<defs>
					<rect id="SVGID_97_" x="-7.8" y="73.4" width="1095.7" height="903.3"/>
				</defs>
				<clipPath id="SVGID_98_">
					<use xlink:href="#SVGID_97_"  overflow="visible"/>
				</clipPath>
				<path clip-path="url(#SVGID_98_)" fill="#599D97" d="M461.6,516.8v157.4h52.8V516.8H461.6z M499.8,632.3h5.7v11.8h-5.7V632.3z
					 M499.8,611h5.7v11.8h-5.7V611z M499.8,589.7h5.7v11.8h-5.7V589.7z M499.8,568.4h5.7v11.8h-5.7V568.4z M499.8,547h5.7v11.8h-5.7
					V547z M499.8,525.7h5.7v11.8h-5.7V525.7z M490.1,632.3h5.7v11.8h-5.7V632.3z M490.1,611h5.7v11.8h-5.7V611z M490.1,589.7h5.7
					v11.8h-5.7V589.7z M490.1,568.4h5.7v11.8h-5.7V568.4z M490.1,547h5.7v11.8h-5.7V547z M490.1,525.7h5.7v11.8h-5.7V525.7z
					 M480.4,632.3h5.7v11.8h-5.7V632.3z M480.4,611h5.7v11.8h-5.7V611z M480.4,589.7h5.7v11.8h-5.7V589.7z M480.4,568.4h5.7v11.8
					h-5.7V568.4z M480.4,547h5.7v11.8h-5.7V547z M480.4,525.7h5.7v11.8h-5.7V525.7z M470.7,632.3h5.7v11.8h-5.7V632.3z M470.7,611
					h5.7v11.8h-5.7V611z M470.7,589.7h5.7v11.8h-5.7V589.7z M470.7,568.4h5.7v11.8h-5.7V568.4z M470.7,547h5.7v11.8h-5.7V547z
					 M470.7,525.7h5.7v11.8h-5.7V525.7z"/>
			</g>
			<g>
				<defs>
					<rect id="SVGID_99_" x="-7.8" y="73.4" width="1095.7" height="903.3"/>
				</defs>
				<clipPath id="SVGID_100_">
					<use xlink:href="#SVGID_99_"  overflow="visible"/>
				</clipPath>
				<path clip-path="url(#SVGID_100_)" fill="#B88D8F" d="M311.2,462.4v229.1h68.6V462.4H311.2z M360.7,612.3h7.4v15.3h-7.4V612.3z
					 M360.7,584.7h7.4V600h-7.4V584.7z M360.7,557h7.4v15.3h-7.4V557z M360.7,529.3h7.4v15.3h-7.4V529.3z M360.7,501.7h7.4V517h-7.4
					V501.7z M360.7,474h7.4v15.3h-7.4V474z M348.2,612.3h7.4v15.3h-7.4V612.3z M348.2,584.7h7.4V600h-7.4V584.7z M348.2,557h7.4
					v15.3h-7.4V557z M348.2,529.3h7.4v15.3h-7.4V529.3z M348.2,501.7h7.4V517h-7.4V501.7z M348.2,474h7.4v15.3h-7.4V474z
					 M335.6,612.3h7.4v15.3h-7.4V612.3z M335.6,584.7h7.4V600h-7.4V584.7z M335.6,557h7.4v15.3h-7.4V557z M335.6,529.3h7.4v15.3
					h-7.4V529.3z M335.6,501.7h7.4V517h-7.4V501.7z M335.6,474h7.4v15.3h-7.4V474z M323.1,612.3h7.4v15.3h-7.4V612.3z M323.1,584.7
					h7.4V600h-7.4V584.7z M323.1,557h7.4v15.3h-7.4V557z M323.1,529.3h7.4v15.3h-7.4V529.3z M323.1,501.7h7.4V517h-7.4V501.7z
					 M323.1,474h7.4v15.3h-7.4V474z"/>
			</g>
			<g>
				<defs>
					<rect id="SVGID_101_" x="-7.8" y="73.4" width="1095.7" height="903.3"/>
				</defs>
				<clipPath id="SVGID_102_">
					<use xlink:href="#SVGID_101_"  overflow="visible"/>
				</clipPath>
				<rect x="136.7" y="493.3" clip-path="url(#SVGID_102_)" fill="#A1B6A9" width="98.8" height="198.2"/>
			</g>
			<g>
				<defs>
					<rect id="SVGID_103_" x="-7.8" y="73.4" width="1095.7" height="903.3"/>
				</defs>
				<clipPath id="SVGID_104_">
					<use xlink:href="#SVGID_103_"  overflow="visible"/>
				</clipPath>
				<rect x="104.5" y="462.4" clip-path="url(#SVGID_104_)" fill="#A1B6A9" width="49.6" height="229.2"/>
			</g>
			<g>
				<defs>
					<rect id="SVGID_105_" x="-7.8" y="73.4" width="1095.7" height="903.3"/>
				</defs>
				<clipPath id="SVGID_106_">
					<use xlink:href="#SVGID_105_"  overflow="visible"/>
				</clipPath>
				<path clip-path="url(#SVGID_106_)" fill="#B88D8F" d="M133.3,516.8v157.4h52.8V516.8H133.3z M171.4,632.3h5.7v11.8h-5.7V632.3z
					 M171.4,611h5.7v11.8h-5.7V611z M171.4,589.7h5.7v11.8h-5.7V589.7z M171.4,568.4h5.7v11.8h-5.7V568.4z M171.4,547h5.7v11.8h-5.7
					V547z M171.4,525.7h5.7v11.8h-5.7V525.7z M161.8,632.3h5.7v11.8h-5.7V632.3z M161.8,611h5.7v11.8h-5.7V611z M161.8,589.7h5.7
					v11.8h-5.7V589.7z M161.8,568.4h5.7v11.8h-5.7V568.4z M161.8,547h5.7v11.8h-5.7V547z M161.8,525.7h5.7v11.8h-5.7V525.7z
					 M152.1,632.3h5.7v11.8h-5.7V632.3z M152.1,611h5.7v11.8h-5.7V611z M152.1,589.7h5.7v11.8h-5.7V589.7z M152.1,568.4h5.7v11.8
					h-5.7V568.4z M152.1,547h5.7v11.8h-5.7V547z M152.1,525.7h5.7v11.8h-5.7V525.7z M142.4,632.3h5.7v11.8h-5.7V632.3z M142.4,611
					h5.7v11.8h-5.7V611z M142.4,589.7h5.7v11.8h-5.7V589.7z M142.4,568.4h5.7v11.8h-5.7V568.4z M142.4,547h5.7v11.8h-5.7V547z
					 M142.4,525.7h5.7v11.8h-5.7V525.7z"/>
			</g>
			<g>
				<defs>
					<rect id="SVGID_107_" x="-7.8" y="73.4" width="1095.7" height="903.3"/>
				</defs>
				<clipPath id="SVGID_108_">
					<use xlink:href="#SVGID_107_"  overflow="visible"/>
				</clipPath>
				<path clip-path="url(#SVGID_108_)" fill="#599D97" d="M192.7,484.9V685h48.5V484.9h-9.8v-26.6h-8.2v-13.2h-12.3v13.2h-8.3v26.6
					H192.7z M230.3,596.9h6.2v12.9h-6.2V596.9z M230.3,575.5h6.2v12.9h-6.2V575.5z M230.3,554.2h6.2v12.9h-6.2V554.2z M230.3,532.9
					h6.2v12.9h-6.2V532.9z M230.3,511.6h6.2v12.9h-6.2V511.6z M230.3,490.5h6.2v12.9h-6.2V490.5z M219.7,596.9h6.2v12.9h-6.2V596.9z
					 M219.7,575.5h6.2v12.9h-6.2V575.5z M219.7,554.2h6.2v12.9h-6.2V554.2z M219.7,532.9h6.2v12.9h-6.2V532.9z M219.7,511.6h6.2
					v12.9h-6.2V511.6z M219.7,490.5h6.2v12.9h-6.2V490.5z M219.7,464.8h6.2v12.9h-6.2V464.8z M209.1,596.9h6.2v12.9h-6.2V596.9z
					 M209.1,575.5h6.2v12.9h-6.2V575.5z M209.1,554.2h6.2v12.9h-6.2V554.2z M209.1,532.9h6.2v12.9h-6.2V532.9z M209.1,511.6h6.2
					v12.9h-6.2V511.6z M209.1,490.5h6.2v12.9h-6.2V490.5z M209.1,464.8h6.2v12.9h-6.2V464.8z M198.6,596.9h6.2v12.9h-6.2V596.9z
					 M198.6,575.5h6.2v12.9h-6.2V575.5z M230.3,639.8h6.2v12.9h-6.2V639.8z M230.3,618.5h6.2v12.9h-6.2V618.5z M219.7,639.8h6.2
					v12.9h-6.2V639.8z M219.7,618.5h6.2v12.9h-6.2V618.5z M209.1,639.8h6.2v12.9h-6.2V639.8z M209.1,618.5h6.2v12.9h-6.2V618.5z
					 M198.6,639.8h6.2v12.9h-6.2V639.8z M198.6,618.5h6.2v12.9h-6.2V618.5z M198.6,554.2h6.2v12.9h-6.2V554.2z M198.6,532.9h6.2
					v12.9h-6.2V532.9z M198.6,511.6h6.2v12.9h-6.2V511.6z M198.6,490.5h6.2v12.9h-6.2V490.5z"/>
			</g>
			<g>
				<defs>
					<rect id="SVGID_109_" x="-7.8" y="73.4" width="1095.7" height="903.3"/>
				</defs>
				<clipPath id="SVGID_110_">
					<use xlink:href="#SVGID_109_"  overflow="visible"/>
				</clipPath>
				<g clip-path="url(#SVGID_110_)">
					<rect x="165.3" y="574.8" fill="#70575A" width="8.5" height="76.5"/>
					<path fill="#A3CD39" d="M195.4,567.9c0-4.4-1.4-8.5-3.8-12c1.8-3.4,2.7-7.3,2.7-11.3c0-3.5-0.7-6.9-2-9.9
						c0.3-1.4,0.4-2.8,0.4-4.3c0-12.9-10.4-23.3-23.3-23.3c-12.9,0-23.3,10.4-23.3,23.3c0,1.5,0.1,3,0.4,4.3c-1.3,3.1-2,6.3-2,9.9
						c0,4.1,1.1,7.9,2.7,11.3c-2.4,3.5-3.8,7.6-3.8,12c0,3.3,0.7,6.4,2.2,9.3c-0.7,2.3-1.2,4.9-1.2,7.5c0,13.7,11.2,24.9,24.9,24.9
						s24.9-11.2,24.9-24.9c0-2.6-0.4-5.2-1.2-7.5C194.7,574.3,195.4,571.2,195.4,567.9z"/>
					<path fill="#8AA83D" d="M169.5,507c-12.9,0-23.3,10.4-23.3,23.3c0,1.5,0.1,3,0.4,4.3c-1.3,3.1-2,6.3-2,9.9
						c0,4.1,1.1,7.9,2.7,11.3c-2.4,3.5-3.8,7.6-3.8,12c0,3.3,0.7,6.4,2.2,9.3c-0.7,2.3-1.2,4.9-1.2,7.5c0,13.7,11.2,24.9,24.9,24.9"
						/>
				</g>
			</g>
			<g>
				<defs>
					<rect id="SVGID_111_" x="-7.8" y="73.4" width="1095.7" height="903.3"/>
				</defs>
				<clipPath id="SVGID_112_">
					<use xlink:href="#SVGID_111_"  overflow="visible"/>
				</clipPath>
				<g clip-path="url(#SVGID_112_)">
					<rect x="458.2" y="586.4" fill="#70575A" width="6.2" height="55.8"/>
					<path fill="#A3CD39" d="M480.2,581.3c0-3.2-1.1-6.2-2.7-8.8c1.3-2.5,2-5.3,2-8.2c0-2.5-0.5-5-1.5-7.2c0.2-1.1,0.3-2.1,0.3-3.2
						c0-9.4-7.6-17-17-17s-17,7.6-17,17c0,1.1,0.1,2.1,0.3,3.2c-0.9,2.2-1.5,4.6-1.5,7.2c0,3,0.7,5.8,2,8.2
						c-1.7,2.5-2.7,5.6-2.7,8.8c0,2.4,0.5,4.7,1.6,6.8c-0.5,1.7-0.8,3.6-0.8,5.5c0,10,8.1,18.1,18.1,18.1s18.1-8.1,18.1-18.1
						c0-1.9-0.3-3.8-0.8-5.5C479.7,585.9,480.2,583.6,480.2,581.3z"/>
					<path fill="#8AA83D" d="M461.3,536.9c-9.4,0-17,7.6-17,17c0,1.1,0.1,2.1,0.3,3.2c-0.9,2.2-1.5,4.6-1.5,7.2c0,3,0.7,5.8,2,8.2
						c-1.7,2.5-2.7,5.6-2.7,8.8c0,2.4,0.5,4.7,1.6,6.8c-0.5,1.7-0.8,3.6-0.8,5.5c0,10,8.1,18.1,18.1,18.1"/>
				</g>
			</g>
			<g>
				<defs>
					<rect id="SVGID_113_" x="-7.8" y="73.4" width="1095.7" height="903.3"/>
				</defs>
				<clipPath id="SVGID_114_">
					<use xlink:href="#SVGID_113_"  overflow="visible"/>
				</clipPath>
				<g clip-path="url(#SVGID_114_)">
					<rect x="502.3" y="551.7" fill="#70575A" width="9.5" height="85.2"/>
					<path fill="#A3CD39" d="M529.2,568.6c0.6-2,0.9-4.1,0.9-6.4c0-3.7-0.8-7.2-2.4-10.2c2.3-3.7,3.7-8.1,3.7-12.8
						c0-6.1-2.2-11.6-5.9-15.9c0.5-1.7,0.7-3.5,0.7-5.4c0-10.5-8.5-19.1-19.1-19.1s-19.1,8.5-19.1,19.1c0,1.9,0.3,3.7,0.7,5.4
						c-3.7,4.2-5.9,9.8-5.9,15.9c0,4.6,1.4,9.1,3.7,12.8c-1.6,3.1-2.4,6.5-2.4,10.2c0,2.2,0.3,4.3,0.9,6.4
						c-1.5,3.2-2.3,6.6-2.3,10.3c0,13.5,11,24.5,24.5,24.5c13.5,0,24.5-11,24.5-24.5C531.6,575.3,530.7,571.8,529.2,568.6z"/>
					<path fill="#8AA83D" d="M507.1,498.9c-10.5,0-19.1,8.5-19.1,19.1c0,1.9,0.3,3.7,0.7,5.4c-3.7,4.2-5.9,9.8-5.9,15.9
						c0,4.6,1.4,9.1,3.7,12.8c-1.6,3.1-2.4,6.5-2.4,10.2c0,2.2,0.3,4.3,0.9,6.4c-1.5,3.2-2.3,6.6-2.3,10.3c0,13.5,11,24.5,24.5,24.5
						"/>
				</g>
			</g>
			<g>
				<defs>
					<rect id="SVGID_115_" x="-7.8" y="73.4" width="1095.7" height="903.3"/>
				</defs>
				<clipPath id="SVGID_116_">
					<use xlink:href="#SVGID_115_"  overflow="visible"/>
				</clipPath>
				<path opacity="0.6" clip-path="url(#SVGID_116_)" fill="#FFFFFF" enable-background="new    " d="M265.1,309.5
					c-0.8,0-1.6,0.1-2.3,0.2c-2.7-5.4-8.3-9.1-14.9-9.1c-8.2,0-15,5.9-16.5,13.7c-0.8-0.2-1.6-0.3-2.5-0.3c-2.7,0-5.3,1.2-7.1,3
					c-1.9-2-4.5-3.3-7.4-3.3c-5.6,0-10.1,4.5-10.1,10.1c0,5.6,4.5,10.1,10.1,10.1H265c6.7,0,12.2-5.5,12.2-12.2
					C277.3,315,271.9,309.5,265.1,309.5z"/>
			</g>
			<g>
				<defs>
					<rect id="SVGID_117_" x="-7.8" y="73.4" width="1095.7" height="903.3"/>
				</defs>
				<clipPath id="SVGID_118_">
					<use xlink:href="#SVGID_117_"  overflow="visible"/>
				</clipPath>
				
					<line clip-path="url(#SVGID_118_)" fill="none" stroke="#425553" stroke-width="197.6648" stroke-linejoin="round" stroke-miterlimit="10" x1="-0.4" y1="743.3" x2="1090" y2="743.3"/>
			</g>
			<g>
				<defs>
					<rect id="SVGID_119_" x="-7.8" y="73.4" width="1095.7" height="903.3"/>
				</defs>
				<clipPath id="SVGID_120_">
					<use xlink:href="#SVGID_119_"  overflow="visible"/>
				</clipPath>
				
					<line clip-path="url(#SVGID_120_)" fill="none" stroke="#676767" stroke-width="4.5615" stroke-linecap="round" stroke-miterlimit="10" x1="1088" y1="740" x2="116.6" y2="740"/>
			</g>
			<g>
				<defs>
					<rect id="SVGID_121_" x="-7.8" y="73.4" width="1095.7" height="903.3"/>
				</defs>
				<clipPath id="SVGID_122_">
					<use xlink:href="#SVGID_121_"  overflow="visible"/>
				</clipPath>
				
					<line clip-path="url(#SVGID_122_)" fill="none" stroke="#676767" stroke-width="4.5615" stroke-linecap="round" stroke-miterlimit="10" x1="1088" y1="749.1" x2="116.6" y2="749.1"/>
			</g>
			<g>
				<defs>
					<rect id="SVGID_123_" x="-7.8" y="73.4" width="1095.7" height="903.3"/>
				</defs>
				<clipPath id="SVGID_124_">
					<use xlink:href="#SVGID_123_"  overflow="visible"/>
				</clipPath>
				
					<line clip-path="url(#SVGID_124_)" fill="none" stroke="#676767" stroke-width="30.41" stroke-miterlimit="10" x1="129" y1="847.5" x2="129" y2="644.9"/>
			</g>
			<g>
				<defs>
					<rect id="SVGID_125_" x="-7.8" y="73.4" width="1095.7" height="903.3"/>
				</defs>
				<clipPath id="SVGID_126_">
					<use xlink:href="#SVGID_125_"  overflow="visible"/>
				</clipPath>
				<g clip-path="url(#SVGID_126_)">
					<g>
						<rect x="127.8" y="550" fill="#E5E5E4" width="7.1" height="109.9"/>
						
							<polygon fill="none" stroke="#E5E5E4" stroke-width="3.041" stroke-linecap="round" stroke-linejoin="round" stroke-miterlimit="10" points="
							143.8,574.1 156.2,552.6 143.8,531.1 119,531.1 106.5,552.6 119,574.1 						"/>
					</g>
					<g>
						<rect x="126.2" y="550" fill="#FFFFFF" width="7.1" height="109.9"/>
						<polygon fill="#D44F2D" stroke="#FFFFFF" stroke-width="3.041" stroke-linejoin="round" stroke-miterlimit="10" points="
							142.2,574.1 154.5,552.6 142.2,531.1 117.4,531.1 104.9,552.6 117.4,574.1 						"/>
					</g>
					<g>
						<path fill="#FFFFFF" d="M119,555.5c0.4,0.3,1.1,0.5,1.8,0.5c1.1,0,1.6-0.5,1.6-1.3s-0.4-1.2-1.5-1.6c-1.3-0.4-2-1.1-2-2.2
							s0.9-2.1,2.5-2.1c0.7,0,1.4,0.2,1.7,0.4l-0.3,0.8c-0.2-0.1-0.7-0.3-1.5-0.3c-1.1,0-1.5,0.6-1.5,1.2c0,0.7,0.4,1.1,1.6,1.5
							c1.3,0.5,2,1.2,2,2.2c0,1.2-0.8,2.2-2.7,2.2c-0.7,0-1.6-0.2-2-0.5L119,555.5z"/>
						<path fill="#FFFFFF" d="M126.3,549.8H124v-0.8h5.7v0.8h-2.3v6.9h-1.1C126.3,556.6,126.3,549.8,126.3,549.8z"/>
						<path fill="#FFFFFF" d="M136.7,552.7c0,2.6-1.6,4-3.6,4s-3.5-1.6-3.5-3.9c0-2.4,1.5-4,3.6-4S136.7,550.4,136.7,552.7z
							 M130.7,552.8c0,1.7,0.8,3.2,2.4,3.2s2.4-1.5,2.4-3.2c0-1.6-0.8-3.2-2.4-3.2S130.7,551.1,130.7,552.8z"/>
						<path fill="#FFFFFF" d="M138,549c0.5-0.1,1.2-0.1,1.9-0.1c0.9,0,1.7,0.2,2.1,0.6c0.4,0.3,0.6,0.9,0.6,1.6
							c0,0.7-0.2,1.3-0.6,1.7c-0.5,0.5-1.4,0.8-2.3,0.8c-0.3,0-0.5,0-0.8-0.1v3.1H138V549z M139.1,552.7c0.2,0.1,0.5,0.1,0.8,0.1
							c1.2,0,1.9-0.6,1.9-1.7s-0.7-1.5-1.8-1.5c-0.4,0-0.7,0-0.9,0.1L139.1,552.7L139.1,552.7z"/>
					</g>
				</g>
			</g>
			<g>
				<defs>
					<rect id="SVGID_127_" x="-7.8" y="73.4" width="1095.7" height="903.3"/>
				</defs>
				<clipPath id="SVGID_128_">
					<use xlink:href="#SVGID_127_"  overflow="visible"/>
				</clipPath>
				<g clip-path="url(#SVGID_128_)">
					<g>
						
							<circle fill="none" stroke="#B7CBBF" stroke-width="4.5615" stroke-linecap="round" stroke-linejoin="round" stroke-miterlimit="10" cx="230.9" cy="691.9" r="29.1"/>
						
							<line fill="none" stroke="#6EC8C4" stroke-width="3.2111" stroke-linecap="round" stroke-linejoin="round" stroke-miterlimit="10" x1="231" y1="692.6" x2="245.2" y2="638.7"/>
						
							<circle fill="none" stroke="#B7CBBF" stroke-width="1.9267" stroke-linecap="round" stroke-linejoin="round" stroke-miterlimit="10" cx="230.9" cy="691.9" r="7.6"/>
						
							<path fill="none" stroke="#B7CBBF" stroke-width="4.5615" stroke-linecap="round" stroke-linejoin="round" stroke-miterlimit="10" d="
							M292.1,691.9c0,16.1,13.1,29.1,29.1,29.1c16,0,29.1-13.1,29.1-29.1s-13.1-29.1-29.1-29.1C305.2,662.8,292.1,675.8,292.1,691.9
							z"/>
						
							<polygon fill="none" stroke="#6EC8C4" stroke-width="3.2111" stroke-linecap="round" stroke-linejoin="round" stroke-miterlimit="10" points="
							295.8,648.4 242.7,648.4 280.5,691.5 						"/>
						
							<polyline fill="none" stroke="#6EC8C4" stroke-width="3.2111" stroke-linecap="round" stroke-linejoin="round" stroke-miterlimit="10" points="
							295.8,648.4 323.2,692.6 280.5,691.5 						"/>
						
							<circle fill="none" stroke="#B7CBBF" stroke-width="1.9267" stroke-linecap="round" stroke-linejoin="round" stroke-miterlimit="10" cx="279.7" cy="691.1" r="10"/>
						
							<path fill="none" stroke="#B7CBBF" stroke-width="1.9267" stroke-linecap="round" stroke-linejoin="round" stroke-miterlimit="10" d="
							M321.9,698.3c3.5-0.1,6.1-3.1,6-6.5c-0.1-3.5-3.1-6.1-6.5-6"/>
						
							<line fill="none" stroke="#B7CBBF" stroke-width="1.9267" stroke-linecap="round" stroke-linejoin="round" stroke-miterlimit="10" x1="321.4" y1="685.7" x2="280.5" y2="681.2"/>
						
							<line fill="none" stroke="#B7CBBF" stroke-width="1.9267" stroke-linecap="round" stroke-linejoin="round" stroke-miterlimit="10" x1="321.9" y1="698.3" x2="280.3" y2="701.3"/>
						
							<line fill="none" stroke="#6EC8C4" stroke-width="3.2111" stroke-linecap="round" stroke-linejoin="round" stroke-miterlimit="10" x1="288.2" y1="669.9" x2="299" y2="639.1"/>
						<path fill="none" stroke="#D96547" stroke-width="3.2111" stroke-miterlimit="10" d="M245.2,638.7l1.7-6.5h-17
							c0,0-4.4,0.4-4.4,6c0,0-0.4,6,7.4,6.2"/>
					</g>
					<path fill="#F6E0D2" d="M267.9,616.1c-3,0-5.4-1.1-7.4-3.2s-3.1-4.6-3.1-7.6s1.1-5.4,3.1-7.6c2-2.1,4.5-3.2,7.4-3.2
						c3,0,5.4,1.1,7.4,3.2s3.1,4.6,3.1,7.6s-1.1,5.4-3.1,7.6C273.3,615,270.8,616.1,267.9,616.1z"/>
					<path fill="#D96345" d="M311.7,641.5c0,3.5-1.5,6.1-4.3,7.8l-22.7,12.8v24.2c0,1.8-0.5,3.2-1.6,4.3c-1.1,1.2-2.4,1.8-4.2,1.8
						c-1.8,0-3.2-0.6-4.2-1.8c-1.1-1.2-1.6-2.6-1.6-4.3c0-5.1,0.1-10.2,0-15.3c0-3.5,0.1-7,0-10.3c-0.1-4.6-0.5-9.4,4.3-11.8l13.1-7
						"/>
					<path fill="#F79921" d="M264.3,630.4l9.6-15.8l0.8-1.2c2.8-3.7,8.9-3.8,12.2-0.9c1.3,1.1,2.3,2.6,3.6,3.8
						c5.1,5,9.8,10.2,14.8,15.3c1.4,1.4,2.7,2.8,4.1,4.2c1.4,1.6,2,3.5,2,5.8l-21.2,0.3L276,628l-5.5,8.9L264.3,630.4z"/>
					<path fill="#F6E0D2" d="M270.7,636.8l-1.2,1.9c-1.2,1.9-2.6,3-4.3,3h-19.2c-1.8,0-3-0.7-3.8-2.2c-0.7-1.5-0.7-3,0-4.3
						c0.7-1.5,2-2.2,3.8-2.2h16.9l1.5-2.4"/>
					<path fill="#D96345" d="M256.3,599.3c0.7-3.5,2.5-6.2,5.5-8.3s6.1-2.7,9.6-2.1c3.5,0.6,6.2,2.5,8.1,5.6
						c1.9,3.1,2.5,6.3,1.9,9.8"/>
					<path fill="none" stroke="#AEABB3" stroke-width="1.9267" stroke-miterlimit="10" d="M270.7,601.7c0,0-2.1,13-7.4,12.1"/>
				</g>
			</g>
			<g>
				<defs>
					<rect id="SVGID_129_" x="-7.8" y="73.4" width="1095.7" height="903.3"/>
				</defs>
				<clipPath id="SVGID_130_">
					<use xlink:href="#SVGID_129_"  overflow="visible"/>
				</clipPath>
				<g clip-path="url(#SVGID_130_)">
					<g>
						<path fill="#6EC8C4" d="M451.2,628.9c3.5-3.1,7.5-5.5,12.6-6.8c9.3-2.3,19.5-2.4,29.1-2.1c17.5,0.5,35.3,3.5,51.3,11.3
							c4,2,7.9,4.3,11.5,7.2c0,0,29.1,22.9,28.1,56.6c0,0,0.5,8.8-7.9,8.6h-183c0,0-8.3,1.1-10.2-5.2c-2.6-8.5-0.2-22.5,5.9-29.2
							c8.4-9.2,21.4-8.1,32.5-11.4C435.9,653.6,440.4,638.5,451.2,628.9z"/>
						<path fill="#D9EDE2" d="M423.4,664.7c4.9-0.9,7.4-2.1,11.7-4.3c13.6-7.1,11.3-16.7,21.3-25.5c3.2-2.8,7-5.1,11.6-6.2
							c3.3-0.8,6.6-1.4,10.1-1.7v37.8H423.4z"/>
						<path fill="#D9EDE2" d="M562,664.7c-7.2-19.2-13.4-21.6-13.4-21.6c-3.3-2.5-6.9-4.7-10.7-6.6c-14.8-7.3-31.2-9.9-47.6-10.4
							c-1.2,0-2.2-0.1-3.4-0.1v38.7h75V664.7z"/>
						<circle fill="#B7CBBF" cx="429.9" cy="703.7" r="20.6"/>
						<circle fill="#B88D8F" cx="429.9" cy="703.7" r="12.3"/>
						<circle fill="#B7CBBF" cx="551.2" cy="703.7" r="20.6"/>
						<circle fill="#B88D8F" cx="551.2" cy="703.7" r="12.3"/>
						<path fill="#58AEA4" d="M392,692.7c0,1.4-0.7,2.4-1.6,2.4h-9.7c-0.8,0-1.6-1.1-1.6-2.4v-15.1c0-1.4,0.7-2.4,1.6-2.4h9.7
							c0.8,0,1.6,1.1,1.6,2.4V692.7z"/>
					</g>
				</g>
			</g>
			<g>
				<defs>
					<rect id="SVGID_131_" x="-7.8" y="73.4" width="1095.7" height="903.3"/>
				</defs>
				<clipPath id="SVGID_132_">
					<use xlink:href="#SVGID_131_"  overflow="visible"/>
				</clipPath>
				<g clip-path="url(#SVGID_132_)">
					<path fill="#F16B62" d="M914.8,715.7c-3.6-3.2-7.8-5.7-13-7c-9.6-2.4-20.1-2.5-30.1-2.2c-18.1,0.5-36.5,3.6-52.9,11.6
						c-4.1,2-8.2,4.5-11.8,7.4c0,0-30.1,23.6-29,58.5c0,0-0.5,9,8.1,9h189.1c0,0,8.5,1.2,10.5-5.4c2.7-8.9,0.3-23.2-6.1-30.2
						c-8.8-9.5-22.1-8.4-33.6-11.7C930.7,741.2,926,725.5,914.8,715.7z"/>
					<path fill="#D9EDE2" d="M943.6,752.7c-5.1-1.1-7.6-2.2-12.1-4.5c-14-7.3-11.7-17.2-21.9-26.4c-3.3-3-7.2-5.3-12-6.4
						c-3.4-0.8-6.9-1.4-10.4-1.7v39L943.6,752.7L943.6,752.7z"/>
					<path fill="#D9EDE2" d="M800.3,752.7c7.4-19.8,13.8-22.3,13.8-22.3c3.4-2.6,7.1-5,11-6.9c15.2-7.5,32.3-10.2,49-10.8
						c1.2,0,2.3-0.1,3.5-0.1v40L800.3,752.7L800.3,752.7z"/>
					<circle fill="#B7CBBF" cx="936.9" cy="793" r="21.2"/>
					<circle fill="#B88D8F" cx="936.9" cy="793" r="12.8"/>
					<circle fill="#B7CBBF" cx="811.6" cy="793" r="21.2"/>
					<circle fill="#B88D8F" cx="811.6" cy="793" r="12.8"/>
					<path fill="#F59796" d="M976,781.5c0,1.4,0.7,2.5,1.6,2.5h10.1c0.8,0,1.6-1.2,1.6-2.5v-15.6c0-1.4-0.7-2.5-1.6-2.5h-10.1
						c-0.8,0-1.6,1.2-1.6,2.5V781.5z"/>
				</g>
			</g>
			<g>
				<defs>
					<rect id="SVGID_133_" x="-7.8" y="73.4" width="1095.7" height="903.3"/>
				</defs>
				<clipPath id="SVGID_134_">
					<use xlink:href="#SVGID_133_"  overflow="visible"/>
				</clipPath>
				<rect x="-0.4" y="835.1" clip-path="url(#SVGID_134_)" fill="#A3CD39" width="1088.2" height="190.6"/>
			</g>
		</g>
	</g>
</g>
</svg>
