<?xml version="1.0" encoding="utf-8"?>
<!-- Generator: Adobe Illustrator 18.1.1, SVG Export Plug-In . SVG Version: 6.00 Build 0)  -->
<svg version="1.1" id="Layer_1" xmlns="http://www.w3.org/2000/svg" xmlns:xlink="http://www.w3.org/1999/xlink" x="0px" y="0px"
	 viewBox="0 0 203 203.3" enable-background="new 0 0 203 203.3" xml:space="preserve">
<g>
	<path fill="#CA992C" d="M109.6,199c-3.8,3.8-9.9,3.8-13.6,0L6.9,109.9c-3.8-3.8-3.8-9.9,0-13.6L96,7.2c3.8-3.8,9.9-3.8,13.6,0
		l89.1,89.1c3.8,3.8,3.8,9.9,0,13.6L109.6,199z"/>
	<path fill="#FFCC05" d="M107,196.1c-3.8,3.8-9.9,3.8-13.6,0L4.3,107c-3.8-3.8-3.8-9.9,0-13.6L93.4,4.3c3.8-3.8,9.9-3.8,13.6,0
		l89.1,89.1c3.8,3.8,3.8,9.9,0,13.6L107,196.1z"/>
	<path fill="none" stroke="#CA992C" stroke-width="2.1993" stroke-miterlimit="10" d="M106.5,188c-3.4,3.4-9,3.4-12.5,0l-81.6-81.6
		C9,103,9,97.4,12.4,94L94,12.4c3.4-3.4,9-3.4,12.5,0L188,94c3.4,3.4,3.4,9,0,12.5L106.5,188z"/>
	<g opacity="0.8">
		<path fill="#231F20" d="M71.6,89.4"/>
		<path fill="#231F20" d="M82.8,89.7c0-6.6-5.3-11.9-11.9-11.9c-6.6,0-11.9,5.3-11.9,11.9c0,6.6,5.3,11.9,11.9,11.9
			C77.5,101.6,82.8,96.3,82.8,89.7z M70.9,105.3c-8.6,0-15.5-6.9-15.5-15.5c0-8.6,6.9-15.5,15.5-15.5c8.6,0,15.5,7,15.5,15.5
			C86.4,98.3,79.5,105.3,70.9,105.3z"/>
		<path fill="#231F20" d="M141.4,89.7c0-6.6-5.3-11.9-11.9-11.9c-6.6,0-11.9,5.3-11.9,11.9c0,6.6,5.3,11.9,11.9,11.9
			C136.1,101.6,141.4,96.3,141.4,89.7z M129.5,105.3c-8.6,0-15.5-6.9-15.5-15.5c0-8.6,7-15.5,15.5-15.5c8.6,0,15.5,7,15.5,15.5
			C145,98.3,138.1,105.3,129.5,105.3z"/>
		<path fill="#231F20" d="M90.8,88.1v3.2c-1.3,0-18.8,0-19.9,0c-0.9,0-1.6-0.7-1.6-1.6c0-0.2,0.1-0.4,0.2-0.7
			c0.7-1.5,9.5-21.3,10.1-22.6c0.3-0.6,0.2-1.1,0-1.4c-0.2-0.4-0.6-1.1-0.9-1.6c-0.2-0.3-0.6-0.4-1.1-0.3c-0.5,0.1-2.3,0.4-3.1,0.4
			c-1.4,0-1.3-1.1-1.3-2.2c0-1.1,0.7-1.6,1.6-1.6c1.4,0,10.9,0,12.2,0c1.3,0,1.6,1.9,0,2.2c-1.3,0.2-2.2,0.4-3.7,0.6
			c-1.1,0.1-1,0.7-0.6,1.4c0.2,0.4,0.5,0.8,0.7,1.2c0.1,0.3,0.6,0.6,1.3,0.6c2.9,0,27.6,0,28.7,0c0.5,0,0.7-0.7,0.5-1.1
			c-0.6-1-0.5-2.8-0.1-3.5c0.4-0.8,0.2-1.4-1-1.4c-2,0-9.6,0-11.6,0c-0.9,0-1.6-0.7-1.6-1.6c0-0.9,0.7-1.6,1.6-1.6
			c2.9,0,14.7,0,15.8,0c0.9,0,1.7,0.7,1.7,1.6c0,0.9-0.5,1.4-0.9,2c-0.8,1.1-1.2,2.4-0.3,4c0.9,1.8,12.8,23.1,13.7,24.9
			c0.4,0.8,0.1,1.8-0.6,2.2c-0.8,0.4-1.8,0.1-2.2-0.6c-0.7-1.2-3.5-6.6-6.5-11.8c-0.3-0.5-1.7-2.5-2.2-3.3c-0.5-0.7-1.2-0.8-1.9-0.3
			c-6.2,4.8-15.9,12.2-17,13l-1.9-2.6c1.8-1.3,12.3-9.5,17.7-13.5c0.9-0.7,0.9-1.1,0.5-2c-0.4-0.9-1.5-1-2.3-1c-2,0-25.8,0-27.7,0
			c-1.1,0-1.2,0.3-0.9,0.8c6.6,12.1,7.8,14.3,8.4,15.3l-2.9,1.6c-0.9-1.6-5.5-10.1-9-16.6c-0.3-0.5-0.5-0.5-0.8,0
			c-0.8,1.7-6.4,14.4-7.7,17.3c-0.2,0.4,0,0.7,0.6,0.7C79.6,88.1,89.9,88.1,90.8,88.1"/>
		<path fill="#231F20" d="M89.2,90.2c0-3.4,2.8-6.2,6.2-6.2c3.4,0,6.2,2.8,6.2,6.2c0,3.4-2.8,6.2-6.2,6.2
			C91.9,96.4,89.2,93.6,89.2,90.2z M95.4,93.2c1.6,0,3-1.3,3-3c0-1.6-1.3-2.9-3-2.9c-1.6,0-2.9,1.3-2.9,2.9
			C92.4,91.9,93.7,93.2,95.4,93.2z"/>
	</g>
	<g opacity="0.8">
		<path fill="#231F20" d="M100.2,146.6c-21.7,0-41-13-49.2-33.1c-0.5-1.1,0.1-2.4,1.2-2.9c1.1-0.5,2.4,0.1,2.9,1.2
			c7.5,18.4,25.2,30.3,45.1,30.3c19.9,0,37.6-11.9,45.1-30.3c0.5-1.1,1.8-1.7,2.9-1.2c1.1,0.5,1.7,1.8,1.2,2.9
			C141.2,133.6,121.9,146.6,100.2,146.6z"/>
	</g>
	<circle fill="#CA992C" cx="100.1" cy="178.9" r="2.8"/>
</g>
<g>
</g>
<g>
</g>
<g>
</g>
<g>
</g>
<g>
</g>
<g>
</g>
<g>
</g>
<g>
</g>
<g>
</g>
<g>
</g>
<g>
</g>
<g>
</g>
<g>
</g>
<g>
</g>
<g>
</g>
</svg>
